<svg width="554" height="415" viewBox="0 0 554 415" fill="none" xmlns="http://www.w3.org/2000/svg">
<path d="M125.823 329.629C128.497 332.569 131.851 334.844 135.608 336.265C152.119 343.721 169.395 350.63 187.563 352.171C214.292 354.433 240.486 345.287 265.661 336.29C263.113 336.687 253.966 328.834 251.621 327.243C247.009 324.286 242.474 321.204 237.938 318.172C230.727 313.375 221.732 311.76 213.171 310.467C193.848 307.612 174.107 309.256 155.559 315.264C144.996 318.646 134.983 323.484 125.823 329.629V329.629Z" fill="#EF4323"/>
<path d="M125.823 329.629C128.497 332.569 131.851 334.844 135.608 336.265C152.119 343.721 169.395 350.63 187.563 352.171C214.292 354.433 240.486 345.287 265.661 336.29C263.113 336.687 253.966 328.834 251.621 327.243C247.009 324.286 242.474 321.204 237.938 318.172C230.727 313.375 221.732 311.76 213.171 310.467C193.848 307.612 174.107 309.256 155.559 315.264C144.996 318.646 134.983 323.484 125.823 329.629V329.629Z" fill="url(#paint0_linear)"/>
<path d="M213.681 279.649C203.488 269.086 193.016 258.375 180.25 250.819C167.484 243.264 151.89 239.138 137.468 242.866L173.141 294.114C180.021 304.055 187.028 313.996 196.66 321.452C213.528 334.326 244.869 341.484 265.585 335.295C262.374 325.727 249.583 316.73 242.474 309.398L213.681 279.649Z" fill="#EF4323"/>
<path d="M213.681 279.649C203.488 269.086 193.016 258.375 180.25 250.819C167.484 243.264 151.89 239.138 137.468 242.866L173.141 294.114C180.021 304.055 187.028 313.996 196.66 321.452C213.528 334.326 244.869 341.484 265.585 335.295C262.374 325.727 249.583 316.73 242.474 309.398L213.681 279.649Z" fill="url(#paint1_linear)"/>
<path opacity="0.44" d="M104.598 361.541C117.924 361.541 131.786 363.057 143.15 369.842C144.184 370.322 145.013 371.14 145.494 372.153C146.386 374.638 143.252 376.602 140.653 377.422C124.711 382.06 108.101 384.133 91.4755 383.561C80.3898 383.31 69.329 382.422 58.3506 380.901C54.5 380.694 50.7503 379.622 47.394 377.77C45.7489 376.797 44.4659 375.336 43.7324 373.601C42.9989 371.866 42.8534 369.948 43.3171 368.127C44.6675 364.448 49.0757 362.733 53.0762 362.535C70.0208 361.491 87.475 361.615 104.598 361.541Z" fill="#EF4323"/>
<path opacity="0.44" d="M453.02 351.55L480.004 355.203C481.301 355.261 482.555 355.674 483.622 356.396C484.329 357.129 484.771 358.067 484.881 359.067C484.991 360.067 484.764 361.075 484.234 361.938C483.113 363.633 481.615 365.06 479.851 366.114C486.247 367.605 497.382 367.282 497.076 376.179C496.988 377.821 496.427 379.405 495.458 380.75C494.489 382.095 493.151 383.147 491.598 383.784C489.663 384.427 487.628 384.739 485.584 384.704C465.633 385.375 445.376 386.046 426.062 381.15C422.367 380.23 418.01 378.192 418.01 374.489C418.01 373.172 418.596 372.004 418.672 370.612C419.105 362.187 400.658 367.133 395.918 367.406C385.369 368.002 374.82 368.4 364.271 368.673C342.715 369.245 321.158 369.22 299.627 368.922C292.82 368.609 285.999 368.884 279.242 369.742C273.942 370.612 268.795 372.227 263.597 373.495C246.468 377.745 228.644 378.64 211.158 376.129C203.234 374.986 193.5 370.836 194.01 363.032C194.443 356.346 202.24 352.867 208.89 351.127C218.722 348.593 228.715 346.7 238.805 345.46C256.656 343.533 274.61 342.662 292.569 342.851C331.58 342.553 370.59 342.528 409.627 342.503C422.749 342.404 440.025 349.785 453.02 351.55Z" fill="#EF4323"/>
<path d="M94.2529 289.74L92.6221 367.431H81.8183L78.7097 305.671L71.9318 367.431L59.5483 369.444L56.6944 287.18L94.2529 289.74Z" fill="#EF4323"/>
<path d="M94.2529 289.74L92.6221 367.431H81.8183L78.7097 305.671L71.9318 367.431L59.5483 369.444L56.6944 287.18L94.2529 289.74Z" fill="url(#paint2_linear)"/>
<path d="M129.416 218.709C124.51 227.534 119.135 236.104 113.312 244.382C112.223 245.596 110.884 246.573 109.383 247.249C107.882 247.926 106.252 248.287 104.598 248.309C103.242 248.295 101.896 248.094 100.598 247.713C96.75 246.793 92.9533 245.699 89.1313 244.482C88.8108 244.363 88.5035 244.213 88.2139 244.034V244.034C85.6659 242.22 85.1053 237.224 84.5447 234.341C84.239 232.751 82.7356 226.438 85.513 225.966C86.9144 225.717 91.501 229.694 92.8005 230.464C95.5235 232.071 98.3302 233.54 101.209 234.863C101.552 235.072 101.952 235.175 102.356 235.162C102.79 235.042 103.174 234.789 103.451 234.441C109.283 227.764 114.176 220.359 118.001 212.421C119.122 212.893 120.218 213.415 121.313 213.962C122.842 214.741 124.345 215.569 125.823 216.447L126.282 216.696C127.531 217.292 128.422 217.913 129.416 218.709Z" fill="#EF4323"/>
<path d="M129.416 218.709C124.51 227.534 119.135 236.104 113.312 244.382C112.223 245.596 110.884 246.573 109.383 247.249C107.882 247.926 106.252 248.287 104.598 248.309C103.242 248.295 101.896 248.095 100.598 247.713C96.75 246.793 92.9534 245.7 89.1313 244.482C88.8051 244.358 88.4898 244.208 88.1885 244.034C87.9846 244.034 87.4495 242.096 87.3731 241.847C87.1148 241.034 86.9189 240.203 86.787 239.362C86.5567 237.713 86.5567 236.041 86.787 234.391C86.787 233.82 86.9399 233.397 87.475 233.845C88.0101 234.292 87.8063 234.317 88.0356 234.516C88.2649 234.714 88.8255 235.062 89.2077 235.336C90.2779 236.081 91.3481 236.827 92.4947 237.523C94.6913 238.803 97.0459 239.805 99.5019 240.505C101.138 241.06 102.868 241.305 104.598 241.226C105.899 241.065 107.135 240.58 108.188 239.818C109.241 239.057 110.076 238.044 110.611 236.877C111.503 235.535 112.37 234.143 113.159 232.751C113.97 231.354 114.908 230.032 115.962 228.799C118.205 226.165 120.421 223.53 122.664 220.921C123.802 219.408 125.063 217.987 126.435 216.671C127.531 217.292 128.422 217.914 129.416 218.709Z" fill="url(#paint3_linear)"/>
<path d="M66.9376 366.213V294.188L56.6944 287.18L60.1598 367.431L66.9376 366.213Z" fill="url(#paint4_linear)"/>
<path d="M64.6954 220.995C61.8103 222.399 59.0035 223.95 56.2868 225.643C50.5027 229.247 51.5474 230.912 52.6175 237.15C54.8668 250.467 56.0002 263.941 56.0065 277.437C55.7757 280.7 56.0073 283.978 56.6944 287.18C57.6291 289.034 58.3471 290.985 58.8348 292.995C67.753 294.188 88.1376 298.662 94.2274 289.74C100.317 280.817 89.5645 250.819 91.5265 237.349C93.4885 223.878 75.5501 222.437 75.5501 222.437L64.6954 220.995Z" fill="#EF4323"/>
<path d="M82.914 270.702L84.9779 259.418C85.1338 258.751 85.5048 258.149 86.0367 257.702C86.5686 257.254 87.2334 256.985 87.9337 256.933L110.153 255.243C110.482 255.225 110.812 255.278 111.118 255.4C111.424 255.522 111.697 255.708 111.92 255.946C112.142 256.185 112.307 256.468 112.402 256.777C112.498 257.085 112.521 257.41 112.472 257.728L103.91 295.331C103.796 295.803 103.523 296.223 103.135 296.525C102.747 296.827 102.266 296.993 101.77 296.997H81.3851C81.0669 296.997 80.7523 296.93 80.4633 296.8C80.1743 296.67 79.9179 296.48 79.7117 296.243C79.5056 296.007 79.3548 295.729 79.2697 295.43C79.1847 295.131 79.1675 294.818 79.2193 294.511L82.914 270.702Z" fill="#473F47"/>
<path d="M76.977 283.327L60.8223 293.965L58.2742 290.659C56.7165 285.183 55.9869 279.515 56.1084 273.833C56.4906 265.358 56.1084 268.391 56.1084 268.391L78.8371 282.408L76.977 283.327Z" fill="url(#paint5_linear)"/>
<path d="M85.0034 207.848C85.0294 208.745 84.9783 209.643 84.8505 210.532C84.4299 212.393 83.6797 214.167 82.6337 215.776C82.3696 216.336 81.9773 216.829 81.4871 217.218C80.4509 217.721 79.2568 217.819 78.1491 217.491C77.8897 217.429 77.6186 217.429 77.3592 217.491C76.7222 217.74 76.6458 218.585 76.6712 219.256L76.8496 222.337C76.9272 222.762 76.8554 223.2 76.6457 223.58C76.4134 223.818 76.1247 223.998 75.8049 224.102C74.633 224.48 73.3776 224.538 72.1742 224.271C70.9707 224.004 69.8649 223.421 68.9761 222.586C68.5349 222.19 68.1722 221.718 67.9059 221.194C67.7036 220.675 67.575 220.132 67.5237 219.579C67.1415 216.621 67.5237 213.639 67.2434 210.656C66.8301 208.192 66.753 205.685 67.0141 203.2C67.2604 201.883 67.8356 200.645 68.6888 199.596C69.5421 198.547 70.6472 197.719 71.9063 197.186C74.5206 196.386 77.3321 196.447 79.9073 197.36C81.1683 197.702 82.41 198.109 83.6274 198.578C84.2259 198.741 84.7424 199.112 85.0798 199.622C85.564 200.566 85.0798 201.933 85.0798 202.952C84.9779 204.642 85.0034 206.282 85.0034 207.848Z" fill="#FFBBAB"/>
<path d="M85.0289 195.695C85.3091 196.291 85.7168 196.813 86.0226 197.41C86.2032 197.687 86.3255 197.997 86.3824 198.322C86.4392 198.646 86.4295 198.978 86.3538 199.298C86.1648 199.804 85.8282 200.245 85.3856 200.566C83.1606 202.086 80.438 202.75 77.7414 202.43C76.9698 202.368 76.1943 202.368 75.4227 202.43C74.6456 202.503 73.9216 202.847 73.3842 203.399C72.7769 204.422 72.4357 205.574 72.3905 206.754C72.3905 206.754 72.3905 206.904 72.3905 206.953C72.3905 207.003 72.3905 206.953 72.3905 206.953C71.5241 206.953 70.7087 206.083 69.8424 206.406C69.6515 206.517 69.4928 206.673 69.3813 206.86C69.2698 207.047 69.2092 207.259 69.2054 207.475C69.1292 207.992 69.2088 208.518 69.4347 208.991C69.5357 209.176 69.5965 209.379 69.6131 209.588C69.6364 209.719 69.6364 209.854 69.6131 209.985L69.078 211.452C68.9436 212.004 68.597 212.484 68.1097 212.794C67.7643 212.896 67.3985 212.916 67.0436 212.851C66.6887 212.786 66.3552 212.639 66.0713 212.421C65.6283 212.205 65.2441 211.89 64.9501 211.501C64.7469 211.182 64.6085 210.828 64.5424 210.458C63.8117 206.783 63.5125 203.039 63.6506 199.298C63.5985 198.455 63.7198 197.61 64.0073 196.813C64.486 196.047 65.14 195.399 65.918 194.921C66.6959 194.442 67.5769 194.146 68.4919 194.054C71.8535 193.462 75.2702 193.22 78.6842 193.334C79.7501 193.288 80.818 193.354 81.8693 193.532C82.919 193.746 83.873 194.276 84.5957 195.049" fill="#963637"/>
<path d="M79.7544 211.253C79.2129 211.522 78.7882 211.972 78.5568 212.52C78.5568 212.52 78.5568 212.669 78.5568 212.719C78.5568 212.769 78.5568 212.719 78.7351 212.719C79.8975 212.794 81.0636 212.794 82.226 212.719C83.111 212.671 83.9774 212.452 84.7741 212.073C84.8322 212.09 84.8943 212.09 84.9524 212.073C84.9665 212.016 84.9665 211.956 84.9524 211.899C84.9397 211.672 84.8803 211.451 84.7778 211.247C84.6753 211.043 84.5318 210.862 84.3558 210.713C84.1798 210.565 83.975 210.452 83.7536 210.383C83.5321 210.313 83.2986 210.288 83.0669 210.308C81.9033 210.373 80.7703 210.696 79.7544 211.253V211.253Z" fill="#963637"/>
<path d="M67.5237 219.579C67.5237 219.579 64.9756 221.269 64.9756 223.108C64.9756 224.947 78.4549 261.755 78.4549 261.755C78.4549 261.755 78.7606 226.513 78.4549 224.873C77.9977 223.281 77.3921 221.734 76.6458 220.25C76.6458 220.25 71.4732 224.028 67.5237 219.579Z" fill="white"/>
<path d="M71.9318 222.909L71.0145 225.767L72.5434 226.985L73.2568 246.992L78.5823 261.755L78.7097 246.743L74.1486 226.91L75.8049 224.102L73.6135 222.909H71.9318Z" fill="#212741"/>
<path d="M81.8183 274.902C80.239 276.853 78.4446 278.628 76.4674 280.196L75.2443 281.14C74.8023 281.527 74.2526 281.778 73.6645 281.861C73.2578 281.856 72.8573 281.763 72.4924 281.588C64.6953 278.638 57.0511 275.325 49.5598 271.646C46.4512 270.08 43.0113 268.042 42.3488 264.687C42.1577 263.518 42.1577 262.327 42.3488 261.158C43.5207 252.627 45.7982 244.276 49.1267 236.305C50.0694 234.068 51.2415 229.744 53.6877 228.277H53.968L54.3247 228.103C57.6372 226.935 60.5165 230.166 61.4338 232.9C62.4665 236.882 62.334 241.066 61.0516 244.979C59.7792 248.857 58.8333 252.83 58.2232 256.859C58.1211 257.417 58.1739 257.992 58.3761 258.524C58.6857 259.037 59.1242 259.464 59.6502 259.766L81.8183 274.902Z" fill="#EF4323"/>
<path d="M81.8183 367.431L82.4044 373.147L86.0991 373.818L87.7553 372.402L90.5837 374.589H101.668C101.668 374.589 104.496 369.842 98.3553 368.226L92.2399 366.611L81.8183 367.431Z" fill="#212741"/>
<path d="M60.1598 367.431L60.7458 373.147L64.4405 373.818L66.0968 372.402L68.8996 374.589H80.0092C80.0092 374.589 82.8121 369.842 76.6967 368.226L70.5559 366.611L60.1598 367.431Z" fill="#212741"/>
<path d="M78.7097 305.67L83.6784 301.743L87.1693 366.61L81.8183 367.431L78.7097 305.67Z" fill="url(#paint6_linear)"/>
<path d="M76.5693 280.196L75.3462 281.14C74.9042 281.528 74.3545 281.779 73.7664 281.861C73.3597 281.857 72.9592 281.763 72.5943 281.588C64.7973 278.639 57.1531 275.325 49.6617 271.647C46.5531 270.081 43.1132 268.043 42.4507 264.688C42.2597 263.519 42.2597 262.327 42.4507 261.158C43.6227 252.628 45.9002 244.276 49.2286 236.305C50.1714 234.068 51.3435 229.744 53.7896 228.278H54.0699L54.4266 228.104C55.9762 228.081 57.4941 228.532 58.7686 229.392C60.0431 230.252 61.0105 231.478 61.5357 232.9C61.5357 232.9 49.7382 256.461 50.2478 260.015C50.7574 263.569 75.5246 275.101 75.5246 275.101L76.5693 280.196Z" fill="url(#paint7_linear)"/>
<path d="M87.3731 276.891C88.017 277.039 88.6181 277.328 89.1313 277.736C89.3875 277.942 89.5786 278.215 89.6823 278.523C89.786 278.831 89.7982 279.161 89.7173 279.475C89.5273 279.846 89.2967 280.196 89.0293 280.519C88.7236 281.066 88.6726 281.762 88.3668 282.333C88.0827 282.775 87.7109 283.156 87.2732 283.455C86.8356 283.753 86.3411 283.964 85.8188 284.073C84.3843 284.704 82.8068 284.963 81.2396 284.823C79.6725 284.684 78.1689 284.152 76.8751 283.278C75.1424 281.811 71.779 275.822 75.4991 274.952C77.1299 274.858 78.7654 275.026 80.3405 275.449C82.7218 275.737 85.0742 276.22 87.3731 276.891V276.891Z" fill="#FFBBAB"/>
<path d="M406.263 319.191H297.359L316.648 266.204H390.007L406.263 319.191Z" fill="#EF4323"/>
<path d="M406.263 319.191H297.359L316.648 266.204H390.007L406.263 319.191Z" fill="url(#paint8_linear)"/>
<path d="M497.535 73.7644H215.311C204.518 73.7644 195.768 82.299 195.768 92.8269V267.023C195.768 277.551 204.518 286.086 215.311 286.086H497.535C508.329 286.086 517.079 277.551 517.079 267.023V92.8269C517.079 82.299 508.329 73.7644 497.535 73.7644Z" fill="#EF4323"/>
<path d="M461.327 254.348C461.288 254.671 461.356 254.997 461.521 255.279C461.686 255.561 461.94 255.783 462.244 255.914C462.869 256.145 463.541 256.23 464.206 256.163H467.06C467.352 256.141 467.643 256.201 467.901 256.337C468.051 256.486 468.166 256.666 468.236 256.864C468.307 257.061 468.331 257.272 468.309 257.48L468.614 269.31C468.892 272.01 468.508 274.736 467.493 277.263C466.882 278.481 465.964 279.525 465.327 280.718C464.958 281.289 464.719 281.93 464.626 282.599C464.534 283.268 464.591 283.949 464.792 284.595C469.634 284.794 474.475 284.794 479.291 284.595C480.206 284.666 481.115 284.4 481.839 283.849C482.166 283.484 482.401 283.051 482.527 282.582C483.954 278.647 485.128 274.63 486.043 270.553C487.001 266.689 487.455 262.722 487.394 258.747C487.315 254.75 486.164 250.843 484.056 247.414C483.556 246.552 482.879 245.799 482.068 245.202C481.226 244.684 480.293 244.322 479.316 244.134C474.487 243.056 469.565 242.423 464.614 242.245C462.971 241.966 461.28 242.219 459.798 242.966C459.092 243.481 458.535 244.167 458.183 244.956C457.83 245.744 457.693 246.608 457.785 247.464C457.981 249.191 458.481 250.873 459.263 252.435" fill="url(#paint9_linear)"/>
<path d="M223.287 273.535C226.344 263.726 229.818 254.042 233.708 244.482C233.879 244.094 234.174 243.771 234.549 243.562C234.969 243.412 235.429 243.412 235.849 243.562L244.334 244.73C243.787 249.374 242.37 253.881 240.155 258.027C236.863 265.636 234.453 273.58 232.969 281.712C232.898 282.529 232.637 283.319 232.205 284.023C231.301 285.055 230.023 285.706 228.638 285.837C224.484 286.683 221.783 287.925 220.994 283.8C220.484 280.643 222.42 276.319 223.287 273.535Z" fill="url(#paint10_linear)"/>
<path d="M263.011 276.095H272.133C272.761 276.015 273.397 276.165 273.917 276.518C274.35 276.89 274.452 277.487 274.809 277.959C275.548 278.953 277.026 278.928 278.274 278.804C282.643 278.325 286.964 277.493 291.193 276.319L289.562 265.483C281.827 267.154 273.913 267.914 265.992 267.744L265.559 254.696H277.586C277.892 254.757 278.209 254.741 278.507 254.649C278.804 254.557 279.073 254.393 279.287 254.171C279.502 253.95 279.655 253.679 279.731 253.383C279.808 253.088 279.807 252.779 279.726 252.484C279.747 250.889 279.654 249.295 279.446 247.713C279.442 247.338 279.286 246.981 279.013 246.719C278.673 246.531 278.271 246.477 277.892 246.569C268.73 247.758 259.472 248.091 250.245 247.564C249.732 260.891 247.243 274.076 242.856 286.707C247.748 286.185 253.558 287.006 258.272 285.962C260.514 285.465 260.412 285.241 261.126 282.88C261.329 282.159 262.731 276.12 263.011 276.095Z" fill="url(#paint11_linear)"/>
<path d="M517.053 92.8269V245.6H195.742V92.8269C195.749 87.7732 197.81 82.9284 201.474 79.3549C205.138 75.7815 210.105 73.771 215.286 73.7644H497.509C502.691 73.771 507.658 75.7815 511.321 79.3549C514.985 82.9284 517.046 87.7732 517.053 92.8269V92.8269Z" fill="#473F47"/>
<path d="M472.819 237.075C469.253 239.84 465.128 241.839 460.715 242.941C460.44 242.952 460.169 243.017 459.919 243.133C459.67 243.248 459.447 243.411 459.263 243.612C459.096 244.036 459.096 244.505 459.263 244.929C459.931 248.031 460.886 251.067 462.117 254C468.626 253.172 474.885 251.022 480.488 247.688C481.413 247.205 482.214 246.525 482.833 245.699C483.315 244.73 483.575 243.67 483.597 242.593C483.826 239.635 484.26 235.435 482.476 232.825C481.049 230.787 480.285 232.129 478.399 233.397L472.819 237.075Z" fill="#EF4323"/>
<path d="M475.112 236.578C471.549 239.348 467.424 241.347 463.009 242.444C462.726 242.452 462.448 242.518 462.194 242.638C461.939 242.758 461.713 242.929 461.531 243.14C461.363 243.555 461.363 244.017 461.531 244.432C462.19 247.533 463.137 250.569 464.359 253.503C470.876 252.675 477.143 250.525 482.756 247.191C483.679 246.715 484.473 246.034 485.075 245.202C485.584 244.243 485.847 243.176 485.839 242.096C486.069 239.163 486.527 234.938 484.718 232.353C483.317 230.315 482.527 231.632 480.641 232.9L475.112 236.578Z" fill="url(#paint12_linear)"/>
<path d="M512.288 96.4806V240.63H200.584V96.4806C200.597 94.0654 201.098 91.6764 202.058 89.45C203.018 87.2237 204.418 85.2035 206.178 83.5049C207.939 81.8063 210.025 80.4626 212.318 79.5504C214.61 78.6382 217.065 78.1755 219.541 78.1886H493.254C495.737 78.1656 498.2 78.6211 500.501 79.5289C502.803 80.4366 504.898 81.7788 506.667 83.4784C508.435 85.1779 509.842 87.2014 510.807 89.4327C511.771 91.6639 512.275 94.0591 512.288 96.4806V96.4806Z" fill="white"/>
<path opacity="0.18" d="M512.288 96.4806V240.63H200.584V96.4806C200.597 94.0654 201.098 91.6764 202.058 89.45C203.018 87.2237 204.418 85.2035 206.178 83.5049C207.939 81.8063 210.025 80.4626 212.318 79.5504C214.61 78.6382 217.065 78.1755 219.541 78.1886H493.254C495.737 78.1656 498.2 78.6211 500.501 79.5289C502.803 80.4366 504.898 81.7788 506.667 83.4784C508.435 85.1779 509.842 87.2014 510.807 89.4327C511.771 91.6639 512.275 94.0591 512.288 96.4806V96.4806Z" fill="#EF4323"/>
<path opacity="0.18" d="M330.178 97.052H227.542V189.009H330.178V97.052Z" fill="#EF4323"/>
<path d="M446.981 326.249C445.449 327.743 444.235 329.518 443.408 331.472C442.582 333.425 442.159 335.519 442.166 337.632C442.155 339.867 442.633 342.078 443.567 344.119C444.561 346.329 446.053 348.293 447.932 349.864C449.811 351.434 452.03 352.571 454.422 353.19V356.868H255.673C251.53 356.873 247.492 355.602 244.134 353.237C240.776 350.872 238.268 347.533 236.97 343.696C236.294 341.742 235.949 339.694 235.951 337.632C235.947 335.105 236.455 332.602 237.445 330.267C238.435 327.931 239.888 325.809 241.72 324.022C243.552 322.236 245.727 320.819 248.122 319.853C250.516 318.888 253.082 318.392 255.673 318.396H454.422V322.074C451.612 322.812 449.048 324.251 446.981 326.249V326.249Z" fill="#EF4323"/>
<path d="M454.422 353.19V356.868H255.673C251.53 356.873 247.492 355.602 244.134 353.237C240.776 350.872 238.268 347.533 236.97 343.696C244.614 344.988 292.288 352.42 318.89 337.632L443.49 344.119C444.492 346.338 445.996 348.306 447.889 349.878C449.782 351.449 452.016 352.581 454.422 353.19V353.19Z" fill="url(#paint13_linear)"/>
<path d="M261.278 367.63C266.91 367.928 272.949 368.176 277.764 365.293C278.108 365.113 278.404 364.858 278.631 364.548C278.744 364.296 278.79 364.02 278.763 363.746C278.736 363.472 278.638 363.209 278.478 362.982C278.138 362.536 277.692 362.178 277.178 361.938C275.374 361.09 273.436 360.543 271.445 360.323C268.897 359.9 266.578 359.503 264.132 359.254C262.552 359.105 259.877 358.484 258.603 359.726C258.214 360.303 257.958 360.954 257.853 361.637C257.747 362.319 257.794 363.015 257.991 363.678C258.297 365.915 258.73 367.481 261.278 367.63Z" fill="white"/>
<path d="M223.949 361.416C228.383 364.821 233.224 368.35 238.855 368.673C239.236 368.725 239.624 368.674 239.977 368.524C240.223 368.386 240.428 368.187 240.571 367.947C240.714 367.707 240.79 367.435 240.792 367.157C240.769 366.599 240.612 366.055 240.333 365.567C239.323 363.886 238.051 362.368 236.562 361.068C234.804 359.378 233.046 357.688 231.16 356.098C229.963 355.104 228.128 353.091 226.37 353.414C224.612 353.737 224.128 355.203 223.542 356.321C222.497 358.335 221.936 359.875 223.949 361.416Z" fill="white"/>
<path d="M446.981 326.249C444.933 328.251 443.461 330.743 442.714 333.476C441.966 336.208 441.97 339.085 442.724 341.815C443.478 344.546 444.956 347.035 447.01 349.032C449.063 351.029 451.62 352.463 454.422 353.19V353.737H335.478C331.085 353.737 326.873 352.035 323.767 349.005C320.661 345.976 318.916 341.867 318.916 337.582C318.916 333.298 320.661 329.189 323.767 326.159C326.873 323.129 331.085 321.427 335.478 321.427H454.422V321.949C451.599 322.723 449.033 324.206 446.981 326.249V326.249Z" fill="white"/>
<path d="M92.1125 257.381L92.6986 255.492C92.7517 255.321 92.8547 255.169 92.9949 255.054C93.1352 254.939 93.3067 254.867 93.4885 254.846L105.235 254.001C105.335 253.99 105.435 254.005 105.528 254.043C105.62 254.081 105.7 254.142 105.762 254.219C105.823 254.296 105.863 254.388 105.878 254.484C105.893 254.581 105.882 254.68 105.847 254.771L105.133 256.834C105.062 257.041 104.93 257.222 104.753 257.355C104.576 257.488 104.362 257.566 104.139 257.58L92.826 258.251C92.7135 258.26 92.6005 258.242 92.4968 258.198C92.3932 258.155 92.3021 258.087 92.2316 258.001C92.1611 257.915 92.1134 257.814 92.0926 257.705C92.0719 257.597 92.0787 257.486 92.1125 257.381V257.381Z" fill="white"/>
<path d="M138.283 208.594C137.429 210.083 136.144 211.293 134.589 212.073C133.13 212.738 131.623 213.295 130.079 213.738C128.518 214.137 127.127 215.007 126.104 216.223L125.925 216.447C124.447 215.586 122.944 214.757 121.415 213.962C121.619 213.564 122.001 213.092 122.154 212.794C122.485 212.073 122.74 211.327 123.046 210.607C124.151 208.101 125.996 205.972 128.346 204.493C128.524 204.493 128.754 204.269 128.932 204.493C128.957 204.547 128.97 204.607 128.97 204.667C128.97 204.727 128.957 204.786 128.932 204.841C128.913 205.899 128.614 206.935 128.066 207.848L137.29 204.617C137.517 204.503 137.775 204.459 138.029 204.493C138.176 204.549 138.31 204.636 138.42 204.748C138.53 204.859 138.614 204.993 138.666 205.139C138.857 205.708 138.921 206.311 138.855 206.906C138.79 207.502 138.595 208.077 138.283 208.594Z" fill="#FFBBAB"/>
<path d="M267.98 355.178V360.646C264.598 361.045 261.186 361.136 257.788 360.919C257.632 360.949 257.471 360.941 257.318 360.898C257.166 360.854 257.026 360.775 256.912 360.668C256.797 360.561 256.71 360.429 256.659 360.282C256.607 360.135 256.592 359.979 256.616 359.826C255.902 350.754 257.074 341.608 256.004 332.611C255.835 330.72 255.388 328.862 254.679 327.094C253.808 325.333 252.749 323.667 251.519 322.123C247.952 317.327 244.774 312.267 242.015 306.988C239.373 301.627 238.156 295.704 238.473 289.764C238.473 283.824 241.684 281.264 247.621 282.805C248.535 282.951 249.405 283.29 250.169 283.8C250.772 284.329 251.273 284.961 251.647 285.664C255.23 291.349 258.406 297.27 261.151 303.384C267.674 319.663 268.209 337.582 267.98 355.178Z" fill="#473F47"/>
<path d="M267.98 355.178V360.646C264.598 361.045 261.186 361.136 257.788 360.919C257.632 360.949 257.471 360.941 257.318 360.898C257.166 360.854 257.026 360.775 256.912 360.668C256.797 360.561 256.71 360.429 256.659 360.282C256.607 360.135 256.592 359.979 256.616 359.826C255.902 350.754 257.074 341.608 256.004 332.611C255.835 330.72 255.388 328.862 254.679 327.094C253.808 325.333 252.749 323.667 251.519 322.123C247.952 317.327 244.774 312.267 242.015 306.988C239.373 301.627 238.156 295.704 238.473 289.764C238.473 283.824 241.684 281.264 247.621 282.805C248.535 282.951 249.405 283.29 250.169 283.8C250.772 284.329 251.273 284.961 251.647 285.664C255.23 291.349 258.406 297.27 261.151 303.384C267.674 319.663 268.209 337.582 267.98 355.178Z" fill="url(#paint14_linear)"/>
<path d="M271.216 250.571C283.316 247.28 293.715 239.691 300.366 229.296C300.991 228.54 301.429 227.653 301.646 226.705C301.862 225.756 301.852 224.772 301.614 223.828C301.586 223.713 301.532 223.604 301.458 223.51C301.383 223.416 301.289 223.338 301.181 223.282C300.85 223.133 300.468 223.282 300.136 223.555L284.44 233.496C280.245 236.495 275.57 238.796 270.604 240.306C269.84 241.797 269.3 243.387 268.999 245.028C269.041 247.074 269.826 249.038 271.216 250.571V250.571Z" fill="#FFBBAB"/>
<path d="M461.123 131.325H277V276.045H461.123V131.325Z" fill="white"/>
<path opacity="0.16" d="M302.939 273.162C302.094 273.723 301.125 274.081 300.111 274.206C293.405 275.518 286.55 275.953 279.726 275.499C279.056 275.533 278.393 275.349 277.841 274.977C277.287 274.397 276.986 273.631 277 272.839C276.816 270.793 276.954 268.731 277.408 266.725C277.408 266.452 294.072 266.477 295.652 266.725C297.869 267.073 306.863 270.081 302.939 273.162Z" fill="#EF4323"/>
<path opacity="0.16" d="M445.784 216C445.542 217.298 445.542 218.628 445.784 219.927C446.331 221.755 447.268 223.449 448.536 224.897C453.582 231.735 457.542 239.276 460.282 247.265C461.303 242.857 461.689 238.332 461.429 233.82C461.476 232.238 461.356 230.655 461.072 229.097C460.454 226.951 459.599 224.876 458.524 222.909C457.038 219.726 455.919 216.392 455.186 212.968C454.676 210.482 453.81 204.518 449.937 204.915C446.599 205.437 446.039 213.589 445.784 216Z" fill="#EF4323"/>
<path d="M226.905 294.76C228.406 300.454 230.497 305.983 233.148 311.263C235.339 315.761 240.41 321.527 240.384 326.597C240.384 335.743 230.523 347.946 224.459 354.209C227.659 356.267 231.076 357.983 234.651 359.329C235.432 359.733 236.334 359.856 237.199 359.677C238.146 359.271 238.895 358.522 239.289 357.589L245.888 346.43C249.557 340.217 253.354 333.655 253.66 326.547C253.677 323.944 253.49 321.344 253.099 318.768C252.411 313.276 253.099 307.062 251.698 301.719C250.449 296.748 248.818 292.026 247.672 287.08C247.386 284.526 246.175 282.156 244.257 280.395C243.349 279.802 242.34 279.373 241.276 279.127C236.18 277.711 230.574 277.537 227.771 282.731C226.05 286.519 225.743 290.775 226.905 294.76V294.76Z" fill="#473F47"/>
<path d="M272.77 240.853C275.573 241.847 272.949 248.309 272.21 250.123C272.17 250.361 272.079 250.587 271.941 250.787C271.803 250.987 271.623 251.155 271.412 251.28C271.202 251.405 270.966 251.484 270.721 251.512C270.476 251.54 270.227 251.515 269.993 251.44C265.789 251.068 261.584 250.571 257.405 249.974C256.514 249.892 255.648 249.639 254.857 249.229C254.363 248.885 253.943 248.449 253.624 247.945C253.305 247.442 253.092 246.881 252.997 246.296C252.615 244.382 252.411 239.809 254.118 238.343C255.341 237.274 257.813 238.045 259.418 238.194C263.963 238.547 268.447 239.44 272.77 240.853V240.853Z" fill="white"/>
<path d="M271.878 243.562C274.681 244.556 272.057 251.018 271.292 252.832C271.173 253.298 270.894 253.71 270.502 254.001C270.064 254.198 269.572 254.25 269.101 254.15C264.871 253.777 260.692 253.28 256.514 252.708C255.579 252.622 254.671 252.361 253.838 251.938C253.346 251.594 252.93 251.157 252.615 250.653C252.3 250.149 252.092 249.589 252.004 249.005C251.596 247.091 251.417 242.518 253.125 241.052C254.348 240.008 256.794 240.754 258.425 240.903C263.004 241.251 267.522 242.144 271.878 243.562Z" fill="url(#paint15_linear)"/>
<path d="M264.591 217.317C265.101 218.137 266.094 218.609 266.426 219.479C266.757 220.349 266.069 221.666 265.661 222.735C265.126 224.226 265.304 225.916 264.769 227.407C264.669 227.736 264.475 228.029 264.209 228.252C263.963 228.415 263.685 228.525 263.393 228.576C262.254 228.803 261.087 228.87 259.928 228.774C259.714 228.698 259.479 228.698 259.265 228.774C259.092 228.92 258.983 229.124 258.96 229.346C258.246 232.179 258.246 235.138 258.96 237.97C259.215 238.89 259.495 240.033 258.781 240.704C258.529 240.922 258.221 241.068 257.89 241.126C256.761 241.227 255.625 241.028 254.603 240.552C253.58 240.075 252.709 239.337 252.08 238.417C250.745 236.898 249.599 235.229 248.666 233.447C248.385 232.959 248.187 232.43 248.079 231.881C248.054 231.165 248.157 230.45 248.385 229.769C249.021 227.419 249.405 225.012 249.532 222.586C249.396 219.488 249.783 216.39 250.679 213.415C251.034 212.405 251.713 211.534 252.615 210.93C253.679 210.443 254.864 210.262 256.029 210.408C258.36 210.248 260.663 210.979 262.451 212.446C263.037 213.117 263.979 216.223 264.591 217.317Z" fill="#FFBBAB"/>
<path d="M263.648 209.961C264.591 209.787 265.279 211.029 264.922 211.874C264.689 212.286 264.356 212.635 263.951 212.891C263.547 213.147 263.084 213.301 262.603 213.341C261.654 213.423 260.71 213.555 259.775 213.738C259.306 213.85 258.885 214.102 258.57 214.458C258.255 214.814 258.061 215.258 258.017 215.727C257.494 215.654 256.961 215.771 256.52 216.055C256.079 216.338 255.759 216.77 255.622 217.267C255.355 218.27 255.355 219.322 255.622 220.324C255.316 220.648 254.781 220.324 254.501 220.101C254.22 219.877 254.042 219.38 253.685 219.156C252.87 218.734 251.902 219.728 252.003 220.623C252.241 221.495 252.77 222.264 253.507 222.81C253.684 222.939 253.824 223.11 253.915 223.307C254.169 224.052 253.15 224.574 252.36 224.748C252.424 225.328 252.354 225.913 252.156 226.463C252.062 226.741 251.881 226.983 251.639 227.157C251.397 227.331 251.106 227.427 250.806 227.432C250.271 227.432 249.838 227.01 249.353 226.811C248.869 226.612 248.105 226.811 248.054 227.258C247.239 225.593 248.054 224.028 247.748 222.288C247.442 220.548 246.117 221.368 245.2 220.399C244.716 219.852 244.741 219.032 244.512 218.336C244.283 217.64 243.467 216.721 243.264 215.851C242.907 214.31 244.232 212.918 245.429 211.874C245.303 211.585 245.272 211.265 245.34 210.957C245.409 210.65 245.573 210.371 245.812 210.159C246.309 209.767 246.909 209.517 247.544 209.439C247.71 209.418 247.867 209.358 248.003 209.265C248.207 209.066 248.156 208.743 248.003 208.469C247.621 203.772 255.469 205.064 258.348 205.313C259.553 205.419 260.714 205.802 261.737 206.431C262.323 206.73 264.718 209.762 263.648 209.961Z" fill="#473F47"/>
<path d="M248.411 232.279H248.589C252.793 233.298 258.909 237.026 260.285 241.176C262.294 246.832 262.854 252.882 261.915 258.797C261.049 262.55 258.705 265.806 257.737 269.459C257.041 273.507 256.053 277.502 254.781 281.414C254.182 283.219 253.003 284.788 251.417 285.887C249.976 286.578 248.385 286.919 246.78 286.881C242.066 287.13 235.441 288.696 231.492 285.539C230.068 284.239 228.969 282.638 228.28 280.858C227.591 279.079 227.33 277.168 227.517 275.275C227.925 271.491 228.94 267.792 230.523 264.315L237.072 247.663C238.703 243.711 242.525 231.135 248.411 232.279Z" fill="white"/>
<path d="M244.971 273.386C245.331 273.983 245.573 274.64 245.684 275.325C245.683 275.822 245.606 276.316 245.455 276.791C244.78 279.498 244.497 282.284 244.614 285.067C244.586 285.316 244.609 285.567 244.684 285.806C244.758 286.046 244.882 286.268 245.047 286.459C245.415 286.722 245.865 286.854 246.321 286.832C247.958 287.104 249.639 286.941 251.188 286.359C252.867 285.355 254.13 283.807 254.755 281.985C256.834 276.922 258.42 271.68 259.495 266.328C259.769 265.468 259.856 264.562 259.75 263.668C259.565 262.998 259.245 262.372 258.807 261.825C258.369 261.279 257.823 260.824 257.202 260.487C256.055 259.717 254.653 259.17 253.66 258.35C251.494 256.709 249.889 253.777 246.933 253.379C245.907 253.3 244.885 253.575 244.047 254.157C243.208 254.738 242.606 255.589 242.346 256.56C240.563 261.531 242.576 268.664 244.971 273.386Z" fill="url(#paint16_linear)"/>
<path d="M252.08 244.432C252.08 244.432 258.068 260.264 259.266 261.432C260.463 262.6 247.697 269.584 247.697 269.584C247.697 269.584 239.391 254.199 239.798 247.514C240.206 240.828 247.29 238.144 252.08 244.432Z" fill="white"/>
<path d="M247.697 267.446C247.813 268.211 248.082 268.947 248.488 269.611C248.895 270.275 249.432 270.854 250.069 271.316C250.705 271.778 251.429 272.112 252.198 272.301C252.967 272.49 253.767 272.529 254.552 272.417L265.406 272.267C270.502 272.267 275.395 272.044 280.389 272.069C281.609 272.232 282.806 272.532 283.956 272.963C285.511 273.302 287.111 273.394 288.696 273.237C291.82 272.913 294.749 271.594 297.028 269.484C297.798 268.924 298.374 268.147 298.679 267.259C298.984 266.371 299.004 265.413 298.735 264.513C298.63 264.276 298.452 264.076 298.225 263.942C298.023 263.903 297.816 263.903 297.614 263.942C294.632 264.441 291.582 264.39 288.619 263.793C288.864 263.423 288.988 262.99 288.976 262.55C288.976 262.127 288.517 261.705 288.084 261.804C287.855 261.881 287.652 262.019 287.498 262.202C286.771 263.001 285.862 263.622 284.844 264.014C283.826 264.407 282.728 264.561 281.637 264.464C273.407 264.091 265.304 262.376 257.074 261.978C255.152 261.781 253.208 261.975 251.367 262.55C250.399 263.021 249.561 263.712 248.922 264.563C248.284 265.415 247.864 266.403 247.697 267.446V267.446Z" fill="#FFBBAB"/>
<path d="M471.698 229.545C469.68 230.429 467.834 231.648 466.245 233.149C465.426 233.884 464.775 234.78 464.336 235.778C463.897 236.776 463.679 237.854 463.697 238.939C464.179 241.534 465.666 243.848 467.85 245.401C470.143 247.365 472.946 249.428 473.125 252.435C474.781 251.242 476.284 249.949 477.966 248.707C481.084 246.944 484.349 245.439 487.725 244.208C491.134 242.954 493.99 240.581 495.802 237.498C496.636 235.503 497.118 233.386 497.229 231.235C497.556 228.929 497.616 226.595 497.407 224.276C497.179 221.944 496.135 219.759 494.452 218.088C491.871 216.157 488.828 214.899 485.61 214.434C483.797 214.513 482.045 215.096 480.56 216.113C479.075 217.13 477.919 218.539 477.227 220.175C476.564 221.915 476.87 223.903 476.208 225.618C475.269 227.438 473.657 228.841 471.698 229.545V229.545Z" fill="#FC682D"/>
<path d="M443.49 370.537C442.849 370.598 442.221 370.757 441.63 371.01C441.342 371.148 441.098 371.359 440.923 371.622C440.748 371.884 440.649 372.188 440.637 372.501C440.697 372.806 440.833 373.093 441.033 373.335C441.233 373.578 441.491 373.769 441.783 373.893C442.344 374.166 442.981 374.29 443.541 374.588C444.017 374.904 444.52 375.179 445.045 375.409C445.979 375.582 446.946 375.451 447.797 375.036C451.79 373.669 455.999 372.996 460.231 373.048C460.637 373.098 461.048 373.098 461.454 373.048C462.07 372.842 462.619 372.481 463.044 372C463.47 371.52 463.756 370.938 463.875 370.314C464.461 367.752 464.461 365.096 463.875 362.535C463.831 362.244 463.727 361.965 463.569 361.714C463.383 361.522 463.144 361.384 462.881 361.317C458.728 359.776 456.944 363.802 454.218 365.989C451.122 368.411 447.418 369.982 443.49 370.537V370.537Z" fill="#FFBBAB"/>
<path d="M457.326 370.662H456.511C454.641 370.861 452.758 370.911 450.88 370.811C450.524 370.814 450.173 370.729 449.861 370.562C449.661 370.404 449.501 370.203 449.395 369.974C449.289 369.746 449.239 369.496 449.249 369.245C449.3 368.749 449.3 368.25 449.249 367.754C449.224 367.651 449.171 367.557 449.096 367.481C449.005 367.455 448.908 367.455 448.816 367.481C447.375 367.521 445.967 367.905 444.714 368.599C442.131 369.602 439.913 371.332 438.343 373.57C438.204 373.759 438.124 373.983 438.114 374.216C438.125 374.418 438.206 374.611 438.343 374.763C440.025 377.248 444.229 376.701 446.803 376.179C449.377 375.657 452.409 374.514 455.313 374.067C458.218 373.619 461.938 373.818 464.69 372.178C465.142 371.94 465.521 371.588 465.786 371.159C466.036 370.4 466.063 369.589 465.865 368.816C465.667 368.043 465.251 367.34 464.665 366.785C464.575 366.652 464.439 366.555 464.283 366.511C464.075 366.486 463.865 366.539 463.697 366.66C462.397 367.456 461.531 368.848 460.206 369.643C459.333 370.181 458.35 370.529 457.326 370.662V370.662Z" fill="#EF4323"/>
<path d="M485.814 266.85C485.814 266.85 498.784 274.107 495.165 287.354C491.98 298.935 482.858 306.143 477.023 316.035C473.787 321.502 474.475 330.474 473.023 336.862C471.336 344.688 469.027 352.374 466.117 359.851C465.506 361.342 464.563 363.107 462.907 363.156C462.135 363.054 461.37 362.913 460.613 362.734C459.876 362.808 459.134 362.808 458.397 362.734C456.511 362.311 456.511 359.702 456.944 357.763C459.01 348.885 460.255 339.843 460.664 330.748C460.97 323.739 459.034 316.308 461.072 309.498C462.677 304.13 472.309 275.3 472.309 275.3L485.814 266.85Z" fill="#EF4323"/>
<path d="M485.814 266.85C485.814 266.85 498.784 274.107 495.165 287.354C491.98 298.935 482.858 306.143 477.023 316.035C473.787 321.502 474.475 330.474 473.023 336.862C471.336 344.688 469.027 352.374 466.117 359.851C465.506 361.342 464.563 363.107 462.907 363.156C462.135 363.054 461.37 362.913 460.613 362.734C459.876 362.808 459.134 362.808 458.397 362.734C456.511 362.311 456.511 359.702 456.944 357.763C459.01 348.885 460.255 339.843 460.664 330.748C460.97 323.739 459.034 316.308 461.072 309.498C462.677 304.13 472.309 275.3 472.309 275.3L485.814 266.85Z" fill="url(#paint17_linear)"/>
<path d="M470.857 377.546C470.248 377.749 469.679 378.052 469.175 378.441C468.923 378.639 468.734 378.904 468.63 379.203C468.527 379.502 468.512 379.824 468.589 380.131C468.721 380.413 468.923 380.658 469.176 380.845C469.43 381.031 469.727 381.153 470.041 381.2C470.653 381.324 471.29 381.2 471.901 381.448C472.46 381.632 473.031 381.781 473.609 381.896C474.55 381.821 475.443 381.456 476.157 380.852C479.677 378.55 483.584 376.867 487.699 375.881C488.103 375.798 488.496 375.673 488.872 375.508C489.369 375.144 489.764 374.665 490.022 374.114C490.281 373.562 490.393 372.957 490.349 372.352C490.25 369.746 489.544 367.197 488.285 364.896C488.186 364.621 488.02 364.374 487.801 364.175C487.57 364.038 487.307 363.961 487.037 363.951C482.603 363.479 481.941 367.829 479.851 370.587C477.52 373.626 474.421 376.023 470.857 377.546Z" fill="#FFBBAB"/>
<path d="M484.259 275.871C487.685 276.358 490.872 277.869 493.382 280.196C498.809 284.694 498.478 293.89 496.592 300.625C495.624 304.154 489.865 315.264 488.948 318.42C487.343 324.385 490.553 331.791 490.833 337.831C491.191 345.826 490.91 353.836 489.993 361.789C489.814 363.38 489.33 365.294 487.75 365.766C486.986 365.965 486.171 365.766 485.406 365.915C484.724 366.185 484.016 366.385 483.291 366.511C481.355 366.511 480.743 364.026 480.743 362.162C480.464 353.055 479.364 343.99 477.456 335.072C475.978 328.212 472.182 321.477 472.36 314.394L472.895 296.997C473.099 290.585 472.182 284.098 474.195 277.934C474.358 277.188 474.77 276.515 475.367 276.021C475.938 275.692 476.589 275.52 477.252 275.523C479.203 275.375 481.162 275.375 483.113 275.523L484.259 275.871Z" fill="#EF4323"/>
<path d="M474.883 210.955C474.398 211.75 473.379 212.222 473.048 213.117C472.717 214.012 473.43 215.304 473.812 216.373C474.373 217.864 474.195 219.554 474.73 221.045C474.82 221.372 475.006 221.665 475.265 221.89C475.509 222.051 475.788 222.153 476.08 222.188C477.225 222.441 478.404 222.508 479.571 222.387C479.787 222.324 480.018 222.324 480.234 222.387C480.403 222.536 480.511 222.739 480.539 222.959C481.203 225.803 481.15 228.762 480.386 231.583C480.157 232.503 479.877 233.646 480.59 234.317C480.842 234.535 481.151 234.681 481.482 234.739C482.612 234.827 483.745 234.619 484.766 234.139C485.787 233.659 486.659 232.922 487.292 232.005C488.614 230.482 489.751 228.814 490.681 227.035C490.962 226.547 491.159 226.018 491.267 225.469C491.316 224.744 491.212 224.016 490.961 223.332C490.344 220.988 489.968 218.59 489.84 216.174C489.981 213.066 489.584 209.958 488.668 206.978C488.319 205.972 487.649 205.101 486.757 204.493C485.683 204.008 484.491 203.827 483.317 203.971C480.992 203.799 478.693 204.532 476.921 206.009C476.462 206.755 475.494 209.936 474.883 210.955Z" fill="#FFBBAB"/>
<path d="M491.088 225.867C491.088 225.867 481.584 230.663 478.705 234.416C475.825 238.169 471.06 240.952 472.946 248.085C474.424 253.851 472.819 259.22 472.742 264.936C472.742 266.502 473.43 267.769 473.405 269.36C473.405 272.143 470.857 274.604 471.825 277.487C472.564 279.848 475.367 280.867 477.813 281.538L487.368 284.247C489.418 285.101 491.726 285.155 493.815 284.396C496.21 283.104 496.745 279.997 496.974 277.338C497.535 270.453 497.331 262.177 500.236 255.74C502.028 252.085 502.632 247.984 501.969 243.985C501.357 238.765 499.038 224.947 491.088 225.867Z" fill="white"/>
<path d="M477.94 205.959C478.132 207.489 478.883 208.901 480.055 209.935C481.176 210.954 482.603 211.65 483.724 212.644C484.346 213.095 484.842 213.691 485.167 214.377C485.492 215.063 485.635 215.817 485.585 216.571C486.032 216.374 486.539 216.344 487.008 216.486C487.478 216.628 487.877 216.932 488.133 217.342C488.262 217.622 488.306 217.932 488.261 218.235C488.216 218.539 488.083 218.824 487.878 219.057C487.668 219.279 487.411 219.454 487.125 219.569C486.839 219.685 486.531 219.739 486.222 219.728C487.424 220.201 488.453 221.015 489.177 222.064C489.993 223.232 490.4 224.549 491.139 225.866C492.064 227.096 493.213 228.149 494.528 228.973C495.14 229.364 495.646 229.893 496.006 230.514C496.276 231.445 496.608 232.358 497 233.248C497.842 234.416 498.753 235.536 499.726 236.603C501.019 238.467 501.76 240.643 501.867 242.891C501.803 242.221 501.803 241.547 501.867 240.878C502.096 240.48 502.325 240.082 502.529 239.685C502.904 238.956 503.194 238.189 503.395 237.398C503.676 235.589 503.727 233.752 503.548 231.931C503.548 228.029 507.319 220.672 504.287 217.317C503.072 216.341 501.786 215.452 500.44 214.658C497.892 212.495 497.382 208.693 495.7 205.735C494.956 204.434 493.953 203.291 492.75 202.374C491.546 201.456 490.167 200.782 488.693 200.392C484.642 199.323 477.456 200.541 477.94 205.959Z" fill="#FC682D"/>
<path d="M490.783 231.906C490.783 231.906 473.685 234.59 472.08 234.168C470.474 233.745 470.474 247.986 470.474 247.986C470.474 247.986 488.311 247.464 494.07 243.836C499.828 240.207 498.707 232.776 490.783 231.906Z" fill="white"/>
<path d="M472.411 246.942C471.67 247.227 470.879 247.366 470.082 247.352C469.286 247.337 468.501 247.169 467.771 246.858C467.042 246.546 466.383 246.096 465.832 245.535C465.281 244.974 464.85 244.312 464.563 243.587L450.88 219.181C450.88 217.044 449.631 214.708 450.319 212.694C450.676 211.725 451.389 210.93 451.746 209.985C452.205 208.74 452.205 207.378 451.746 206.133C451.245 204.928 450.613 203.778 449.861 202.703C449.999 202.337 450.269 202.032 450.62 201.844C450.972 201.657 451.381 201.6 451.772 201.684C452.543 201.889 453.235 202.313 453.759 202.902C454.923 204.079 455.837 205.469 456.449 206.992C457.062 208.514 457.36 210.14 457.326 211.775C457.173 212.772 457.173 213.785 457.326 214.782C457.54 215.46 457.867 216.098 458.295 216.671C462.677 223.481 468.181 229.52 472.564 236.33C473.672 237.879 474.451 239.628 474.857 241.475C474.915 242.509 474.724 243.542 474.299 244.492C473.875 245.441 473.228 246.28 472.411 246.942Z" fill="#FFBBAB"/>
<path d="M484.693 375.284L483.954 375.483C482.278 375.879 480.575 376.153 478.858 376.303C478.541 376.389 478.206 376.389 477.889 376.303C477.685 376.18 477.513 376.013 477.385 375.815C477.256 375.617 477.176 375.393 477.15 375.16C477.109 374.696 477.015 374.237 476.87 373.793C476.843 373.699 476.779 373.618 476.692 373.57C476.609 373.545 476.52 373.545 476.437 373.57C475.112 373.788 473.862 374.317 472.793 375.11C470.589 376.393 468.817 378.276 467.697 380.528C467.603 380.722 467.56 380.936 467.57 381.15C467.622 381.327 467.718 381.49 467.85 381.622C469.736 383.784 473.507 382.691 475.8 381.871C478.093 381.05 480.743 379.683 483.444 378.913C486.145 378.143 489.483 377.844 491.802 376.005C492.184 375.736 492.491 375.377 492.694 374.961C492.824 374.23 492.742 373.477 492.459 372.788C492.175 372.099 491.701 371.5 491.088 371.059C490.985 370.956 490.852 370.887 490.706 370.861C490.61 370.861 490.515 370.881 490.427 370.92C490.339 370.958 490.261 371.014 490.197 371.084C489.075 371.979 488.464 373.346 487.368 374.241C486.565 374.775 485.652 375.131 484.693 375.284Z" fill="#EF4323"/>
<path d="M450.498 259.418H290.607V150.785H450.625L450.498 259.418ZM291.906 258.027H449.071V152.176H291.906V258.027Z" fill="#EF4323"/>
<path d="M304.876 239.909L298.913 233.894L327.656 206.804L346.231 215.105L378.464 185.927L395.408 196.366L428.431 170.021L433.859 176.483L396.071 206.655L379.458 196.44L347.862 225.046L329.414 216.795L304.876 239.909Z" fill="#EF4323"/>
<path d="M439.898 187.99H431.336V173.724H416.303V165.349H439.898V187.99Z" fill="#EF4323"/>
<defs>
<linearGradient id="paint0_linear" x1="213.607" y1="264.557" x2="163.809" y2="464.679" gradientUnits="userSpaceOnUse">
<stop offset="0.01"/>
<stop offset="0.13" stop-opacity="0.69"/>
<stop offset="0.25" stop-opacity="0.32"/>
<stop offset="1" stop-opacity="0"/>
</linearGradient>
<linearGradient id="paint1_linear" x1="20142.9" y1="13289.2" x2="8252.5" y2="17244.8" gradientUnits="userSpaceOnUse">
<stop offset="0.01"/>
<stop offset="0.13" stop-opacity="0.69"/>
<stop offset="0.25" stop-opacity="0.32"/>
<stop offset="1" stop-opacity="0"/>
</linearGradient>
<linearGradient id="paint2_linear" x1="40.1065" y1="308.255" x2="171.463" y2="388.327" gradientUnits="userSpaceOnUse">
<stop offset="0.01"/>
<stop offset="0.08" stop-opacity="0.69"/>
<stop offset="0.21" stop-opacity="0.32"/>
<stop offset="1" stop-opacity="0"/>
</linearGradient>
<linearGradient id="paint3_linear" x1="3802.24" y1="4844.71" x2="3508.67" y2="3002.63" gradientUnits="userSpaceOnUse">
<stop offset="0.01"/>
<stop offset="0.08" stop-opacity="0.69"/>
<stop offset="0.21" stop-opacity="0.32"/>
<stop offset="1" stop-opacity="0"/>
</linearGradient>
<linearGradient id="paint4_linear" x1="6694.81" y1="12350.5" x2="6204.63" y2="12404.2" gradientUnits="userSpaceOnUse">
<stop offset="0.01"/>
<stop offset="0.08" stop-opacity="0.69"/>
<stop offset="0.21" stop-opacity="0.32"/>
<stop offset="1" stop-opacity="0"/>
</linearGradient>
<linearGradient id="paint5_linear" x1="13166" y1="3788.69" x2="12873.2" y2="4333.14" gradientUnits="userSpaceOnUse">
<stop offset="0.01"/>
<stop offset="0.08" stop-opacity="0.69"/>
<stop offset="0.21" stop-opacity="0.32"/>
<stop offset="1" stop-opacity="0"/>
</linearGradient>
<linearGradient id="paint6_linear" x1="5477.19" y1="10956.9" x2="5648.13" y2="10961.8" gradientUnits="userSpaceOnUse">
<stop offset="0.01"/>
<stop offset="0.08" stop-opacity="0.69"/>
<stop offset="0.21" stop-opacity="0.32"/>
<stop offset="1" stop-opacity="0"/>
</linearGradient>
<linearGradient id="paint7_linear" x1="20914.8" y1="6881.25" x2="19416.4" y2="7390.66" gradientUnits="userSpaceOnUse">
<stop offset="0.01"/>
<stop offset="0.08" stop-opacity="0.69"/>
<stop offset="0.21" stop-opacity="0.32"/>
<stop offset="1" stop-opacity="0"/>
</linearGradient>
<linearGradient id="paint8_linear" x1="15121.4" y1="5675.66" x2="15216.9" y2="8322.3" gradientUnits="userSpaceOnUse">
<stop offset="0.01"/>
<stop offset="0.08" stop-opacity="0.69"/>
<stop offset="0.21" stop-opacity="0.32"/>
<stop offset="1" stop-opacity="0"/>
</linearGradient>
<linearGradient id="paint9_linear" x1="7614.8" y1="5740.86" x2="5948.25" y2="6130.36" gradientUnits="userSpaceOnUse">
<stop offset="0.01"/>
<stop offset="0.08" stop-opacity="0.69"/>
<stop offset="0.21" stop-opacity="0.32"/>
<stop offset="1" stop-opacity="0"/>
</linearGradient>
<linearGradient id="paint10_linear" x1="3556.78" y1="6181.04" x2="2830.71" y2="6130.47" gradientUnits="userSpaceOnUse">
<stop offset="0.01"/>
<stop offset="0.08" stop-opacity="0.69"/>
<stop offset="0.21" stop-opacity="0.32"/>
<stop offset="1" stop-opacity="0"/>
</linearGradient>
<linearGradient id="paint11_linear" x1="5744.07" y1="5896.52" x2="9220.55" y2="5171.58" gradientUnits="userSpaceOnUse">
<stop offset="0.01"/>
<stop offset="0.08" stop-opacity="0.69"/>
<stop offset="0.21" stop-opacity="0.32"/>
<stop offset="1" stop-opacity="0"/>
</linearGradient>
<linearGradient id="paint12_linear" x1="6169.41" y1="3084" x2="5509.16" y2="2868.64" gradientUnits="userSpaceOnUse">
<stop offset="0.01"/>
<stop offset="0.08" stop-opacity="0.69"/>
<stop offset="0.21" stop-opacity="0.32"/>
<stop offset="1" stop-opacity="0"/>
</linearGradient>
<linearGradient id="paint13_linear" x1="36764.5" y1="2515.97" x2="36798.9" y2="5778.65" gradientUnits="userSpaceOnUse">
<stop offset="0.01"/>
<stop offset="0.08" stop-opacity="0.69"/>
<stop offset="0.21" stop-opacity="0.32"/>
<stop offset="1" stop-opacity="0"/>
</linearGradient>
<linearGradient id="paint14_linear" x1="4169.2" y1="12844.8" x2="4952.39" y2="12785.6" gradientUnits="userSpaceOnUse">
<stop offset="0.01"/>
<stop offset="0.08" stop-opacity="0.69"/>
<stop offset="0.21" stop-opacity="0.32"/>
<stop offset="1" stop-opacity="0"/>
</linearGradient>
<linearGradient id="paint15_linear" x1="3195.81" y1="2061.23" x2="3356.41" y2="1801.11" gradientUnits="userSpaceOnUse">
<stop offset="0.01"/>
<stop offset="0.08" stop-opacity="0.69"/>
<stop offset="0.21" stop-opacity="0.32"/>
<stop offset="1" stop-opacity="0"/>
</linearGradient>
<linearGradient id="paint16_linear" x1="2540.81" y1="4914.24" x2="3071.3" y2="4880.66" gradientUnits="userSpaceOnUse">
<stop offset="0.01"/>
<stop offset="0.08" stop-opacity="0.69"/>
<stop offset="0.21" stop-opacity="0.32"/>
<stop offset="1" stop-opacity="0"/>
</linearGradient>
<linearGradient id="paint17_linear" x1="10588.2" y1="15555.5" x2="5876.21" y2="15387.5" gradientUnits="userSpaceOnUse">
<stop offset="0.01"/>
<stop offset="0.08" stop-opacity="0.69"/>
<stop offset="0.21" stop-opacity="0.32"/>
<stop offset="1" stop-opacity="0"/>
</linearGradient>
</defs>
</svg>
