<svg width="1440" height="313" viewBox="0 0 1440 313" fill="none" xmlns="http://www.w3.org/2000/svg">
<path d="M0 0.5L1440 69V312.5L0 245V0.5Z" fill="#EF4323"/>
<path d="M307.753 116H315.973V158H307.753V116ZM334.462 136.1L331.162 129.5H330.862L331.822 136.1V158H324.022V115.7H330.022L345.922 138.08L349.102 144.5H349.402L348.442 138.08V116H356.242V158.3H350.242L334.462 136.1ZM377.255 140.66L378.335 147.8H378.635L379.835 140.6L387.875 116H396.515L380.915 158.3H375.035L359.315 116H368.855L377.255 140.66ZM399.549 116H424.449V123.32H407.769V133.1H422.949V140.42H407.769V150.68H424.749V158H399.549V116ZM449.017 146.72C449.017 145.44 448.537 144.4 447.577 143.6C446.657 142.8 445.477 142.08 444.037 141.44C442.637 140.76 441.097 140.08 439.417 139.4C437.777 138.68 436.237 137.82 434.797 136.82C433.397 135.78 432.217 134.5 431.257 132.98C430.337 131.46 429.877 129.52 429.877 127.16C429.877 125.12 430.217 123.36 430.897 121.88C431.577 120.36 432.537 119.1 433.777 118.1C435.057 117.1 436.557 116.36 438.277 115.88C439.997 115.4 441.917 115.16 444.037 115.16C446.477 115.16 448.777 115.38 450.937 115.82C453.097 116.22 454.877 116.82 456.277 117.62L453.697 124.52C452.817 123.96 451.497 123.46 449.737 123.02C447.977 122.54 446.077 122.3 444.037 122.3C442.117 122.3 440.637 122.68 439.597 123.44C438.597 124.2 438.097 125.22 438.097 126.5C438.097 127.7 438.557 128.7 439.477 129.5C440.437 130.3 441.617 131.04 443.017 131.72C444.457 132.4 445.997 133.1 447.637 133.82C449.317 134.54 450.857 135.42 452.257 136.46C453.697 137.46 454.877 138.72 455.797 140.24C456.757 141.72 457.237 143.58 457.237 145.82C457.237 148.06 456.857 150 456.097 151.64C455.377 153.24 454.337 154.58 452.977 155.66C451.657 156.74 450.037 157.54 448.117 158.06C446.237 158.58 444.157 158.84 441.877 158.84C438.877 158.84 436.237 158.56 433.957 158C431.677 157.44 429.997 156.88 428.917 156.32L431.557 149.3C431.997 149.54 432.557 149.8 433.237 150.08C433.957 150.36 434.757 150.62 435.637 150.86C436.517 151.1 437.437 151.3 438.397 151.46C439.397 151.62 440.417 151.7 441.457 151.7C443.897 151.7 445.757 151.3 447.037 150.5C448.357 149.66 449.017 148.4 449.017 146.72ZM492.533 123.32H480.293V158H472.073V123.32H459.773V116H492.533V123.32ZM497.655 116H505.875V158H497.655V116ZM524.364 136.1L521.064 129.5H520.764L521.724 136.1V158H513.924V115.7H519.924L535.824 138.08L539.004 144.5H539.304L538.344 138.08V116H546.144V158.3H540.144L524.364 136.1ZM568.178 136.1H583.838V154.82C582.158 156.22 580.138 157.24 577.778 157.88C575.458 158.52 573.158 158.84 570.878 158.84C568.198 158.84 565.698 158.42 563.378 157.58C561.098 156.74 559.118 155.44 557.438 153.68C555.758 151.88 554.438 149.6 553.478 146.84C552.518 144.08 552.038 140.8 552.038 137C552.038 133.04 552.598 129.68 553.718 126.92C554.878 124.12 556.378 121.86 558.218 120.14C560.098 118.38 562.198 117.12 564.518 116.36C566.838 115.56 569.198 115.16 571.598 115.16C573.998 115.16 576.098 115.34 577.898 115.7C579.738 116.06 581.198 116.44 582.278 116.84L580.598 123.74C579.598 123.34 578.478 123.04 577.238 122.84C575.998 122.6 574.418 122.48 572.498 122.48C570.778 122.48 569.198 122.74 567.758 123.26C566.318 123.78 565.058 124.64 563.978 125.84C562.938 127 562.118 128.5 561.518 130.34C560.958 132.18 560.678 134.42 560.678 137.06C560.678 139.58 560.958 141.76 561.518 143.6C562.078 145.4 562.858 146.9 563.858 148.1C564.858 149.26 566.018 150.12 567.338 150.68C568.698 151.24 570.138 151.52 571.658 151.52C572.698 151.52 573.718 151.4 574.718 151.16C575.718 150.88 576.558 150.48 577.238 149.96V142.04L568.178 141.08V136.1ZM605.936 116H614.156V158H605.936V116ZM632.645 136.1L629.345 129.5H629.045L630.005 136.1V158H622.205V115.7H628.205L644.105 138.08L647.285 144.5H647.585L646.625 138.08V116H654.425V158.3H648.425L632.645 136.1ZM704.493 156.26C703.213 157.18 701.573 157.84 699.573 158.24C697.613 158.64 695.593 158.84 693.513 158.84C690.993 158.84 688.593 158.46 686.313 157.7C684.073 156.9 682.093 155.64 680.373 153.92C678.653 152.16 677.273 149.9 676.233 147.14C675.233 144.34 674.733 140.96 674.733 137C674.733 132.88 675.293 129.44 676.413 126.68C677.573 123.88 679.053 121.64 680.853 119.96C682.693 118.24 684.733 117.02 686.973 116.3C689.213 115.54 691.453 115.16 693.693 115.16C696.093 115.16 698.113 115.32 699.753 115.64C701.433 115.96 702.813 116.34 703.893 116.78L702.273 123.74C701.353 123.3 700.253 122.98 698.973 122.78C697.733 122.58 696.213 122.48 694.413 122.48C691.093 122.48 688.413 123.66 686.373 126.02C684.373 128.38 683.373 132.04 683.373 137C683.373 139.16 683.613 141.14 684.093 142.94C684.573 144.7 685.293 146.22 686.253 147.5C687.253 148.74 688.473 149.72 689.913 150.44C691.393 151.12 693.093 151.46 695.013 151.46C696.813 151.46 698.333 151.28 699.573 150.92C700.813 150.56 701.893 150.1 702.813 149.54L704.493 156.26ZM709.569 116.42C710.489 116.26 711.469 116.12 712.509 116C713.589 115.84 714.649 115.72 715.689 115.64C716.769 115.56 717.809 115.5 718.809 115.46C719.809 115.42 720.729 115.4 721.569 115.4C723.529 115.4 725.449 115.58 727.329 115.94C729.249 116.3 730.949 116.92 732.429 117.8C733.949 118.68 735.149 119.9 736.029 121.46C736.949 122.98 737.409 124.9 737.409 127.22C737.409 130.66 736.609 133.46 735.009 135.62C733.409 137.78 731.269 139.28 728.589 140.12L731.529 141.98L741.129 158H731.649L722.109 141.56L717.789 140.78V158H709.569V116.42ZM722.169 122.72C721.329 122.72 720.489 122.74 719.649 122.78C718.849 122.82 718.229 122.9 717.789 123.02V135.2H721.269C723.549 135.2 725.369 134.68 726.729 133.64C728.089 132.6 728.769 130.88 728.769 128.48C728.769 126.68 728.209 125.28 727.089 124.28C725.969 123.24 724.329 122.72 722.169 122.72ZM752.168 142.4L738.368 116H748.148L755.828 131.78L756.668 136.22H756.968L757.868 131.66L765.308 116H774.128L760.388 142.34V158H752.168V142.4ZM777.596 116.42C779.276 116.1 781.116 115.86 783.116 115.7C785.156 115.5 787.176 115.4 789.176 115.4C791.256 115.4 793.336 115.58 795.416 115.94C797.536 116.26 799.436 116.94 801.116 117.98C802.796 118.98 804.156 120.4 805.196 122.24C806.276 124.04 806.816 126.4 806.816 129.32C806.816 131.96 806.356 134.2 805.436 136.04C804.516 137.84 803.296 139.32 801.776 140.48C800.256 141.64 798.516 142.48 796.556 143C794.636 143.52 792.636 143.78 790.556 143.78C790.356 143.78 790.036 143.78 789.596 143.78C789.156 143.78 788.696 143.78 788.216 143.78C787.736 143.74 787.256 143.7 786.776 143.66C786.336 143.62 786.016 143.58 785.816 143.54V158H777.596V116.42ZM789.836 122.48C789.036 122.48 788.276 122.52 787.556 122.6C786.836 122.64 786.256 122.7 785.816 122.78V136.4C785.976 136.44 786.216 136.48 786.536 136.52C786.856 136.56 787.196 136.6 787.556 136.64C787.916 136.64 788.256 136.64 788.576 136.64C788.936 136.64 789.196 136.64 789.356 136.64C790.436 136.64 791.496 136.54 792.536 136.34C793.616 136.14 794.576 135.78 795.416 135.26C796.256 134.7 796.916 133.94 797.396 132.98C797.916 132.02 798.176 130.76 798.176 129.2C798.176 127.88 797.936 126.8 797.456 125.96C796.976 125.08 796.336 124.38 795.536 123.86C794.776 123.34 793.896 122.98 792.896 122.78C791.896 122.58 790.876 122.48 789.836 122.48ZM841.283 123.32H829.043V158H820.823V123.32H808.523V116H841.283V123.32ZM841.901 137C841.901 130 843.441 124.62 846.521 120.86C849.601 117.06 854.001 115.16 859.721 115.16C862.721 115.16 865.341 115.68 867.581 116.72C869.821 117.76 871.681 119.24 873.161 121.16C874.641 123.08 875.741 125.38 876.461 128.06C877.181 130.74 877.541 133.72 877.541 137C877.541 144 875.981 149.4 872.861 153.2C869.781 156.96 865.401 158.84 859.721 158.84C856.681 158.84 854.041 158.32 851.801 157.28C849.561 156.24 847.701 154.76 846.221 152.84C844.781 150.92 843.701 148.62 842.981 145.94C842.261 143.26 841.901 140.28 841.901 137ZM850.541 137C850.541 139.12 850.721 141.08 851.081 142.88C851.441 144.64 851.981 146.16 852.701 147.44C853.461 148.72 854.421 149.72 855.581 150.44C856.741 151.16 858.121 151.52 859.721 151.52C862.641 151.52 864.901 150.38 866.501 148.1C868.101 145.82 868.901 142.12 868.901 137C868.901 134.96 868.721 133.06 868.361 131.3C868.041 129.54 867.521 128 866.801 126.68C866.081 125.36 865.141 124.34 863.981 123.62C862.821 122.86 861.401 122.48 859.721 122.48C856.801 122.48 854.541 123.66 852.941 126.02C851.341 128.34 850.541 132 850.541 137ZM911.856 156.26C910.576 157.18 908.936 157.84 906.936 158.24C904.976 158.64 902.956 158.84 900.876 158.84C898.356 158.84 895.956 158.46 893.676 157.7C891.436 156.9 889.456 155.64 887.736 153.92C886.016 152.16 884.636 149.9 883.596 147.14C882.596 144.34 882.096 140.96 882.096 137C882.096 132.88 882.656 129.44 883.776 126.68C884.936 123.88 886.416 121.64 888.216 119.96C890.056 118.24 892.096 117.02 894.336 116.3C896.576 115.54 898.816 115.16 901.056 115.16C903.456 115.16 905.476 115.32 907.116 115.64C908.796 115.96 910.176 116.34 911.256 116.78L909.636 123.74C908.716 123.3 907.616 122.98 906.336 122.78C905.096 122.58 903.576 122.48 901.776 122.48C898.456 122.48 895.776 123.66 893.736 126.02C891.736 128.38 890.736 132.04 890.736 137C890.736 139.16 890.976 141.14 891.456 142.94C891.936 144.7 892.656 146.22 893.616 147.5C894.616 148.74 895.836 149.72 897.276 150.44C898.756 151.12 900.456 151.46 902.376 151.46C904.176 151.46 905.696 151.28 906.936 150.92C908.176 150.56 909.256 150.1 910.176 149.54L911.856 156.26ZM939.732 116H947.532V143.12C947.532 145.84 947.172 148.18 946.452 150.14C945.732 152.1 944.732 153.72 943.452 155C942.172 156.28 940.612 157.22 938.772 157.82C936.932 158.42 934.912 158.72 932.712 158.72C922.072 158.72 916.752 153.86 916.752 144.14V116H924.972V142.52C924.972 144.16 925.112 145.56 925.392 146.72C925.712 147.84 926.192 148.76 926.832 149.48C927.472 150.16 928.272 150.66 929.232 150.98C930.192 151.26 931.312 151.4 932.592 151.4C935.112 151.4 936.932 150.7 938.052 149.3C939.172 147.9 939.732 145.64 939.732 142.52V116ZM954.549 116.42C955.469 116.26 956.449 116.12 957.489 116C958.569 115.84 959.629 115.72 960.669 115.64C961.749 115.56 962.789 115.5 963.789 115.46C964.789 115.42 965.709 115.4 966.549 115.4C968.509 115.4 970.429 115.58 972.309 115.94C974.229 116.3 975.929 116.92 977.409 117.8C978.929 118.68 980.129 119.9 981.009 121.46C981.929 122.98 982.389 124.9 982.389 127.22C982.389 130.66 981.589 133.46 979.989 135.62C978.389 137.78 976.249 139.28 973.569 140.12L976.509 141.98L986.109 158H976.629L967.089 141.56L962.769 140.78V158H954.549V116.42ZM967.149 122.72C966.309 122.72 965.469 122.74 964.629 122.78C963.829 122.82 963.209 122.9 962.769 123.02V135.2H966.249C968.529 135.2 970.349 134.68 971.709 133.64C973.069 132.6 973.749 130.88 973.749 128.48C973.749 126.68 973.189 125.28 972.069 124.28C970.949 123.24 969.309 122.72 967.149 122.72ZM990.643 116.42C991.563 116.26 992.543 116.12 993.583 116C994.663 115.84 995.723 115.72 996.763 115.64C997.843 115.56 998.883 115.5 999.883 115.46C1000.88 115.42 1001.8 115.4 1002.64 115.4C1004.6 115.4 1006.52 115.58 1008.4 115.94C1010.32 116.3 1012.02 116.92 1013.5 117.8C1015.02 118.68 1016.22 119.9 1017.1 121.46C1018.02 122.98 1018.48 124.9 1018.48 127.22C1018.48 130.66 1017.68 133.46 1016.08 135.62C1014.48 137.78 1012.34 139.28 1009.66 140.12L1012.6 141.98L1022.2 158H1012.72L1003.18 141.56L998.863 140.78V158H990.643V116.42ZM1003.24 122.72C1002.4 122.72 1001.56 122.74 1000.72 122.78C999.923 122.82 999.303 122.9 998.863 123.02V135.2H1002.34C1004.62 135.2 1006.44 134.68 1007.8 133.64C1009.16 132.6 1009.84 130.88 1009.84 128.48C1009.84 126.68 1009.28 125.28 1008.16 124.28C1007.04 123.24 1005.4 122.72 1003.24 122.72ZM1026.74 116H1051.64V123.32H1034.96V133.1H1050.14V140.42H1034.96V150.68H1051.94V158H1026.74V116ZM1068.52 136.1L1065.22 129.5H1064.92L1065.88 136.1V158H1058.08V115.7H1064.08L1079.98 138.08L1083.16 144.5H1083.46L1082.5 138.08V116H1090.3V158.3H1084.3L1068.52 136.1ZM1125.96 156.26C1124.68 157.18 1123.04 157.84 1121.04 158.24C1119.08 158.64 1117.06 158.84 1114.98 158.84C1112.46 158.84 1110.06 158.46 1107.78 157.7C1105.54 156.9 1103.56 155.64 1101.84 153.92C1100.12 152.16 1098.74 149.9 1097.7 147.14C1096.7 144.34 1096.2 140.96 1096.2 137C1096.2 132.88 1096.76 129.44 1097.88 126.68C1099.04 123.88 1100.52 121.64 1102.32 119.96C1104.16 118.24 1106.2 117.02 1108.44 116.3C1110.68 115.54 1112.92 115.16 1115.16 115.16C1117.56 115.16 1119.58 115.32 1121.22 115.64C1122.9 115.96 1124.28 116.34 1125.36 116.78L1123.74 123.74C1122.82 123.3 1121.72 122.98 1120.44 122.78C1119.2 122.58 1117.68 122.48 1115.88 122.48C1112.56 122.48 1109.88 123.66 1107.84 126.02C1105.84 128.38 1104.84 132.04 1104.84 137C1104.84 139.16 1105.08 141.14 1105.56 142.94C1106.04 144.7 1106.76 146.22 1107.72 147.5C1108.72 148.74 1109.94 149.72 1111.38 150.44C1112.86 151.12 1114.56 151.46 1116.48 151.46C1118.28 151.46 1119.8 151.28 1121.04 150.92C1122.28 150.56 1123.36 150.1 1124.28 149.54L1125.96 156.26ZM1137.83 142.4L1124.03 116H1133.81L1141.49 131.78L1142.33 136.22H1142.63L1143.53 131.66L1150.97 116H1159.79L1146.05 142.34V158H1137.83V142.4ZM1155.09 154.16C1155.09 152.8 1155.53 151.72 1156.41 150.92C1157.33 150.12 1158.45 149.72 1159.77 149.72C1161.45 149.72 1162.77 150.28 1163.73 151.4C1164.69 152.52 1165.17 154 1165.17 155.84C1165.17 157.64 1164.89 159.18 1164.33 160.46C1163.77 161.78 1163.07 162.86 1162.23 163.7C1161.43 164.58 1160.55 165.26 1159.59 165.74C1158.67 166.26 1157.83 166.64 1157.07 166.88L1154.79 163.64C1155.87 163.2 1156.81 162.48 1157.61 161.48C1158.41 160.48 1158.85 159.42 1158.93 158.3C1158.01 158.42 1157.13 158.14 1156.29 157.46C1155.49 156.78 1155.09 155.68 1155.09 154.16Z" fill="black"/>
<path d="M590.332 214.22L591.232 205.88H590.872L588.292 212.6L579.352 228.26H576.712L567.292 212.54L564.652 205.88H564.352L565.552 214.16V236H557.752V194H565.252L576.472 213.2L578.452 218H578.692L580.492 213.08L591.112 194H598.552V236H590.332V214.22ZM626.441 226.7H613.541L610.361 236H602.141L617.261 193.7H623.321L638.441 236H629.801L626.441 226.7ZM615.641 220.1H624.641L621.521 210.74L620.261 204.14H619.961L618.701 210.8L615.641 220.1ZM642.069 194C642.909 193.88 643.849 193.78 644.889 193.7C645.969 193.62 647.069 193.56 648.189 193.52C649.309 193.48 650.389 193.46 651.429 193.46C652.509 193.42 653.469 193.4 654.309 193.4C658.029 193.4 661.209 193.92 663.849 194.96C666.489 196 668.629 197.46 670.269 199.34C671.909 201.22 673.109 203.46 673.869 206.06C674.629 208.66 675.009 211.52 675.009 214.64C675.009 217.48 674.649 220.22 673.929 222.86C673.209 225.5 672.009 227.84 670.329 229.88C668.649 231.92 666.429 233.56 663.669 234.8C660.949 236.04 657.569 236.66 653.529 236.66C652.889 236.66 652.029 236.64 650.949 236.6C649.909 236.56 648.809 236.5 647.649 236.42C646.529 236.38 645.449 236.32 644.409 236.24C643.369 236.2 642.589 236.14 642.069 236.06V194ZM654.969 200.72C654.089 200.72 653.189 200.74 652.269 200.78C651.389 200.82 650.729 200.88 650.289 200.96V229.1C650.449 229.14 650.709 229.18 651.069 229.22C651.469 229.22 651.889 229.24 652.329 229.28C652.769 229.28 653.189 229.3 653.589 229.34C653.989 229.34 654.289 229.34 654.489 229.34C656.809 229.34 658.729 228.94 660.249 228.14C661.809 227.3 663.029 226.2 663.909 224.84C664.829 223.48 665.469 221.92 665.829 220.16C666.189 218.36 666.369 216.52 666.369 214.64C666.369 213 666.209 211.36 665.889 209.72C665.569 208.04 664.969 206.54 664.089 205.22C663.249 203.9 662.089 202.82 660.609 201.98C659.129 201.14 657.249 200.72 654.969 200.72ZM680.916 194H705.816V201.32H689.136V211.1H704.316V218.42H689.136V228.68H706.116V236H680.916V194ZM745.56 224.72C745.56 223.44 745.08 222.4 744.12 221.6C743.2 220.8 742.02 220.08 740.58 219.44C739.18 218.76 737.64 218.08 735.96 217.4C734.32 216.68 732.78 215.82 731.34 214.82C729.94 213.78 728.76 212.5 727.8 210.98C726.88 209.46 726.42 207.52 726.42 205.16C726.42 203.12 726.76 201.36 727.44 199.88C728.12 198.36 729.08 197.1 730.32 196.1C731.6 195.1 733.1 194.36 734.82 193.88C736.54 193.4 738.46 193.16 740.58 193.16C743.02 193.16 745.32 193.38 747.48 193.82C749.64 194.22 751.42 194.82 752.82 195.62L750.24 202.52C749.36 201.96 748.04 201.46 746.28 201.02C744.52 200.54 742.62 200.3 740.58 200.3C738.66 200.3 737.18 200.68 736.14 201.44C735.14 202.2 734.64 203.22 734.64 204.5C734.64 205.7 735.1 206.7 736.02 207.5C736.98 208.3 738.16 209.04 739.56 209.72C741 210.4 742.54 211.1 744.18 211.82C745.86 212.54 747.4 213.42 748.8 214.46C750.24 215.46 751.42 216.72 752.34 218.24C753.3 219.72 753.78 221.58 753.78 223.82C753.78 226.06 753.4 228 752.64 229.64C751.92 231.24 750.88 232.58 749.52 233.66C748.2 234.74 746.58 235.54 744.66 236.06C742.78 236.58 740.7 236.84 738.42 236.84C735.42 236.84 732.78 236.56 730.5 236C728.22 235.44 726.54 234.88 725.46 234.32L728.1 227.3C728.54 227.54 729.1 227.8 729.78 228.08C730.5 228.36 731.3 228.62 732.18 228.86C733.06 229.1 733.98 229.3 734.94 229.46C735.94 229.62 736.96 229.7 738 229.7C740.44 229.7 742.3 229.3 743.58 228.5C744.9 227.66 745.56 226.4 745.56 224.72ZM760.096 194H768.316V236H760.096V194ZM808.946 214.22L809.846 205.88H809.486L806.906 212.6L797.966 228.26H795.326L785.906 212.54L783.266 205.88H782.966L784.166 214.16V236H776.366V194H783.866L795.086 213.2L797.066 218H797.306L799.106 213.08L809.726 194H817.166V236H808.946V214.22ZM824.354 194.42C826.034 194.1 827.874 193.86 829.874 193.7C831.914 193.5 833.934 193.4 835.934 193.4C838.014 193.4 840.094 193.58 842.174 193.94C844.294 194.26 846.194 194.94 847.874 195.98C849.554 196.98 850.914 198.4 851.954 200.24C853.034 202.04 853.574 204.4 853.574 207.32C853.574 209.96 853.114 212.2 852.194 214.04C851.274 215.84 850.054 217.32 848.534 218.48C847.014 219.64 845.274 220.48 843.314 221C841.394 221.52 839.394 221.78 837.314 221.78C837.114 221.78 836.794 221.78 836.354 221.78C835.914 221.78 835.454 221.78 834.974 221.78C834.494 221.74 834.014 221.7 833.534 221.66C833.094 221.62 832.774 221.58 832.574 221.54V236H824.354V194.42ZM836.594 200.48C835.794 200.48 835.034 200.52 834.314 200.6C833.594 200.64 833.014 200.7 832.574 200.78V214.4C832.734 214.44 832.974 214.48 833.294 214.52C833.614 214.56 833.954 214.6 834.314 214.64C834.674 214.64 835.014 214.64 835.334 214.64C835.694 214.64 835.954 214.64 836.114 214.64C837.194 214.64 838.254 214.54 839.294 214.34C840.374 214.14 841.334 213.78 842.174 213.26C843.014 212.7 843.674 211.94 844.154 210.98C844.674 210.02 844.934 208.76 844.934 207.2C844.934 205.88 844.694 204.8 844.214 203.96C843.734 203.08 843.094 202.38 842.294 201.86C841.534 201.34 840.654 200.98 839.654 200.78C838.654 200.58 837.634 200.48 836.594 200.48ZM885.27 236H858.69V194H866.91V228.68H885.27V236ZM889.51 194H914.41V201.32H897.73V211.1H912.91V218.42H897.73V228.68H914.71V236H889.51V194ZM919.778 232.04C919.778 230.64 920.218 229.54 921.098 228.74C921.978 227.9 923.138 227.48 924.578 227.48C926.098 227.48 927.298 227.9 928.178 228.74C929.058 229.54 929.498 230.64 929.498 232.04C929.498 233.44 929.058 234.56 928.178 235.4C927.298 236.24 926.098 236.66 924.578 236.66C923.138 236.66 921.978 236.24 921.098 235.4C920.218 234.56 919.778 233.44 919.778 232.04Z" fill="white"/>
</svg>
