<svg width="266" height="244" viewBox="0 0 266 244" fill="none" xmlns="http://www.w3.org/2000/svg">
<path d="M144.579 91.6803C114.776 100.149 88.3997 96.4527 85.68 83.422C85.4907 82.5259 83.1525 71.5215 83.1903 70.5779C83.1903 70.5507 84.4687 70.5779 84.4774 70.5338C85.1209 57.9239 107.033 52.3912 134.722 44.513C159.04 37.609 179.901 29.3913 188.668 37.1371C190.649 38.8818 193.118 50.375 193.619 52.7781C196.347 65.8157 174.388 83.2183 144.579 91.6803Z" fill="#EF4323"/>
<path d="M144.579 91.6803C114.776 100.149 88.3997 96.4527 85.68 83.422C85.4908 82.5259 82.9516 70.1264 82.9516 70.1264C83.5951 57.5132 107.033 52.3912 134.722 44.513C159.04 37.609 181.84 32.8264 190.611 40.5722C190.611 40.5722 193.118 50.3784 193.619 52.7917C196.347 65.8157 174.388 83.2183 144.579 91.6803Z" fill="url(#paint0_linear)"/>
<path opacity="0.29" d="M245.535 113.591H37.7208C31.5068 113.591 26.4692 119.463 26.4692 126.706V198.564C26.4692 205.807 31.5068 211.679 37.7208 211.679H245.535C251.749 211.679 256.787 205.807 256.787 198.564V126.706C256.787 119.463 251.749 113.591 245.535 113.591Z" fill="#EF4323"/>
<path d="M240.76 108.37H32.9453C26.7312 108.37 21.6937 114.242 21.6937 121.486V193.343C21.6937 200.587 26.7312 206.459 32.9453 206.459H240.76C246.974 206.459 252.011 200.587 252.011 193.343V121.486C252.011 114.242 246.974 108.37 240.76 108.37Z" fill="white"/>
<path d="M76.8424 143.851C76.8424 144.021 76.8596 144.19 76.8654 144.353C76.8654 144.184 76.8654 144.014 76.8654 143.851H76.8424Z" fill="#EF4323"/>
<path d="M76.8655 143.345C76.8655 143.515 76.8424 143.685 76.8424 143.851H76.8742C76.8742 143.681 76.8684 143.515 76.8655 143.345Z" fill="#EF4323"/>
<path d="M112.132 143.851C112.132 144.021 112.149 144.19 112.152 144.353C112.152 144.184 112.152 144.014 112.152 143.851H112.132Z" fill="#EF4323"/>
<path d="M112.152 143.345C112.152 143.515 112.132 143.685 112.132 143.851H112.164C112.164 143.681 112.155 143.515 112.152 143.345Z" fill="#EF4323"/>
<path d="M66.5808 143.851H66.6126C66.6126 143.681 66.5953 143.511 66.5895 143.345C66.5895 143.515 66.5808 143.681 66.5808 143.851Z" fill="#EF4323"/>
<path d="M66.5895 144.353C66.5895 144.184 66.6126 144.014 66.6126 143.851H66.5808C66.5808 144.017 66.5895 144.184 66.5895 144.353Z" fill="#EF4323"/>
<path d="M147.456 143.345C147.456 143.515 147.433 143.685 147.433 143.851H147.456C147.456 143.681 147.456 143.515 147.456 143.345Z" fill="#EF4323"/>
<path d="M101.867 143.851H101.902C101.902 143.678 101.885 143.511 101.879 143.345C101.876 143.515 101.867 143.681 101.867 143.851Z" fill="#EF4323"/>
<path d="M147.418 143.851C147.418 144.021 147.436 144.19 147.441 144.353C147.441 144.184 147.441 144.014 147.441 143.851H147.418Z" fill="#EF4323"/>
<path d="M101.879 144.353C101.879 144.184 101.902 144.014 101.902 143.851H101.867C101.867 144.017 101.876 144.184 101.879 144.353Z" fill="#EF4323"/>
<path d="M137.168 144.353C137.168 144.184 137.189 144.014 137.189 143.851H137.157C137.157 144.017 137.165 144.184 137.168 144.353Z" fill="#EF4323"/>
<path d="M182.638 143.851C182.637 144.351 182.658 144.85 182.702 145.348C182.725 144.852 182.739 144.353 182.739 143.851H182.638Z" fill="#EF4323"/>
<path d="M182.69 142.351C182.647 142.849 182.625 143.35 182.626 143.851H182.728C182.739 143.345 182.725 142.846 182.69 142.351Z" fill="#EF4323"/>
<path d="M137.157 143.851H137.189C137.189 143.681 137.171 143.511 137.168 143.345C137.165 143.515 137.157 143.681 137.157 143.851Z" fill="#EF4323"/>
<path d="M217.959 143.851C217.959 143.681 217.959 143.511 217.959 143.345C217.959 143.515 217.936 143.685 217.936 143.851H217.959Z" fill="#EF4323"/>
<path d="M172.411 145.348C172.455 144.85 172.478 144.351 172.478 143.851H172.373C172.373 144.353 172.388 144.852 172.411 145.348Z" fill="#EF4323"/>
<path d="M172.373 143.851H172.478C172.478 143.35 172.455 142.849 172.411 142.351C172.388 142.846 172.373 143.345 172.373 143.851Z" fill="#EF4323"/>
<path d="M217.924 143.851C217.924 144.021 217.942 144.19 217.947 144.353C217.947 144.184 217.947 144.014 217.947 143.851H217.924Z" fill="#EF4323"/>
<path d="M207.663 143.851H207.695C207.695 143.681 207.677 143.511 207.674 143.345C207.671 143.515 207.663 143.681 207.663 143.851Z" fill="#EF4323"/>
<path d="M207.674 144.353C207.674 144.184 207.695 144.014 207.695 143.851H207.663C207.663 144.017 207.671 144.184 207.674 144.353Z" fill="#EF4323"/>
<path d="M66.5896 143.345C66.475 139.521 65.0765 135.901 62.6951 133.267C60.3137 130.633 57.14 129.194 53.8575 129.261C50.575 129.328 47.4463 130.895 45.1452 133.624C42.8441 136.354 41.5547 140.027 41.5547 143.854C41.5547 147.681 42.8441 151.355 45.1452 154.084C47.4463 156.814 50.575 158.381 53.8575 158.448C57.14 158.514 60.3137 157.076 62.6951 154.441C65.0765 151.807 66.475 148.188 66.5896 144.363C66.5896 144.194 66.5896 144.024 66.5896 143.861C66.5896 143.698 66.5896 143.515 66.5896 143.345Z" fill="#EF4323"/>
<path d="M101.879 143.345C101.724 139.6 100.339 136.069 98.0101 133.482C95.6816 130.896 92.5886 129.453 89.3723 129.453C86.156 129.453 83.063 130.896 80.7345 133.482C78.4061 136.069 77.0207 139.6 76.8657 143.345C76.8657 143.515 76.8657 143.685 76.8657 143.851C76.8657 144.017 76.8657 144.19 76.8657 144.353C77.0207 148.098 78.4061 151.63 80.7345 154.216C83.063 156.802 86.156 158.245 89.3723 158.245C92.5886 158.245 95.6816 156.802 98.0101 154.216C100.339 151.63 101.724 148.098 101.879 144.353C101.879 144.184 101.879 144.014 101.879 143.851C101.879 143.688 101.876 143.515 101.879 143.345Z" fill="#EF4323"/>
<path d="M172.411 142.351C172.063 138.694 170.544 135.326 168.157 132.92C165.771 130.514 162.692 129.246 159.538 129.372C156.385 129.498 153.388 131.007 151.148 133.598C148.907 136.189 147.589 139.67 147.456 143.345C147.456 143.515 147.456 143.685 147.456 143.851C147.456 144.017 147.456 144.19 147.456 144.353C147.564 148.05 148.872 151.561 151.116 154.176C153.359 156.792 156.371 158.317 159.543 158.443C162.714 158.57 165.808 157.288 168.199 154.857C170.591 152.426 172.102 149.027 172.426 145.348C172.403 144.852 172.388 144.353 172.388 143.851C172.388 143.349 172.388 142.846 172.411 142.351Z" fill="#EF4323"/>
<path d="M137.168 143.345C137.021 139.594 135.639 136.053 133.309 133.459C130.98 130.865 127.882 129.417 124.66 129.417C121.439 129.417 118.341 130.865 116.011 133.459C113.682 136.053 112.3 139.594 112.152 143.345C112.152 143.515 112.152 143.685 112.152 143.851C112.152 144.017 112.152 144.19 112.152 144.353C112.3 148.105 113.682 151.646 116.011 154.24C118.341 156.834 121.439 158.281 124.66 158.281C127.882 158.281 130.98 156.834 133.309 154.24C135.639 151.646 137.021 148.105 137.168 144.353C137.168 144.184 137.168 144.014 137.168 143.851C137.168 143.688 137.165 143.515 137.168 143.345Z" fill="#EF4323"/>
<path d="M207.674 143.345C207.595 139.624 206.299 136.08 204.052 133.436C201.804 130.792 198.776 129.249 195.584 129.122C192.393 128.995 189.281 130.294 186.885 132.753C184.488 135.212 182.987 138.645 182.69 142.351C182.714 142.846 182.728 143.345 182.728 143.851C182.728 144.357 182.728 144.869 182.69 145.348C183.009 149.032 184.518 152.437 186.911 154.874C189.303 157.31 192.401 158.595 195.576 158.468C198.751 158.342 201.766 156.814 204.01 154.193C206.254 151.572 207.56 148.054 207.663 144.353C207.663 144.183 207.663 144.014 207.663 143.851C207.663 143.688 207.672 143.515 207.674 143.345Z" fill="#EF4323"/>
<path d="M230.446 129.245C227.2 129.247 224.081 130.719 221.748 133.349C219.415 135.98 218.049 139.564 217.939 143.345C217.939 143.515 217.939 143.685 217.939 143.851C217.939 144.017 217.939 144.19 217.939 144.353C218.025 147.217 218.833 149.987 220.261 152.319C221.688 154.652 223.674 156.442 225.969 157.468C228.264 158.494 230.767 158.71 233.167 158.089C235.566 157.468 237.756 156.037 239.463 153.976C241.17 151.914 242.318 149.312 242.765 146.494C243.212 143.677 242.938 140.768 241.976 138.131C241.015 135.495 239.408 133.246 237.358 131.666C235.308 130.085 232.904 129.244 230.446 129.245V129.245Z" fill="#EF4323"/>
<path d="M53.6927 143.82V132.28C51.7437 132.287 49.8401 132.967 48.2222 134.234C46.6042 135.501 45.3443 137.298 44.6014 139.398C43.8584 141.499 43.6657 143.808 44.0475 146.036C44.4293 148.264 45.3685 150.31 46.7467 151.917C48.1249 153.524 49.8804 154.618 51.7917 155.063C53.703 155.508 55.6846 155.284 57.4865 154.418C59.2884 153.552 60.8299 152.083 61.9167 150.197C63.0035 148.311 63.5869 146.092 63.5932 143.82H53.6927Z" fill="white"/>
<path d="M89.1044 143.82V132.28C87.3667 132.286 85.6606 132.821 84.1542 133.831C83.4054 134.334 82.7154 134.948 82.1013 135.657C81.0926 136.815 80.3086 138.211 79.8023 139.753C79.2959 141.294 79.079 142.943 79.1661 144.59C79.2533 146.238 79.6424 147.844 80.3074 149.301C80.9723 150.757 81.8975 152.031 83.0207 153.036C84.1438 154.04 85.4387 154.753 86.818 155.124C88.1973 155.496 89.629 155.518 91.0164 155.19C92.4039 154.862 93.7148 154.191 94.8608 153.222C96.0068 152.253 96.9612 151.009 97.6596 149.574L89.1044 143.82Z" fill="white"/>
<path d="M124.842 143.82V132.28C122.221 132.298 119.711 133.517 117.854 135.674C116.009 137.842 114.969 140.767 114.956 143.82C114.961 145.846 115.42 147.835 116.287 149.591C117.599 152.236 119.757 154.167 122.289 154.96C124.821 155.75 127.519 155.336 129.79 153.81L124.842 143.82Z" fill="white"/>
<path d="M159.977 143.82V132.28C158.24 132.286 156.533 132.821 155.027 133.831C154.283 134.335 153.598 134.949 152.989 135.657C151.609 137.271 150.67 139.325 150.29 141.56C149.91 143.795 150.106 146.111 150.853 148.216C151.601 150.321 152.866 152.122 154.49 153.39C156.113 154.659 158.023 155.338 159.977 155.344V143.803V143.82Z" fill="white"/>
<path d="M195.366 143.82V132.28C193.411 132.285 191.502 132.965 189.878 134.234C188.254 135.502 186.989 137.302 186.242 139.408C185.494 141.513 185.298 143.829 185.678 146.064C186.058 148.299 186.997 150.353 188.377 151.967L195.366 143.82Z" fill="white"/>
<path d="M230.422 143.82V132.28C227.798 132.287 225.284 133.505 223.428 135.668C221.573 137.831 220.528 140.762 220.522 143.82H230.422Z" fill="white"/>
<path d="M43.8126 181.619H48.0116V182.75C47.6606 183.117 47.3532 183.537 47.0972 183.999C46.7927 184.564 46.5566 185.175 46.3955 185.815C46.2458 186.42 46.154 187.043 46.1217 187.671H44.6862C44.7697 186.821 44.9499 185.988 45.222 185.194C45.5193 184.422 45.9063 183.701 46.3722 183.052H43.8155L43.8126 181.619Z" fill="#EF4323"/>
<path d="M49.1967 181.619H52.6124V182.957H50.2974L50.1751 183.863C50.3271 183.779 50.4861 183.713 50.6497 183.666C50.8022 183.622 50.9586 183.599 51.1157 183.598C51.3467 183.587 51.5773 183.63 51.7939 183.724C52.0104 183.819 52.2085 183.963 52.3765 184.148C52.5352 184.326 52.6601 184.54 52.7434 184.778C52.8266 185.015 52.8663 185.27 52.8599 185.526C52.8601 185.919 52.775 186.306 52.6124 186.65C52.4542 187.002 52.2073 187.29 51.9048 187.475C51.5422 187.679 51.1424 187.776 50.74 187.76C50.446 187.765 50.1525 187.727 49.8664 187.648C49.643 187.582 49.4324 187.467 49.2462 187.308C49.0823 187.169 48.9412 186.997 48.8298 186.799C48.7115 186.581 48.6222 186.343 48.5648 186.093L50.0208 185.906C50.0393 186.141 50.1267 186.36 50.2683 186.528C50.3929 186.666 50.5592 186.741 50.7313 186.738C50.8256 186.74 50.9192 186.718 51.0049 186.672C51.0907 186.626 51.1664 186.558 51.2263 186.473C51.371 186.244 51.4402 185.962 51.4214 185.679C51.442 185.396 51.3725 185.115 51.2263 184.888C51.1588 184.805 51.0769 184.74 50.986 184.696C50.8951 184.653 50.7974 184.633 50.6992 184.637C50.5591 184.638 50.4212 184.679 50.2974 184.756C50.1749 184.837 50.0663 184.944 49.9771 185.071L48.7512 184.864L49.1967 181.619Z" fill="#EF4323"/>
<path d="M53.4918 183.103C53.4907 182.825 53.5456 182.55 53.6519 182.302C53.7533 182.052 53.9207 181.848 54.1295 181.718C54.3661 181.576 54.6294 181.506 54.8953 181.514C55.0824 181.503 55.2696 181.535 55.4457 181.61C55.6218 181.684 55.7832 181.8 55.9203 181.949C56.162 182.267 56.2955 182.678 56.2955 183.103C56.2955 183.528 56.162 183.938 55.9203 184.257C55.7832 184.406 55.6218 184.521 55.4457 184.596C55.2696 184.67 55.0824 184.703 54.8953 184.691C54.6294 184.699 54.3661 184.629 54.1295 184.488C53.9201 184.359 53.7524 184.154 53.6519 183.904C53.5453 183.655 53.4904 183.381 53.4918 183.103ZM54.4847 183.103C54.4669 183.361 54.5166 183.619 54.6274 183.843C54.6574 183.892 54.6976 183.933 54.7445 183.959C54.7913 183.986 54.8432 183.998 54.8953 183.995C54.9471 184 54.9991 183.988 55.0457 183.961C55.0922 183.934 55.1318 183.893 55.1603 183.843C55.2711 183.619 55.3208 183.361 55.303 183.103C55.3196 182.844 55.2699 182.585 55.1603 182.359C55.1311 182.31 55.0912 182.27 55.0447 182.245C54.9981 182.219 54.9466 182.208 54.8953 182.213C54.8437 182.21 54.7922 182.221 54.7454 182.247C54.6986 182.272 54.658 182.311 54.6274 182.359C54.5157 182.587 54.466 182.848 54.4847 183.109V183.103ZM57.8917 181.507H58.6429L55.6495 187.957H54.9128L57.8917 181.507ZM57.2277 186.361C57.2273 186.084 57.28 185.81 57.3821 185.56C57.4856 185.31 57.655 185.106 57.8654 184.976C58.0999 184.834 58.3612 184.763 58.6255 184.769C58.8135 184.757 59.0017 184.79 59.1788 184.864C59.3558 184.939 59.5182 185.054 59.6563 185.204C59.8965 185.524 60.0289 185.934 60.0289 186.36C60.0289 186.785 59.8965 187.195 59.6563 187.515C59.5182 187.665 59.3558 187.78 59.1788 187.855C59.0017 187.929 58.8135 187.962 58.6255 187.95C58.3611 187.958 58.0994 187.887 57.8654 187.743C57.6546 187.615 57.4849 187.412 57.3821 187.162C57.2808 186.914 57.2281 186.643 57.2277 186.368V186.361ZM58.2207 186.361C58.2039 186.62 58.2525 186.878 58.3605 187.105C58.3896 187.154 58.4295 187.194 58.4761 187.219C58.5226 187.245 58.5742 187.256 58.6255 187.251C58.6775 187.255 58.7295 187.243 58.7768 187.218C58.8241 187.192 58.8652 187.153 58.8963 187.105C58.9883 186.871 59.0359 186.618 59.0359 186.361C59.0359 186.105 58.9883 185.851 58.8963 185.618C58.8659 185.568 58.8251 185.528 58.7776 185.502C58.7302 185.476 58.6778 185.464 58.6255 185.469C58.5736 185.464 58.5217 185.476 58.4751 185.503C58.4285 185.53 58.3889 185.571 58.3605 185.621C58.2498 185.85 58.201 186.113 58.2207 186.375V186.361Z" fill="#EF4323"/>
<path d="M81.9382 182.977L80.5056 183.184C80.4891 183 80.424 182.827 80.3192 182.689C80.2295 182.593 80.1115 182.542 79.9902 182.546C79.8752 182.545 79.7624 182.583 79.666 182.656C79.5696 182.729 79.494 182.834 79.4485 182.957C79.314 183.362 79.243 183.792 79.2389 184.226C79.391 184.04 79.5705 183.887 79.7688 183.775C79.9666 183.672 80.1815 183.622 80.3978 183.629C80.6157 183.625 80.8319 183.674 81.0325 183.774C81.2331 183.873 81.4137 184.02 81.5626 184.206C81.7223 184.399 81.8471 184.628 81.9296 184.879C82.0121 185.13 82.0507 185.397 82.043 185.665C82.0464 186.048 81.963 186.425 81.8014 186.758C81.6462 187.08 81.4119 187.34 81.1287 187.505C80.7927 187.687 80.4246 187.775 80.0542 187.76C79.6221 187.781 79.1923 187.675 78.805 187.451C78.474 187.219 78.2118 186.874 78.0537 186.463C77.8443 185.898 77.7448 185.286 77.7625 184.671C77.7625 183.581 77.9606 182.78 78.3449 182.274C78.5535 182.017 78.8077 181.816 79.0898 181.684C79.3719 181.553 79.6752 181.495 79.9785 181.514C80.3106 181.5 80.642 181.557 80.9569 181.68C81.1819 181.787 81.3816 181.954 81.5393 182.169C81.7208 182.402 81.857 182.677 81.9382 182.977V182.977ZM79.2884 185.665C79.2738 185.944 79.3497 186.219 79.501 186.436C79.5643 186.524 79.6436 186.595 79.7333 186.643C79.8229 186.691 79.9206 186.715 80.0193 186.714C80.1094 186.716 80.1986 186.694 80.2807 186.651C80.3628 186.607 80.4356 186.543 80.4939 186.463C80.6337 186.248 80.7011 185.982 80.6832 185.713C80.7008 185.435 80.6315 185.159 80.4881 184.936C80.4287 184.851 80.3537 184.782 80.2684 184.736C80.1832 184.689 80.09 184.666 79.996 184.667C79.9009 184.665 79.8065 184.687 79.7195 184.731C79.6325 184.776 79.5549 184.842 79.4922 184.925C79.3502 185.135 79.2815 185.399 79.3 185.665H79.2884Z" fill="#EF4323"/>
<path d="M83.1932 181.619H86.6118V182.957H84.2969L84.1717 183.863C84.3244 183.778 84.4845 183.712 84.6492 183.666C84.8006 183.622 84.9561 183.599 85.1122 183.598C85.3432 183.587 85.5738 183.63 85.7904 183.724C86.007 183.819 86.2051 183.963 86.3731 184.148C86.5317 184.326 86.6567 184.54 86.7399 184.778C86.8232 185.015 86.8629 185.27 86.8564 185.526C86.8536 185.921 86.7644 186.309 86.5973 186.653C86.4391 187.006 86.1922 187.294 85.8897 187.478C85.5271 187.682 85.1273 187.78 84.7249 187.763C84.4309 187.769 84.1374 187.731 83.8513 187.651C83.6283 187.584 83.4179 187.469 83.2311 187.312C83.068 187.171 82.9271 186.999 82.8147 186.803C82.6988 186.583 82.6096 186.345 82.5497 186.096L84.0057 185.91C84.0273 186.143 84.1143 186.361 84.2532 186.531C84.3785 186.668 84.5444 186.743 84.7162 186.741C84.8109 186.744 84.9049 186.721 84.9911 186.675C85.0774 186.63 85.1536 186.562 85.2141 186.477C85.3574 186.247 85.4265 185.966 85.4092 185.682C85.4292 185.399 85.3587 185.118 85.2112 184.892C85.144 184.808 85.0621 184.742 84.9712 184.699C84.8802 184.656 84.7823 184.636 84.6841 184.64C84.544 184.642 84.4061 184.683 84.2823 184.759C84.1607 184.841 84.0531 184.948 83.9649 185.075L82.739 184.868L83.1932 181.619Z" fill="#EF4323"/>
<path d="M87.4912 183.103C87.4906 182.825 87.5444 182.551 87.6485 182.302C87.7509 182.052 87.9193 181.848 88.1289 181.718C88.3654 181.576 88.6289 181.506 88.8948 181.514C89.0814 181.503 89.2681 181.536 89.4437 181.61C89.6193 181.685 89.7802 181.8 89.9168 181.949C90.1586 182.267 90.292 182.678 90.292 183.103C90.292 183.528 90.1586 183.938 89.9168 184.257C89.7802 184.405 89.6193 184.521 89.4437 184.595C89.2681 184.67 89.0814 184.703 88.8948 184.691C88.6289 184.7 88.3654 184.629 88.1289 184.488C87.9187 184.359 87.7501 184.154 87.6485 183.904C87.5441 183.654 87.4903 183.38 87.4912 183.103V183.103ZM88.4842 183.103C88.4669 183.36 88.5155 183.618 88.6239 183.843C88.6542 183.893 88.6949 183.933 88.7423 183.96C88.7897 183.987 88.8422 183.999 88.8948 183.995C88.9461 183.999 88.9974 183.987 89.0435 183.96C89.0895 183.933 89.1286 183.893 89.1568 183.843C89.2676 183.619 89.3174 183.361 89.2995 183.103C89.3162 182.844 89.2665 182.585 89.1568 182.359C89.1279 182.31 89.0885 182.271 89.0425 182.246C88.9965 182.22 88.9456 182.209 88.8948 182.213C88.8428 182.209 88.7907 182.221 88.7434 182.246C88.6961 182.272 88.655 182.311 88.6239 182.359C88.5148 182.588 88.4662 182.849 88.4842 183.109V183.103ZM91.8882 181.507H92.6336L89.6431 187.957H88.9035L91.8882 181.507ZM91.2243 186.361C91.2234 186.084 91.2772 185.81 91.3815 185.56C91.4831 185.31 91.6518 185.105 91.862 184.976C92.0973 184.834 92.3597 184.762 92.6249 184.769C92.8125 184.757 93.0003 184.79 93.1769 184.864C93.3535 184.939 93.5154 185.054 93.6528 185.204C93.8948 185.523 94.0283 185.934 94.0283 186.36C94.0283 186.785 93.8948 187.196 93.6528 187.515C93.5154 187.665 93.3535 187.78 93.1769 187.855C93.0003 187.929 92.8125 187.962 92.6249 187.95C92.3596 187.958 92.0968 187.887 91.862 187.743C91.6513 187.616 91.4824 187.412 91.3815 187.162C91.2781 186.915 91.2243 186.643 91.2243 186.368V186.361ZM92.2172 186.361C92.1997 186.62 92.2494 186.879 92.3599 187.105C92.3891 187.154 92.429 187.194 92.4755 187.219C92.5221 187.245 92.5736 187.256 92.6249 187.251C92.6765 187.254 92.728 187.243 92.7748 187.217C92.8216 187.192 92.8622 187.153 92.8928 187.105C92.9867 186.872 93.0355 186.618 93.0355 186.361C93.0355 186.104 92.9867 185.85 92.8928 185.618C92.8638 185.567 92.8236 185.527 92.7764 185.5C92.7293 185.474 92.677 185.463 92.6249 185.469C92.5731 185.464 92.5212 185.476 92.4746 185.503C92.428 185.53 92.3884 185.571 92.3599 185.621C92.2468 185.849 92.197 186.112 92.2172 186.375V186.361Z" fill="#EF4323"/>
<path d="M117.912 182.977L116.479 183.184C116.461 183 116.395 182.828 116.29 182.689C116.201 182.593 116.084 182.542 115.964 182.546C115.848 182.544 115.735 182.582 115.638 182.655C115.541 182.728 115.465 182.833 115.419 182.957C115.288 183.363 115.217 183.792 115.21 184.226C115.362 184.04 115.541 183.887 115.74 183.775C115.938 183.673 116.152 183.623 116.369 183.629C116.586 183.626 116.802 183.676 117.003 183.775C117.203 183.874 117.384 184.021 117.533 184.206C117.691 184.401 117.815 184.63 117.897 184.88C117.979 185.131 118.018 185.397 118.011 185.665C118.014 186.048 117.931 186.425 117.769 186.758C117.616 187.081 117.381 187.342 117.097 187.505C116.761 187.687 116.392 187.775 116.022 187.76C115.59 187.781 115.16 187.675 114.773 187.451C114.442 187.219 114.181 186.874 114.025 186.463C113.814 185.899 113.714 185.286 113.733 184.671C113.733 183.581 113.931 182.78 114.316 182.274C114.525 182.017 114.78 181.816 115.062 181.684C115.345 181.553 115.648 181.495 115.952 181.514C116.283 181.501 116.614 181.557 116.928 181.68C117.157 181.785 117.362 181.953 117.525 182.169C117.701 182.404 117.833 182.679 117.912 182.977V182.977ZM115.259 185.665C115.245 185.944 115.32 186.219 115.472 186.436C115.535 186.525 115.615 186.596 115.705 186.644C115.796 186.692 115.894 186.716 115.993 186.714C116.083 186.715 116.171 186.693 116.253 186.65C116.334 186.606 116.407 186.543 116.465 186.463C116.606 186.249 116.674 185.982 116.657 185.713C116.674 185.434 116.603 185.158 116.459 184.936C116.4 184.851 116.324 184.782 116.239 184.736C116.154 184.689 116.061 184.666 115.967 184.667C115.872 184.665 115.778 184.687 115.691 184.732C115.604 184.776 115.526 184.842 115.463 184.925C115.318 185.134 115.245 185.398 115.259 185.665V185.665Z" fill="#EF4323"/>
<path d="M118.57 184.617C118.57 183.469 118.748 182.666 119.103 182.207C119.455 181.748 119.997 181.528 120.722 181.528C121.014 181.517 121.305 181.569 121.581 181.68C121.785 181.765 121.971 181.898 122.128 182.071C122.262 182.218 122.375 182.388 122.463 182.577C122.551 182.773 122.616 182.982 122.658 183.198C122.756 183.659 122.805 184.132 122.804 184.606C122.804 185.704 122.645 186.505 122.326 187.01C122.008 187.514 121.461 187.769 120.684 187.773C120.32 187.791 119.958 187.707 119.627 187.529C119.355 187.366 119.127 187.119 118.966 186.816C118.822 186.535 118.723 186.226 118.675 185.903C118.601 185.48 118.566 185.048 118.57 184.617ZM119.997 184.617C119.966 185.15 120.026 185.685 120.174 186.191C120.212 186.314 120.28 186.42 120.371 186.496C120.461 186.572 120.57 186.614 120.681 186.616C120.751 186.616 120.821 186.601 120.886 186.57C120.951 186.539 121.01 186.493 121.06 186.436C121.184 186.278 121.266 186.081 121.296 185.869C121.357 185.47 121.382 185.065 121.371 184.661C121.404 184.114 121.344 183.565 121.197 183.045C121.155 182.922 121.083 182.817 120.99 182.743C120.896 182.669 120.785 182.63 120.672 182.631C120.559 182.629 120.448 182.669 120.355 182.745C120.263 182.821 120.193 182.93 120.157 183.055C120.024 183.56 119.97 184.089 119.997 184.617V184.617Z" fill="#EF4323"/>
<path d="M123.45 183.103C123.45 182.825 123.504 182.551 123.608 182.302C123.71 182.052 123.879 181.848 124.088 181.718C124.325 181.576 124.588 181.506 124.854 181.514C125.041 181.503 125.228 181.535 125.404 181.61C125.581 181.684 125.742 181.8 125.879 181.949C126.119 182.268 126.251 182.678 126.251 183.103C126.251 183.527 126.119 183.937 125.879 184.257C125.742 184.406 125.581 184.521 125.404 184.596C125.228 184.67 125.041 184.703 124.854 184.691C124.588 184.7 124.325 184.629 124.088 184.488C123.878 184.359 123.709 184.154 123.608 183.904C123.503 183.654 123.45 183.38 123.45 183.103ZM124.443 183.103C124.426 183.361 124.475 183.619 124.586 183.843C124.618 183.89 124.658 183.928 124.704 183.954C124.75 183.981 124.801 183.994 124.853 183.994C124.904 183.994 124.955 183.981 125.001 183.954C125.047 183.928 125.087 183.89 125.119 183.843C125.227 183.618 125.276 183.36 125.259 183.103C125.274 182.844 125.225 182.587 125.119 182.359C125.086 182.314 125.046 182.277 125 182.252C124.954 182.227 124.903 182.214 124.853 182.214C124.802 182.214 124.751 182.227 124.705 182.252C124.659 182.277 124.619 182.314 124.586 182.359C124.477 182.588 124.431 182.849 124.452 183.109L124.443 183.103ZM127.847 181.507H128.596L125.602 187.957H124.863L127.847 181.507ZM127.186 186.361C127.186 186.084 127.239 185.81 127.341 185.56C127.443 185.311 127.612 185.106 127.821 184.976C128.057 184.835 128.319 184.763 128.584 184.769C128.772 184.757 128.959 184.79 129.136 184.864C129.313 184.939 129.475 185.054 129.612 185.204C129.854 185.523 129.988 185.934 129.988 186.36C129.988 186.785 129.854 187.196 129.612 187.515C129.475 187.665 129.313 187.78 129.136 187.855C128.959 187.929 128.772 187.962 128.584 187.95C128.319 187.957 128.056 187.886 127.821 187.743C127.611 187.615 127.442 187.412 127.341 187.162C127.239 186.914 127.187 186.643 127.186 186.368V186.361ZM128.176 186.361C128.161 186.62 128.21 186.878 128.319 187.105C128.348 187.154 128.388 187.194 128.435 187.219C128.481 187.245 128.533 187.256 128.584 187.251C128.636 187.255 128.687 187.243 128.734 187.218C128.781 187.192 128.822 187.153 128.852 187.105C128.946 186.872 128.995 186.618 128.995 186.361C128.995 186.104 128.946 185.85 128.852 185.618C128.82 185.571 128.78 185.532 128.734 185.506C128.688 185.48 128.637 185.466 128.586 185.466C128.534 185.466 128.483 185.48 128.437 185.506C128.391 185.532 128.351 185.571 128.319 185.618C128.207 185.848 128.157 186.111 128.176 186.375V186.361Z" fill="#EF4323"/>
<path d="M151.157 181.619H154.576V182.957H152.246L152.121 183.863C152.273 183.78 152.432 183.714 152.596 183.666C152.748 183.623 152.905 183.6 153.062 183.598C153.293 183.588 153.524 183.631 153.741 183.725C153.958 183.82 154.156 183.963 154.325 184.148C154.484 184.326 154.608 184.541 154.691 184.778C154.775 185.015 154.815 185.27 154.809 185.526C154.808 185.919 154.722 186.306 154.558 186.65C154.4 187.001 154.155 187.289 153.854 187.475C153.491 187.678 153.091 187.776 152.689 187.76C152.395 187.766 152.101 187.728 151.815 187.648C151.591 187.581 151.38 187.466 151.192 187.308C151.03 187.167 150.889 186.995 150.776 186.799C150.66 186.579 150.571 186.342 150.511 186.093L151.967 185.906C151.986 186.141 152.074 186.361 152.217 186.528C152.341 186.665 152.506 186.741 152.677 186.738C152.772 186.74 152.866 186.718 152.952 186.672C153.038 186.626 153.115 186.558 153.175 186.473C153.32 186.244 153.389 185.962 153.37 185.679C153.392 185.396 153.321 185.113 153.172 184.888C153.106 184.805 153.024 184.739 152.934 184.696C152.843 184.652 152.746 184.632 152.648 184.637C152.507 184.638 152.368 184.679 152.243 184.756C152.122 184.838 152.015 184.945 151.926 185.071L150.7 184.864L151.157 181.619Z" fill="#EF4323"/>
<path d="M155.403 184.617C155.403 183.469 155.579 182.666 155.933 182.207C156.286 181.747 156.827 181.521 157.555 181.528C157.846 181.517 158.136 181.569 158.411 181.68C158.615 181.766 158.802 181.899 158.961 182.071C159.093 182.219 159.205 182.389 159.293 182.577C159.382 182.772 159.447 182.981 159.488 183.198C159.588 183.658 159.638 184.131 159.637 184.606C159.637 185.704 159.477 186.505 159.156 187.01C158.836 187.514 158.288 187.769 157.514 187.773C157.15 187.791 156.788 187.707 156.457 187.529C156.185 187.366 155.958 187.12 155.799 186.816C155.654 186.535 155.556 186.226 155.508 185.903C155.436 185.479 155.4 185.048 155.403 184.617ZM156.83 184.617C156.799 185.15 156.859 185.685 157.004 186.192C157.042 186.314 157.111 186.42 157.201 186.495C157.292 186.571 157.4 186.613 157.511 186.616C157.654 186.617 157.791 186.552 157.892 186.436C158.016 186.277 158.098 186.08 158.128 185.869C158.188 185.47 158.214 185.065 158.204 184.661C158.236 184.114 158.177 183.565 158.029 183.045C157.985 182.924 157.912 182.82 157.819 182.747C157.725 182.673 157.615 182.633 157.502 182.631C157.389 182.629 157.278 182.67 157.186 182.746C157.093 182.822 157.024 182.93 156.987 183.055C156.856 183.561 156.802 184.089 156.83 184.617V184.617Z" fill="#EF4323"/>
<path d="M160.269 183.103C160.268 182.825 160.322 182.551 160.426 182.302C160.529 182.051 160.698 181.846 160.909 181.718C161.145 181.576 161.407 181.506 161.672 181.514C161.859 181.503 162.046 181.535 162.223 181.61C162.399 181.684 162.56 181.8 162.697 181.949C162.939 182.267 163.072 182.678 163.072 183.103C163.072 183.528 162.939 183.938 162.697 184.257C162.56 184.406 162.399 184.521 162.223 184.596C162.046 184.67 161.859 184.703 161.672 184.691C161.407 184.7 161.145 184.629 160.909 184.488C160.698 184.36 160.528 184.155 160.426 183.904C160.321 183.654 160.268 183.38 160.269 183.103V183.103ZM161.262 183.103C161.244 183.361 161.293 183.619 161.404 183.843C161.433 183.894 161.473 183.935 161.52 183.962C161.567 183.989 161.62 184 161.672 183.995C161.724 184 161.776 183.988 161.822 183.961C161.869 183.934 161.909 183.893 161.937 183.843C162.046 183.618 162.094 183.36 162.077 183.103C162.092 182.844 162.044 182.587 161.937 182.359C161.908 182.31 161.868 182.27 161.822 182.245C161.775 182.219 161.723 182.208 161.672 182.213C161.621 182.209 161.569 182.221 161.522 182.246C161.475 182.272 161.435 182.311 161.404 182.359C161.297 182.588 161.251 182.85 161.273 183.109L161.262 183.103ZM164.666 181.507H165.414L162.423 187.957H161.695L164.666 181.507ZM164.005 186.361C164.003 186.084 164.055 185.81 164.159 185.56C164.262 185.311 164.43 185.107 164.639 184.976C164.875 184.834 165.137 184.763 165.402 184.769C165.59 184.757 165.778 184.789 165.954 184.864C166.131 184.939 166.293 185.054 166.43 185.204C166.672 185.523 166.806 185.934 166.806 186.36C166.806 186.785 166.672 187.196 166.43 187.515C166.293 187.665 166.131 187.78 165.954 187.855C165.778 187.93 165.59 187.962 165.402 187.95C165.137 187.958 164.874 187.887 164.639 187.743C164.43 187.614 164.262 187.411 164.159 187.162C164.06 186.914 164.012 186.642 164.016 186.368L164.005 186.361ZM164.998 186.361C164.981 186.62 165.029 186.878 165.137 187.105C165.166 187.154 165.206 187.194 165.253 187.219C165.299 187.245 165.351 187.256 165.402 187.251C165.454 187.254 165.506 187.243 165.553 187.217C165.601 187.192 165.642 187.153 165.673 187.105C165.765 186.871 165.813 186.618 165.813 186.361C165.813 186.105 165.765 185.851 165.673 185.618C165.642 185.568 165.601 185.529 165.554 185.503C165.507 185.477 165.455 185.465 165.402 185.469C165.35 185.464 165.299 185.476 165.252 185.503C165.205 185.53 165.166 185.571 165.137 185.621C165.031 185.852 164.986 186.114 165.009 186.375L164.998 186.361Z" fill="#EF4323"/>
<path d="M187.058 186.528H184.437V185.149L187.058 181.514H188.313V185.228H188.963V186.528H188.313V187.671H187.058V186.528ZM187.058 185.228V183.327L185.672 185.228H187.058Z" fill="#EF4323"/>
<path d="M189.97 181.619H193.389V182.957H191.074L190.948 183.863C191.101 183.779 191.26 183.713 191.423 183.666C191.576 183.622 191.732 183.599 191.889 183.598C192.12 183.587 192.351 183.63 192.567 183.724C192.784 183.819 192.982 183.963 193.15 184.148C193.308 184.326 193.433 184.54 193.517 184.778C193.6 185.015 193.64 185.27 193.633 185.526C193.633 185.919 193.548 186.306 193.386 186.65C193.227 187.002 192.981 187.29 192.678 187.475C192.316 187.679 191.916 187.777 191.513 187.76C191.219 187.766 190.926 187.728 190.64 187.648C190.415 187.582 190.204 187.467 190.017 187.308C189.854 187.168 189.713 186.996 189.6 186.799C189.483 186.58 189.394 186.342 189.335 186.093L190.791 185.906C190.812 186.14 190.899 186.359 191.039 186.528C191.164 186.665 191.33 186.74 191.502 186.738C191.596 186.74 191.69 186.718 191.777 186.672C191.863 186.626 191.939 186.558 192 186.473C192.143 186.244 192.212 185.962 192.195 185.679C192.215 185.396 192.144 185.114 191.997 184.888C191.93 184.805 191.848 184.739 191.757 184.696C191.666 184.652 191.568 184.632 191.47 184.637C191.33 184.638 191.192 184.679 191.068 184.756C190.946 184.837 190.839 184.944 190.75 185.071L189.525 184.864L189.97 181.619Z" fill="#EF4323"/>
<path d="M194.28 183.103C194.279 182.826 194.332 182.552 194.434 182.302C194.539 182.053 194.708 181.848 194.917 181.718C195.153 181.576 195.415 181.506 195.68 181.514C195.867 181.502 196.055 181.535 196.231 181.609C196.407 181.684 196.568 181.799 196.705 181.949C196.947 182.267 197.08 182.678 197.08 183.103C197.08 183.528 196.947 183.938 196.705 184.257C196.568 184.406 196.407 184.522 196.231 184.596C196.055 184.671 195.867 184.703 195.68 184.691C195.415 184.699 195.153 184.629 194.917 184.488C194.707 184.358 194.538 184.153 194.434 183.904C194.332 183.654 194.279 183.38 194.28 183.103ZM195.273 183.103C195.255 183.36 195.304 183.618 195.412 183.843C195.442 183.892 195.483 183.933 195.529 183.959C195.576 183.986 195.628 183.998 195.68 183.995C195.732 184 195.784 183.988 195.831 183.961C195.877 183.934 195.917 183.893 195.945 183.843C196.056 183.619 196.106 183.361 196.088 183.103C196.105 182.844 196.055 182.585 195.945 182.359C195.916 182.31 195.876 182.27 195.83 182.245C195.783 182.219 195.732 182.208 195.68 182.213C195.629 182.21 195.577 182.221 195.53 182.247C195.484 182.272 195.443 182.311 195.412 182.359C195.303 182.588 195.255 182.849 195.273 183.109V183.103ZM198.677 181.507H199.422L196.432 187.957H195.692L198.677 181.507ZM198.013 186.361C198.012 186.084 198.066 185.81 198.17 185.56C198.271 185.311 198.439 185.106 198.648 184.976C198.884 184.834 199.147 184.763 199.413 184.769C199.601 184.758 199.789 184.79 199.965 184.865C200.142 184.939 200.304 185.055 200.441 185.204C200.681 185.524 200.814 185.934 200.814 186.36C200.814 186.785 200.681 187.195 200.441 187.515C200.304 187.664 200.142 187.78 199.965 187.854C199.789 187.929 199.601 187.961 199.413 187.95C199.147 187.958 198.884 187.887 198.648 187.743C198.438 187.615 198.271 187.411 198.17 187.162C198.066 186.915 198.013 186.643 198.013 186.368V186.361ZM199.006 186.361C198.988 186.62 199.038 186.879 199.148 187.105C199.178 187.154 199.217 187.194 199.264 187.219C199.311 187.245 199.362 187.256 199.413 187.251C199.465 187.254 199.516 187.243 199.563 187.217C199.61 187.192 199.651 187.153 199.681 187.105C199.773 186.871 199.821 186.618 199.821 186.361C199.821 186.105 199.773 185.851 199.681 185.618C199.652 185.567 199.612 185.527 199.565 185.5C199.518 185.474 199.465 185.463 199.413 185.469C199.362 185.464 199.31 185.476 199.263 185.503C199.216 185.53 199.177 185.571 199.148 185.621C199.032 185.848 198.979 186.111 198.997 186.375L199.006 186.361Z" fill="#EF4323"/>
<path d="M230.239 183.103C230.238 182.825 230.292 182.551 230.396 182.302C230.499 182.052 230.667 181.848 230.877 181.718C231.112 181.577 231.375 181.507 231.639 181.514C231.827 181.503 232.015 181.535 232.191 181.61C232.368 181.684 232.53 181.8 232.667 181.949C232.907 182.268 233.04 182.678 233.04 183.103C233.04 183.527 232.907 183.937 232.667 184.257C232.53 184.406 232.368 184.521 232.191 184.596C232.015 184.67 231.827 184.703 231.639 184.691C231.375 184.699 231.112 184.629 230.877 184.488C230.666 184.359 230.498 184.154 230.396 183.904C230.292 183.654 230.238 183.38 230.239 183.103ZM231.232 183.103C231.215 183.36 231.263 183.618 231.372 183.843C231.402 183.892 231.442 183.932 231.489 183.959C231.536 183.985 231.587 183.998 231.639 183.995C231.692 184 231.744 183.989 231.791 183.962C231.839 183.935 231.879 183.894 231.907 183.843C232.016 183.618 232.064 183.36 232.047 183.103C232.062 182.844 232.014 182.587 231.907 182.359C231.877 182.311 231.836 182.272 231.79 182.246C231.743 182.221 231.691 182.209 231.639 182.213C231.588 182.21 231.537 182.222 231.49 182.247C231.443 182.273 231.403 182.311 231.372 182.359C231.262 182.588 231.214 182.849 231.232 183.109V183.103ZM234.636 181.507H235.396L232.402 187.957H231.666L234.636 181.507ZM233.972 186.361C233.971 186.084 234.025 185.81 234.129 185.56C234.232 185.311 234.4 185.106 234.61 184.976C234.845 184.834 235.107 184.763 235.373 184.769C235.56 184.757 235.748 184.79 235.925 184.864C236.101 184.939 236.263 185.054 236.4 185.204C236.641 185.524 236.773 185.934 236.773 186.36C236.773 186.785 236.641 187.195 236.4 187.515C236.263 187.665 236.101 187.78 235.925 187.855C235.748 187.929 235.56 187.962 235.373 187.95C235.107 187.958 234.845 187.887 234.61 187.743C234.4 187.615 234.231 187.412 234.129 187.162C234.026 186.915 233.972 186.643 233.972 186.368V186.361ZM234.968 186.361C234.951 186.62 235 186.878 235.108 187.105C235.137 187.154 235.177 187.194 235.223 187.219C235.27 187.245 235.321 187.256 235.373 187.251C235.424 187.254 235.476 187.243 235.522 187.217C235.569 187.192 235.61 187.153 235.64 187.105C235.734 186.872 235.783 186.618 235.783 186.361C235.783 186.104 235.734 185.85 235.64 185.618C235.611 185.567 235.571 185.527 235.524 185.5C235.477 185.474 235.425 185.463 235.373 185.469C235.321 185.464 235.269 185.476 235.222 185.503C235.176 185.53 235.136 185.571 235.108 185.621C234.997 185.85 234.948 186.113 234.968 186.375V186.361Z" fill="#EF4323"/>
<path d="M224.983 187.59H220.717C220.769 187.094 220.921 186.619 221.162 186.205C221.555 185.612 222.026 185.095 222.557 184.674C222.852 184.442 223.121 184.166 223.355 183.853C223.46 183.701 223.522 183.515 223.53 183.32C223.53 183.233 223.515 183.146 223.486 183.066C223.456 182.986 223.413 182.914 223.358 182.855C223.238 182.73 223.082 182.662 222.921 182.662C222.76 182.662 222.605 182.73 222.484 182.855C222.345 183.054 222.263 183.3 222.251 183.558L220.827 183.425C220.86 183.039 220.965 182.666 221.136 182.332C221.292 182.065 221.51 181.856 221.765 181.728C222.125 181.572 222.508 181.501 222.892 181.521C223.288 181.501 223.683 181.569 224.057 181.721C224.324 181.843 224.554 182.056 224.715 182.332C224.872 182.605 224.956 182.927 224.954 183.255C224.952 183.626 224.856 183.989 224.68 184.298C224.408 184.73 224.069 185.099 223.681 185.387C223.39 185.618 223.207 185.781 223.099 185.872C222.991 185.964 222.889 186.086 222.758 186.236H224.98L224.983 187.59Z" fill="#EF4323"/>
<path d="M226.165 181.63H229.537V182.95H227.243L227.123 183.846C227.273 183.762 227.43 183.696 227.592 183.649C227.742 183.608 227.895 183.586 228.049 183.585C228.278 183.573 228.506 183.615 228.72 183.709C228.934 183.802 229.13 183.944 229.295 184.128C229.451 184.303 229.574 184.514 229.657 184.748C229.739 184.982 229.778 185.233 229.773 185.486C229.772 185.873 229.688 186.255 229.528 186.595C229.372 186.944 229.128 187.228 228.83 187.41C228.467 187.613 228.067 187.708 227.665 187.688C227.371 187.695 227.077 187.657 226.791 187.576C226.569 187.511 226.361 187.396 226.177 187.237C226.015 187.099 225.876 186.929 225.766 186.735C225.651 186.517 225.564 186.282 225.507 186.035L226.943 185.852C226.962 186.082 227.049 186.298 227.187 186.463C227.252 186.534 227.328 186.589 227.411 186.625C227.494 186.661 227.583 186.677 227.671 186.672C227.76 186.667 227.847 186.642 227.926 186.597C228.006 186.553 228.078 186.49 228.136 186.412C228.278 186.185 228.346 185.908 228.329 185.628C228.349 185.349 228.279 185.07 228.134 184.847C228.067 184.764 227.986 184.699 227.896 184.657C227.806 184.614 227.709 184.594 227.612 184.6C227.474 184.601 227.338 184.642 227.216 184.718C227.096 184.798 226.99 184.903 226.902 185.027L225.69 184.824L226.165 181.63Z" fill="#EF4323"/>
<path d="M249.326 169.821H29.9752V170.747H249.326V169.821Z" fill="#EF4323"/>
<path d="M141.781 80.547C111.977 89.0328 86.1634 85.4009 83.4349 72.3701C83.2427 71.474 82.8758 69.8346 82.8817 69.8074C83.5281 57.1941 104.235 41.2579 131.924 33.3797C156.241 26.479 178.27 27.6738 187.038 35.4162C189.018 37.1575 190.322 39.2416 190.823 41.6448C193.549 54.6654 171.593 72.0884 141.781 80.547Z" fill="#EF4323"/>
<path d="M187.038 35.4196L138.362 52.6458L83.3767 72.1155C83.2399 71.2093 82.8904 70.7341 82.8817 69.8074C82.8817 69.7803 82.8817 69.8346 82.8817 69.8074C83.3767 60.2151 95.3709 48.5488 113.378 40.2294C119.417 37.4505 125.614 35.1618 131.924 33.3797C156.241 26.479 178.27 27.6738 187.038 35.4196Z" fill="url(#paint1_linear)"/>
<path d="M115.821 84.9936L138.365 52.6492L83.3767 72.1155C83.3767 72.1155 83.6854 85.9949 115.821 84.9936Z" fill="url(#paint2_linear)"/>
<path d="M138.362 46.9501L82.8817 66.5964C82.7466 65.6836 82.6755 64.7596 82.6691 63.8334C82.6649 63.8222 82.6627 63.81 82.6627 63.7978C82.6627 63.7855 82.6649 63.7734 82.6691 63.7621C83.1612 54.1698 95.3709 42.8566 113.378 34.5337L138.362 46.9501Z" fill="#EF4323"/>
<path d="M138.365 52.6492L138.362 46.9501L82.8817 66.5964L138.365 52.6492Z" fill="#EF4323"/>
<path d="M138.365 52.6491L138.362 46.9501L82.8817 66.5964V69.8074L138.365 52.6491Z" fill="url(#paint3_linear)"/>
<path d="M115.821 84.9935V79.1451L138.362 48.8781L138.365 52.6491L115.821 84.9935Z" fill="url(#paint4_linear)"/>
<path d="M138.362 48.8781L82.8817 69.8074C82.8817 69.8074 91.9086 81.6875 115.821 79.1451L138.362 48.8781Z" fill="#EF4323"/>
<path d="M115.821 79.1451V96.2287C115.821 96.2287 91.0146 96.9449 86.1605 85.0275L82.8817 69.7904C82.8817 69.7904 93.6703 84.7525 115.821 79.1451Z" fill="#EF4323"/>
<path d="M115.821 79.1451V96.2287C115.821 96.2287 91.0146 96.9449 86.1605 85.0275L82.8817 69.7904C82.8817 69.7904 93.6703 84.7525 115.821 79.1451Z" fill="url(#paint5_linear)"/>
<path d="M107.385 50.7348L92.8113 25.0636L61.7354 22.9897L61.782 22.063L93.2539 24.1675L93.3645 24.3576L108.049 50.2222L107.385 50.7348Z" fill="#EF4323"/>
<path d="M59.2981 25.9461C58.6144 25.9461 57.946 25.7097 57.3775 25.2668C56.809 24.824 56.366 24.1945 56.1045 23.4581C55.843 22.7217 55.7747 21.9114 55.9083 21.1298C56.0419 20.3481 56.3714 19.6302 56.8551 19.0669C57.3388 18.5035 57.9549 18.1201 58.6256 17.965C59.2963 17.8099 59.9913 17.8902 60.6229 18.1957C61.2544 18.5011 61.794 19.0181 62.1734 19.6811C62.5529 20.3441 62.7551 21.1234 62.7545 21.9204C62.753 22.9881 62.3883 24.0116 61.7403 24.7662C61.0923 25.5209 60.2141 25.9452 59.2981 25.9461ZM59.2981 18.818C58.7718 18.818 58.2574 18.9999 57.8198 19.3407C57.3822 19.6814 57.041 20.1657 56.8395 20.7324C56.638 21.2991 56.5851 21.9227 56.6876 22.5244C56.79 23.1262 57.0432 23.679 57.4151 24.113C57.7871 24.547 58.261 24.8427 58.7771 24.9628C59.2932 25.0829 59.8282 25.0219 60.3146 24.7877C60.801 24.5534 61.2168 24.1563 61.5096 23.6465C61.8024 23.1368 61.959 22.5373 61.9596 21.9238C61.96 21.516 61.8914 21.112 61.7579 20.735C61.6243 20.3581 61.4284 20.0154 61.1813 19.7267C60.9341 19.438 60.6406 19.2089 60.3175 19.0524C59.9944 18.8959 59.648 18.8151 59.2981 18.8146V18.818Z" fill="#EF4323"/>
<path d="M141.408 34.6729L140.744 34.1603L155.54 8.10221L155.738 8.08863L187.014 6.00113L187.058 6.92778L155.982 9.0017L141.408 34.6729Z" fill="#EF4323"/>
<path d="M189.498 9.88424C188.815 9.88424 188.146 9.64794 187.578 9.20522C187.01 8.7625 186.567 8.13325 186.305 7.39704C186.043 6.66083 185.975 5.85072 186.108 5.06916C186.242 4.2876 186.571 3.5697 187.054 3.00622C187.538 2.44275 188.154 2.05902 188.824 1.90356C189.494 1.7481 190.189 1.82789 190.821 2.13284C191.453 2.43779 191.992 2.9542 192.372 3.61677C192.752 4.27934 192.955 5.05832 192.955 5.85519C192.954 6.92348 192.59 7.94776 191.942 8.70316C191.293 9.45856 190.415 9.88334 189.498 9.88424V9.88424ZM189.498 2.75618C188.972 2.75618 188.457 2.93814 188.02 3.27903C187.582 3.61993 187.241 4.10446 187.039 4.67135C186.838 5.23824 186.785 5.86203 186.888 6.46383C186.991 7.06564 187.244 7.61843 187.616 8.05231C187.989 8.48619 188.463 8.78166 188.979 8.90137C189.495 9.02108 190.03 8.95964 190.517 8.72483C191.003 8.49001 191.419 8.09237 191.711 7.58218C192.004 7.072 192.16 6.47218 192.16 5.85858C192.16 5.03546 191.879 4.24601 191.38 3.66366C190.881 3.0813 190.204 2.75369 189.498 2.75279V2.75618Z" fill="#EF4323"/>
<path d="M227.825 89.0191C227.141 89.0191 226.473 88.7828 225.904 88.3399C225.336 87.897 224.893 87.2676 224.631 86.5312C224.37 85.7948 224.301 84.9845 224.435 84.2028C224.569 83.4212 224.898 82.7033 225.382 82.1399C225.866 81.5766 226.482 81.1931 227.152 81.0381C227.823 80.883 228.518 80.9633 229.15 81.2687C229.781 81.5742 230.321 82.0911 230.7 82.7542C231.08 83.4172 231.282 84.1965 231.281 84.9935C231.28 86.0612 230.915 87.0846 230.267 87.8393C229.619 88.5939 228.741 89.0182 227.825 89.0191ZM227.825 81.8911C227.298 81.8911 226.784 82.0731 226.346 82.4139C225.909 82.7548 225.567 83.2394 225.366 83.8063C225.165 84.3731 225.112 84.9969 225.215 85.5987C225.317 86.2005 225.571 86.7533 225.943 87.1872C226.315 87.6211 226.789 87.9166 227.306 88.0363C227.822 88.156 228.357 88.0945 228.843 87.8597C229.33 87.6249 229.745 87.2273 230.038 86.7171C230.33 86.2069 230.486 85.6071 230.486 84.9935C230.486 84.171 230.205 83.3824 229.706 82.8008C229.207 82.2192 228.53 81.892 227.825 81.8911V81.8911Z" fill="#EF4323"/>
<path d="M224.767 85.4552H194.16L194.064 85.3805L163.839 62.5741L164.272 61.7968L194.396 84.5285H224.767V85.4552Z" fill="#EF4323"/>
<path d="M44.1184 95.0747C43.4349 95.074 42.7669 94.8371 42.1989 94.394C41.6308 93.9509 41.1883 93.3214 40.9271 92.5851C40.6659 91.8488 40.5979 91.0388 40.7316 90.2575C40.8653 89.4762 41.1947 88.7586 41.6782 88.1954C42.1617 87.6323 42.7776 87.2489 43.448 87.0937C44.1184 86.9385 44.8132 87.0185 45.4447 87.3236C46.0761 87.6286 46.6157 88.145 46.9954 88.8075C47.3751 89.47 47.5777 90.2489 47.5777 91.0456C47.5769 92.1145 47.2121 93.1393 46.5635 93.8948C45.9148 94.6503 45.0353 95.0747 44.1184 95.0747ZM44.1184 87.9466C43.592 87.9466 43.0774 88.1285 42.6397 88.4694C42.202 88.8103 41.8609 89.2949 41.6595 89.8618C41.458 90.4286 41.4053 91.0524 41.508 91.6542C41.6107 92.2561 41.8642 92.8088 42.2364 93.2427C42.6086 93.6766 43.0828 93.9721 43.5991 94.0918C44.1154 94.2115 44.6505 94.1501 45.1369 93.9152C45.6232 93.6804 46.0389 93.2828 46.3313 92.7726C46.6237 92.2624 46.7798 91.6626 46.7798 91.049C46.7798 90.2259 46.4995 89.4364 46.0005 88.8541C45.5014 88.2717 44.8245 87.9441 44.1184 87.9432V87.9466Z" fill="#EF4323"/>
<path d="M77.7858 91.5106H47.1788V90.584H77.55L107.674 67.8523L108.108 68.6296L77.7858 91.5106Z" fill="#EF4323"/>
<defs>
<linearGradient id="paint0_linear" x1="112.146" y1="188.683" x2="231.406" y2="-231.821" gradientUnits="userSpaceOnUse">
<stop offset="0.01"/>
<stop offset="0.08" stop-opacity="0.69"/>
<stop offset="0.21" stop-opacity="0.32"/>
<stop offset="1" stop-opacity="0"/>
</linearGradient>
<linearGradient id="paint1_linear" x1="169.141" y1="107.661" x2="82.9721" y2="6.94509" gradientUnits="userSpaceOnUse">
<stop offset="0.01" stop-color="white"/>
<stop offset="1" stop-color="white" stop-opacity="0"/>
</linearGradient>
<linearGradient id="paint2_linear" x1="20673.3" y1="15925.1" x2="23859.7" y2="-6303.79" gradientUnits="userSpaceOnUse">
<stop offset="0.01"/>
<stop offset="0.08" stop-opacity="0.69"/>
<stop offset="0.21" stop-opacity="0.32"/>
<stop offset="1" stop-opacity="0"/>
</linearGradient>
<linearGradient id="paint3_linear" x1="19528.7" y1="3191.88" x2="22883.9" y2="12716.4" gradientUnits="userSpaceOnUse">
<stop offset="0.01"/>
<stop offset="0.08" stop-opacity="0.69"/>
<stop offset="0.21" stop-opacity="0.32"/>
<stop offset="1" stop-opacity="0"/>
</linearGradient>
<linearGradient id="paint4_linear" x1="9690.26" y1="5860.58" x2="12349" y2="10983.4" gradientUnits="userSpaceOnUse">
<stop offset="0.01"/>
<stop offset="0.08" stop-opacity="0.69"/>
<stop offset="0.21" stop-opacity="0.32"/>
<stop offset="1" stop-opacity="0"/>
</linearGradient>
<linearGradient id="paint5_linear" x1="8054.9" y1="9226.9" x2="28472.5" y2="9857.27" gradientUnits="userSpaceOnUse">
<stop offset="0.01"/>
<stop offset="0.08" stop-opacity="0.69"/>
<stop offset="0.21" stop-opacity="0.32"/>
<stop offset="1" stop-opacity="0"/>
</linearGradient>
</defs>
</svg>
