<svg width="285" height="224" viewBox="0 0 285 224" fill="none" xmlns="http://www.w3.org/2000/svg">
<path d="M84.8446 168.976C91.6951 170.1 98.5284 171.315 105.344 172.621C109.841 173.484 114.448 174.432 118.325 176.996C119.667 177.881 120.964 179.104 121.156 180.751C121.37 182.577 120.065 184.286 118.495 185.054C116.872 185.701 115.137 185.968 113.409 185.838L68.6055 186.128C59.1111 186.191 48.7617 185.948 41.4051 179.559C40.1507 178.595 39.1876 177.263 38.6334 175.726C38.3717 174.954 38.344 174.115 38.5542 173.326C38.7645 172.537 39.2021 171.838 39.8055 171.328C40.6501 170.835 41.5993 170.582 42.5624 170.591L62.8263 168.921" fill="url(#paint0_linear)"/>
<path d="M77.8787 165.182C81.6602 164.272 80.9157 169.964 81.9109 172.08C82.5382 173.156 83.3248 174.117 84.2402 174.926C85.168 175.738 85.7756 176.89 85.943 178.156C85.9619 178.392 85.9158 178.629 85.8103 178.838C85.627 179.087 85.3651 179.257 85.0732 179.316C82.9199 179.99 80.6049 179.748 78.6159 178.642C77.6848 178.172 76.9126 177.408 76.4044 176.455C75.99 175.434 75.7937 174.328 75.8295 173.217C75.7631 170.842 74.7385 165.927 77.8787 165.182Z" fill="#FDB9A9"/>
<path d="M81.218 176.902C81.218 176.902 91.9581 177.388 87.4099 180.97C82.8618 184.553 76.0727 180.1 75.4093 179.277C74.7459 178.454 75.2914 177.058 75.2914 177.058L81.218 176.902Z" fill="#EF4323"/>
<path d="M75.8811 178.477C76.8394 179.716 81.8814 181.378 84.1149 181.213C86.3484 181.049 88.3535 179.935 88.1323 178.399C87.9112 176.862 83.9675 173.288 83.2303 173.303C82.4932 173.319 81.8961 175.13 80.4071 175.514C79.7404 175.63 79.057 175.563 78.4213 175.32C77.7855 175.077 77.2183 174.667 76.773 174.126C76.6364 173.929 76.4403 173.788 76.2174 173.727C75.9946 173.666 75.7587 173.688 75.5494 173.789C75.2448 174.541 75.1159 175.36 75.1737 176.177C75.2314 176.993 75.4741 177.782 75.8811 178.477V178.477Z" fill="white"/>
<path d="M64.9346 167.432C68.7161 166.499 67.9716 172.182 68.9667 174.299C69.5858 175.381 70.3735 176.343 71.2961 177.145C72.2244 177.958 72.8299 179.114 72.9915 180.382C73.013 180.618 72.9695 180.855 72.8662 181.064C72.6828 181.313 72.421 181.483 72.129 181.542C69.9726 182.208 67.6581 181.967 65.6643 180.868C64.7386 180.39 63.9685 179.628 63.4529 178.681C63.0385 177.66 62.8421 176.555 62.8779 175.443C62.7821 173.045 61.7943 168.145 64.9346 167.432Z" fill="#FDB9A9"/>
<path d="M68.2738 179.089C68.2738 179.089 79.0139 179.575 74.4658 183.165C69.9176 186.756 63.1286 182.295 62.4946 181.472C61.8607 180.649 62.3693 179.253 62.3693 179.253L68.2738 179.089Z" fill="#EF4323"/>
<path d="M62.9369 180.649C63.8952 181.895 68.9373 183.557 71.1708 183.385C73.4043 183.212 75.4093 182.115 75.1882 180.578C74.9671 179.042 71.0234 175.467 70.2862 175.475C69.5491 175.483 68.952 177.309 67.463 177.685C66.7944 177.798 66.11 177.727 65.4743 177.48C64.8385 177.233 64.2723 176.818 63.8289 176.274C63.6913 176.079 63.4947 175.939 63.2719 175.879C63.0491 175.819 62.8138 175.843 62.6052 175.945C62.2969 176.699 62.166 177.521 62.2238 178.341C62.2816 179.16 62.5264 179.952 62.9369 180.649V180.649Z" fill="white"/>
<path d="M74.6648 115.63L69.6228 172.073L62.3472 171.116C59.4724 157.335 60.18 116.116 60.18 116.116L74.6648 115.63Z" fill="#473F47"/>
<path d="M69.6228 114.101L74.6648 170.544L81.9551 169.587C86.1199 133.856 82.6922 111.616 82.6922 111.616L69.6228 114.101Z" fill="#473F47"/>
<path d="M82.0435 93.6796C82.1394 92.6448 82.3974 91.6178 82.5006 90.5439C82.7379 88.4133 82.6982 86.2582 82.3826 84.1391C82.0417 81.8814 81.404 79.6858 80.4882 77.6169C79.6478 75.8295 78.1293 75.0691 76.4265 74.1754C74.9989 73.3545 73.4513 72.7953 71.8489 72.5213C70.7181 72.41 69.5781 72.476 68.4654 72.7173C65.0377 73.415 60.5191 75.2964 58.1455 78.2048C56.3911 80.3684 56.1847 83.4571 56.1257 86.3185C56.052 90.2381 56.1257 94.2048 56.3542 98.148C56.3542 98.7202 56.4206 99.2925 56.4648 99.8569C56.7744 104.184 57.1135 108.668 58.2708 112.847C58.632 114.156 59.0079 115.473 60.1579 116.171C62.8337 117.832 66.9396 116.915 69.8365 116.492C73.6844 115.912 77.6281 115.3 81.041 113.317C81.748 112.989 82.3208 112.402 82.6554 111.663C82.9576 110.769 82.5964 109.813 82.3384 108.903C81.1811 104.874 82.073 100.633 82.073 96.5174C82.073 95.7727 81.9846 95.0044 81.9846 94.2597C82.0216 94.0688 82.0414 93.8745 82.0435 93.6796V93.6796Z" fill="white"/>
<path opacity="0.1" d="M75.1587 76.3155C75.2091 77.7024 75.1598 79.0914 75.0113 80.4704C75.0113 81.7403 75.1218 83.0025 75.0628 84.2646C74.9533 86.406 74.2563 88.4663 73.0578 90.1911L82.4932 88.0823C82.6879 88.0651 82.8682 87.9664 82.9945 87.8079C83.0623 87.624 83.0623 87.4196 82.9945 87.2357L82.1762 83.316C81.8912 81.3521 81.253 79.465 80.2965 77.758C79.2362 76.2702 77.8628 75.0674 76.2865 74.246C75.9327 74.05 74.7311 73.1249 74.3921 73.7442C74.2889 74.0108 75.1071 75.853 75.1587 76.3155Z" fill="#020202"/>
<path d="M79.9648 86.1225C80.4363 85.8093 80.9741 85.6266 81.529 85.591C82.0839 85.5554 82.6384 85.6681 83.1419 85.9187C83.6371 86.1852 84.0545 86.5902 84.3494 87.0903C84.6442 87.5903 84.8053 88.1664 84.8152 88.7565C84.7688 89.5595 84.5136 90.3329 84.078 90.9907C83.8483 91.4292 83.5313 91.8091 83.1492 92.1039C82.5413 92.487 81.8307 92.6442 81.1295 92.5507C80.5008 92.5191 79.8866 92.3397 79.3309 92.0255C78.5053 91.5316 77.429 90.1205 77.7092 89.0152C78.1745 87.8343 78.9597 86.8273 79.9648 86.1225V86.1225Z" fill="#FDB9A9"/>
<path opacity="0.1" d="M66.7922 112.4C67.3617 110.857 67.6518 109.213 67.6472 107.555C67.5493 105.985 67.3248 104.428 66.9764 102.899L64.5218 90.4498C64.0721 88.1685 63.0991 77.123 59.8262 78.4165C58.9092 78.8306 58.0894 79.455 57.4255 80.2451C56.7617 81.0351 56.27 81.9713 55.9857 82.9868C55.4266 85.0213 55.1949 87.1416 55.3002 89.2582C55.3591 94.7457 56.3838 100.359 57.0472 105.807C57.2978 107.869 57.6 115.528 60.1653 116.202C60.6665 116.343 61.1604 116.61 61.6396 116.704C62.502 116.868 65.0894 117.966 66.2172 117.605C66.3097 117.582 66.3968 117.538 66.4728 117.478C66.5489 117.417 66.6125 117.34 66.6595 117.252C67.3229 115.865 66.254 113.137 66.254 111.577C66.3697 109.036 67.3403 106.623 68.9888 104.78C70.7968 102.795 72.8501 101.081 75.0923 99.6845L78.1072 97.6071C78.5951 97.2002 79.1847 96.9549 79.8027 96.9015C80.2205 96.9865 80.6451 97.0285 81.0705 97.027C81.7266 96.9094 82.1173 96.1881 82.3532 95.5296C82.9365 93.9459 83.2075 92.2515 83.1493 90.5517C83.1578 90.4418 83.1446 90.3313 83.1103 90.2273C83.076 90.1233 83.0214 90.0281 82.9502 89.9481C82.8445 89.889 82.7269 89.8582 82.6075 89.8582C82.488 89.8582 82.3704 89.889 82.2647 89.9481L72.7851 93.0838C71.3822 93.6804 69.868 93.922 68.3623 93.7893C66.888 93.5306 65.4137 92.292 65.4137 90.7006" fill="#020202"/>
<path d="M57.2167 79.3101C54.106 84.7976 53.0224 91.2572 51.9978 97.56C51.8211 98.3298 51.7911 99.1294 51.9093 99.9118C52.102 100.605 52.4619 101.232 52.9533 101.732C53.4448 102.231 54.0506 102.585 54.7105 102.757C56.0336 103.087 57.4014 103.164 58.75 102.985C61.6543 102.781 65.082 102.514 67.544 100.735C68.3844 100.123 69.1363 99.3631 69.9987 98.7751C70.8379 98.2479 71.7097 97.7817 72.6082 97.3797C74.326 96.5318 75.9648 95.5134 77.5028 94.3381C78.0341 93.9927 78.4771 93.5135 78.7928 92.9427C79.294 91.8844 78.9033 90.5909 78.5053 89.5012C78.4899 89.3738 78.4509 89.2509 78.3905 89.1397C78.3302 89.0284 78.2497 88.931 78.1538 88.853C78.0578 88.775 77.9483 88.718 77.8315 88.6853C77.7147 88.6526 77.5929 88.6448 77.4733 88.6624C77.3393 88.6773 77.2105 88.7256 77.0974 88.8035C72.9501 90.1112 68.7239 91.1169 64.4481 91.8138C63.2686 92.002 63.7846 90.6379 63.9394 89.9246C64.1901 88.929 64.3965 87.9255 64.5586 86.9064C64.7104 85.4346 64.521 83.9456 64.007 82.5696C63.493 81.1935 62.6701 79.9722 61.6101 79.0122C61.0652 78.4696 60.3745 78.1215 59.6345 78.0167C59.1688 78.0399 58.7128 78.1671 58.2963 78.3899C57.8797 78.6127 57.5119 78.9263 57.2167 79.3101V79.3101Z" fill="white"/>
<path d="M74.6501 66.8613C74.6408 65.7795 74.5793 64.6989 74.4658 63.6237C74.37 62.683 74.2299 61.7344 74.053 60.8094C74.0463 60.5339 73.9827 60.2632 73.8668 60.0167C73.7509 59.7701 73.5855 59.5537 73.3822 59.3827C72.0191 58.4879 70.4431 58.028 68.8414 58.0578C67.8926 57.9193 66.9304 58.179 66.1585 58.7818C65.3867 59.3847 64.8657 60.2834 64.7061 61.2876C64.6767 61.4899 64.6619 61.6943 64.6619 61.8991C64.4186 64.2509 65.0009 66.6027 65.3253 68.9936C65.5744 70.81 65.6657 72.6469 65.598 74.4811C66.4345 75.0761 67.3972 75.4398 68.3991 75.5394C68.8679 75.5378 69.3334 75.4558 69.7776 75.2964C70.0255 75.2401 70.2441 75.0861 70.3894 74.8653C70.4579 74.6701 70.4758 74.4589 70.441 74.2538C70.4129 74.0617 70.3956 73.868 70.3894 73.6737V73.6737C70.3168 72.5922 70.3366 71.5059 70.4484 70.4282C70.4491 70.3385 70.4805 70.252 70.5369 70.1852C70.6064 70.1618 70.6811 70.1618 70.7506 70.1852H71.0307C71.5356 70.2401 72.0444 70.2401 72.5492 70.1852C73.1565 70.1221 73.7206 69.8235 74.1341 69.3464C74.5935 68.6164 74.7777 67.7292 74.6501 66.8613V66.8613Z" fill="#FDB9A9"/>
<path d="M73.5517 67.0181C73.4485 66.8457 73.2864 66.6497 73.1094 66.7124C72.9325 66.7751 72.9178 66.9162 72.8662 67.0573C72.6706 67.6364 72.3701 68.1691 71.9816 68.6252C71.7547 68.9057 71.5083 69.1678 71.2445 69.4091L70.7432 69.8795C71.1963 70.0581 71.6698 70.1715 72.1512 70.2166C72.3907 70.2369 72.6317 70.2042 72.8588 70.1205C73.0859 70.0369 73.2942 69.9041 73.4706 69.7305C73.6643 69.4992 73.8189 69.2339 73.9277 68.9466C74.0667 68.6831 74.1638 68.3971 74.2151 68.1C74.2329 67.9576 74.2196 67.8128 74.1761 67.6768C74.1326 67.5408 74.0602 67.4174 73.9645 67.316" fill="#DE9F93"/>
<path d="M72.6156 59.7981C73.4485 59.5865 74.6427 59.4924 75.0629 58.6536C75.21 58.2406 75.227 57.788 75.1113 57.3639C74.9957 56.9397 74.7536 56.567 74.4216 56.3018C73.844 55.678 73.1345 55.2101 72.3522 54.9374C71.57 54.6646 70.7378 54.5949 69.925 54.734C69.4198 54.8668 68.9079 54.9689 68.3918 55.0397C67.6988 55.0789 67.0207 54.8594 66.3278 54.8359C65.1072 54.8677 63.9338 55.3436 63.0033 56.1842C62.4113 56.7989 61.7443 57.3262 61.0204 57.7521C60.6551 57.9466 60.2393 58.0059 59.8387 57.9207C59.4382 57.8355 59.0758 57.6106 58.809 57.2817C58.6679 57.7982 58.6338 58.341 58.7089 58.8728C58.784 59.4047 58.9665 59.9129 59.2439 60.3626C59.1032 60.512 58.9175 60.6041 58.7195 60.6227C58.5214 60.6414 58.3234 60.5854 58.1603 60.4645C58.2046 61.7208 58.4774 62.956 58.9637 64.1019C58.5202 64.1426 58.0735 64.1162 57.6369 64.0235C57.8816 64.657 58.2413 65.2329 58.6953 65.7185C59.1494 66.2041 59.689 66.5898 60.2832 66.8535C61.9049 67.5669 63.7109 67.6374 64.8977 69.1269C65.0451 69.315 65.1926 69.7619 65.4432 69.8089C65.6938 69.856 65.8707 69.5737 65.9445 69.3229C66.2242 68.2554 66.1513 67.1182 65.7381 66.1009C65.4515 65.6023 65.2821 65.0377 65.2442 64.4547C65.2958 63.8746 66.0329 63.4199 66.3867 63.7648C66.7406 64.1098 66.7995 64.9329 67.2344 64.7683C66.7406 63.122 67.3819 61.0524 68.8783 60.4018C70.0208 59.9157 71.2813 60.2058 72.446 59.8452L72.6156 59.7981Z" fill="#DD8049"/>
<path d="M70.9865 70.1852C69.8112 69.9541 68.6623 69.5915 67.5588 69.1034C67.4556 72.9133 70.3673 73.7051 70.3673 73.7051C70.2947 72.6236 70.3144 71.5373 70.4262 70.4596C70.4269 70.3698 70.4583 70.2834 70.5147 70.2166C70.5842 70.1931 70.6589 70.1931 70.7285 70.2166H70.9865V70.1852Z" fill="#DE9F93"/>
<path d="M132.132 107.743C147.582 107.743 160.107 94.4237 160.107 77.9931C160.107 61.5626 147.582 48.243 132.132 48.243C116.682 48.243 104.158 61.5626 104.158 77.9931C104.158 94.4237 116.682 107.743 132.132 107.743Z" fill="white"/>
<path d="M216.173 180.868C211.751 182.436 207.482 184.639 207.6 186.881C207.733 189.39 189.614 189.836 187.838 189.578C188.169 188.794 187.889 187.485 188.199 186.708C181.559 185.046 175.027 182.931 168.643 180.374C160.232 177.043 150.214 176.572 141.368 175.671C121.621 173.633 101.408 174.017 82.2057 179.826C78.028 181 73.9858 182.664 70.1535 184.788C69.0355 185.312 68.0907 186.18 67.4408 187.281C66.3646 189.507 67.7725 192.204 69.5343 193.858C72.2543 196.421 75.7926 197.778 79.294 198.828C90.7636 202.323 102.741 203.54 114.625 202.418C119.785 201.932 125.056 201 130.186 201.932C135.317 202.865 139.968 205.586 144.988 206.997C150.008 208.408 156.045 208.188 159.554 204.159C160.431 203.155 161.146 201.932 162.274 201.274C163.682 200.443 165.414 200.678 167.021 200.913C182.039 203.129 197.265 203.245 212.311 201.258C213.542 201.094 214.898 200.843 215.665 199.8C216.232 199.016 216.35 197.934 216.969 197.197C217.795 196.202 219.181 196.147 220.456 196.155C227.883 196.193 235.303 195.693 242.666 194.658C244.612 194.383 246.625 194.046 248.261 192.886C249.897 191.726 251.033 189.507 250.413 187.524C249.928 186.309 249.111 185.277 248.069 184.561C241.642 179.355 233.216 177.325 225.218 178.422C222.148 178.985 219.123 179.803 216.173 180.868V180.868Z" fill="url(#paint1_linear)"/>
<path d="M135.855 182.397C135.855 184.216 141.693 185.689 148.895 185.689C156.097 185.689 161.927 184.216 161.927 182.397C161.979 181.713 161.979 181.027 161.927 180.343C160.998 178.775 155.44 179.097 148.895 179.097C142.592 179.097 137.1 178.838 135.855 180.343C135.777 181.025 135.777 181.715 135.855 182.397V182.397Z" fill="#EF4323"/>
<path d="M148.895 183.643C156.092 183.643 161.927 182.166 161.927 180.343C161.927 178.52 156.092 177.043 148.895 177.043C141.697 177.043 135.862 178.52 135.862 180.343C135.862 182.166 141.697 183.643 148.895 183.643Z" fill="#EF4323"/>
<path d="M148.895 183.643C156.092 183.643 161.927 182.166 161.927 180.343C161.927 178.52 156.092 177.043 148.895 177.043C141.697 177.043 135.862 178.52 135.862 180.343C135.862 182.166 141.697 183.643 148.895 183.643Z" fill="url(#paint2_linear)"/>
<path d="M221.459 187.438C228.656 187.438 234.491 185.96 234.491 184.137C234.491 182.314 228.656 180.837 221.459 180.837C214.261 180.837 208.426 182.314 208.426 184.137C208.426 185.96 214.261 187.438 221.459 187.438Z" fill="#4C506D"/>
<path d="M150.391 149.386H147.369V180.57H150.391V149.386Z" fill="#EF4323"/>
<path d="M150.391 149.386H147.369V160.157H150.391V149.386Z" fill="url(#paint3_linear)"/>
<path d="M186.555 178.783V183.534H170.574C170.574 183.534 171.51 179.888 177.842 178.783L179.913 176.988L186.555 178.783Z" fill="#EF4323"/>
<path d="M186.555 178.783V183.534H170.574C170.574 183.534 171.51 179.888 177.842 178.783L179.913 176.988L186.555 178.783Z" fill="url(#paint4_linear)"/>
<path d="M187.285 183.526H170.058V184.741H187.285V183.526Z" fill="#EF4323"/>
<path d="M222.719 156.747H220.213V181.362H222.719V156.747Z" fill="#4C506D"/>
<path d="M208.448 184.114C208.448 185.932 214.286 187.414 221.481 187.414C228.675 187.414 234.521 185.932 234.521 184.114C234.565 183.43 234.565 182.744 234.521 182.06C233.592 180.492 228.034 180.813 221.481 180.813C215.186 180.813 209.686 180.555 208.448 182.06C208.367 182.742 208.367 183.432 208.448 184.114Z" fill="#2F3554"/>
<path d="M221.459 185.384C228.656 185.384 234.491 183.906 234.491 182.083C234.491 180.261 228.656 178.783 221.459 178.783C214.261 178.783 208.426 180.261 208.426 182.083C208.426 183.906 214.261 185.384 221.459 185.384Z" fill="#4C506D"/>
<path d="M217.485 152.263H239.047L244.207 122.473C244.366 121.542 244.171 120.582 243.666 119.803C243.16 119.024 242.384 118.49 241.509 118.318C241.302 118.28 241.092 118.262 240.882 118.264H226.139C225.356 118.264 224.597 118.556 223.994 119.088C223.391 119.621 222.981 120.361 222.837 121.18L217.485 152.263Z" fill="#4C506D"/>
<path d="M211.743 152.263H233.304L238.464 122.473C238.624 121.542 238.429 120.582 237.923 119.803C237.417 119.024 236.642 118.49 235.767 118.318C235.567 118.28 235.365 118.262 235.162 118.264H220.419C219.635 118.264 218.876 118.556 218.273 119.088C217.67 119.621 217.261 120.361 217.117 121.18L211.743 152.263Z" fill="#2F3554"/>
<path d="M234.963 147.771H219.424C217.091 147.771 215.2 149.782 215.2 152.263C215.2 154.743 217.091 156.755 219.424 156.755H234.963C237.296 156.755 239.187 154.743 239.187 152.263C239.187 149.782 237.296 147.771 234.963 147.771Z" fill="#4C506D"/>
<path d="M225.469 147.771H209.93C207.597 147.771 205.706 149.782 205.706 152.263C205.706 154.743 207.597 156.755 209.93 156.755H225.469C227.801 156.755 229.692 154.743 229.692 152.263C229.692 149.782 227.801 147.771 225.469 147.771Z" fill="#2F3554"/>
<path d="M228.749 110.299C228.594 110.101 228.429 109.913 228.255 109.734C225.734 107.163 221.621 107.438 219.056 107.516C216.776 107.626 214.492 107.555 212.222 107.304L211.242 107.179H210.918C209.215 106.983 207.173 106.999 206.605 108.872C205.942 111.106 205.868 113.78 205.566 116.1C204.652 123.03 204.143 129.787 203.87 136.733C203.612 142.871 211.286 143.357 215.407 143.357C216.804 143.394 218.203 143.305 219.586 143.091C220.854 142.863 222.004 142.307 223.272 142.056C223.93 141.984 224.554 141.712 225.071 141.272C225.771 140.551 225.771 139.367 225.771 138.332C225.747 135.689 225.949 133.05 226.375 130.446C226.604 129.152 226.958 127.89 227.171 126.605C227.412 125.554 227.748 124.53 228.174 123.547C229.921 118.852 231.299 113.56 228.749 110.299Z" fill="white"/>
<path d="M197.767 110.926C197.915 110.331 198.165 109.771 198.504 109.272C199.3 108.214 200.716 107.986 201.983 107.884C202.581 107.829 203.296 107.884 203.583 108.425C203.715 108.734 203.754 109.08 203.694 109.413C203.512 110.563 203.418 111.727 203.413 112.894C204.248 112.33 205.154 111.897 206.104 111.608C206.355 111.522 208.898 111.216 208.935 111.608C209.075 113.286 209.134 114.971 209.134 116.649C209.187 117.259 209.125 117.874 208.952 118.458C208.779 119.043 208.497 119.584 208.124 120.051C206.78 122.054 205.278 123.932 203.635 125.664C201.871 127.531 199.489 128.589 197 128.611C196.614 128.676 196.219 128.638 195.85 128.502C195.481 128.365 195.149 128.133 194.885 127.828C194.65 127.373 194.545 126.855 194.583 126.338C194.589 124.857 194.702 123.379 194.922 121.917C195.566 118.172 196.518 114.494 197.767 110.926V110.926Z" fill="white"/>
<path d="M199.883 114.156C200.008 113.184 199.883 110.91 200.62 110.307L200.752 110.228C200.913 110.146 201.088 110.098 201.267 110.088C201.445 110.078 201.624 110.105 201.792 110.168C201.961 110.232 202.116 110.33 202.249 110.457C202.381 110.585 202.489 110.739 202.566 110.91C202.678 111.331 202.703 111.772 202.639 112.204C202.574 113.249 202.601 114.299 202.721 115.34C202.794 115.967 202.986 116.704 203.554 116.907C203.758 116.959 203.97 116.967 204.178 116.931C204.386 116.894 204.584 116.815 204.762 116.696C205.758 116.186 206.685 115.537 207.519 114.767C207.704 114.603 207.939 114.415 208.168 114.501C208.306 114.572 208.419 114.687 208.492 114.83L214.566 124.802C215.075 125.64 215.532 126.895 214.957 127.561C214.382 128.227 213.321 128 212.524 127.632C210.181 126.54 208.079 124.938 206.355 122.928C206.236 122.763 206.074 122.638 205.89 122.567C205.761 122.563 205.633 122.587 205.512 122.636C205.392 122.686 205.282 122.761 205.19 122.857C204.09 123.728 202.912 124.481 201.674 125.107C200.752 125.554 199.462 125.891 198.887 124.951C198.652 124.442 198.597 123.86 198.733 123.312L199.883 114.156Z" fill="#D8DAE1"/>
<path d="M222.24 116.696C222.676 115.498 223.394 114.44 224.326 113.623C224.797 113.216 225.369 112.964 225.973 112.897C226.576 112.83 227.185 112.952 227.724 113.246C229.154 114.171 229.272 116.296 229.088 118.068C228.832 120.583 228.313 123.06 227.54 125.452C227.157 126.636 226.538 127.804 226.198 128.972C225.926 129.936 225.889 130.971 225.609 131.982C224.904 134.49 224.522 137.087 224.474 139.704C224.489 140.047 224.434 140.39 224.311 140.708C224.244 140.863 224.128 140.989 223.982 141.064C223.837 141.138 223.672 141.156 223.515 141.115C223.331 141.022 223.177 140.871 223.073 140.684C221.525 138.56 218.82 137.862 216.313 137.548C213.365 137.164 210.416 137.094 207.431 136.905C206.215 136.827 204.711 136.443 204.519 135.181C204.491 134.815 204.559 134.447 204.717 134.12C204.874 133.793 205.115 133.52 205.411 133.331C206.013 132.964 206.677 132.727 207.365 132.633C210.003 132.108 212.768 131.669 214.964 130.03C214.168 129.781 213.433 129.347 212.812 128.76C214.227 129.748 216.498 126.526 217.515 125.703C218.415 124.94 219.166 123.997 219.726 122.928C220.744 121.023 221.385 118.75 222.24 116.696Z" fill="#D8DAE1"/>
<path d="M214.574 109.295C214.895 109.217 215.233 109.264 215.525 109.429C215.815 109.594 216.139 109.68 216.468 109.68C216.485 109.706 216.497 109.735 216.505 109.766C216.6 109.98 216.653 110.213 216.663 110.45C216.674 110.686 216.64 110.923 216.564 111.146C216.488 111.368 216.371 111.573 216.221 111.748C216.07 111.923 215.889 112.064 215.687 112.165V112.165C215.508 112.231 215.337 112.321 215.178 112.431C215.061 112.584 214.976 112.762 214.928 112.952C214.88 113.143 214.87 113.342 214.898 113.537C214.957 116.79 214.058 119.965 213.35 123.132C212.517 126.816 211.942 130.642 212.473 134.397C212.51 134.596 212.51 134.801 212.473 135.001C212.412 135.137 212.33 135.262 212.23 135.369L210.66 137.243C210.195 136.459 209.126 136.216 208.876 135.345C208.815 135.089 208.797 134.824 208.824 134.561C209.103 131.06 209.673 127.592 210.527 124.198C211.316 120.314 212.371 116.497 213.682 112.776C213.748 112.641 213.777 112.489 213.763 112.337C213.733 112.213 213.68 112.095 213.608 111.992C213.173 111.208 213.881 109.578 214.574 109.295Z" fill="#EF4323"/>
<path d="M222.557 107.485C220.346 107.273 218.171 107.132 215.982 107.053C214.507 107.006 212.606 106.599 211.249 107.202C211.578 107.22 211.906 107.262 212.23 107.328C214.5 107.571 216.783 107.641 219.063 107.539C221.636 107.453 225.741 107.179 228.27 109.75C226.921 108.073 224.665 107.681 222.557 107.485Z" fill="white"/>
<path d="M220.655 100.461C220.755 100.554 220.88 100.612 221.012 100.626C221.144 100.64 221.277 100.61 221.392 100.539C221.083 102.318 220.825 103.878 221.606 105.627C221.893 106.378 222.442 106.982 223.139 107.312C221.681 107.633 220.263 108.136 218.916 108.809C218.044 109.217 217.103 109.428 216.151 109.429C216.055 109.429 214.375 109.029 214.625 108.645C215.96 106.56 214.891 103.102 214.891 103.102C216.006 103.451 217.203 103.34 218.245 102.792C219.287 102.245 220.098 101.301 220.515 100.147C220.531 100.264 220.58 100.373 220.655 100.461Z" fill="#8C6239"/>
<path d="M219.218 87.1808C219.218 87.1808 210.166 86.5066 209.996 93.2014C209.96 94.5881 210.076 95.9746 210.343 97.3327C210.431 97.8109 210.542 98.2734 210.667 98.7202C211.832 102.805 214.404 105.564 217.552 104.576C223.043 102.867 226.545 88.929 219.218 87.1808Z" fill="#A67C52"/>
<path d="M221.805 98.5243C222.144 98.1901 222.361 97.7401 222.419 97.2528C222.477 96.7655 222.372 96.2721 222.122 95.8589C222.042 95.7246 221.937 95.6098 221.812 95.5218C221.656 95.4368 221.481 95.3965 221.305 95.4047C221.13 95.413 220.959 95.4695 220.81 95.5689C220.567 95.71 220.242 96.2352 219.94 95.9059C219.869 95.8115 219.819 95.7008 219.795 95.5824C219.77 95.4641 219.772 95.3414 219.8 95.2239C219.875 94.5732 220.131 93.9614 220.537 93.4679C220.299 93.3848 220.083 93.2447 219.904 93.0585C219.725 92.8723 219.589 92.645 219.505 92.3939C218.669 92.5778 217.813 92.6333 216.962 92.5586C216.758 92.5554 216.558 92.5073 216.372 92.4175C215.937 92.1901 215.761 91.6335 215.37 91.3121C214.823 91.0306 214.205 90.9427 213.608 91.0613C213.004 91.0613 212.259 90.8261 212.171 90.1911C211.632 90.4314 211.026 90.4352 210.484 90.2017C209.943 89.9681 209.51 89.5162 209.281 88.9447C209.001 89.0568 208.699 89.0961 208.402 89.0593C208.104 89.0225 207.819 88.9106 207.571 88.733C207.411 88.5033 207.304 88.2362 207.261 87.9539C207.217 87.6717 207.237 87.3824 207.32 87.1103C207.534 85.9108 208.057 84.6252 209.134 84.194C208.507 83.8413 208.514 82.9006 208.61 82.1558C208.619 81.9389 208.674 81.7269 208.772 81.5365C209.067 81.027 209.745 81.0426 210.247 80.8388C210.748 80.635 211.153 80.2117 211.647 79.9608C212.141 79.71 212.849 79.7335 213.085 80.2509C213.732 79.8435 214.448 79.577 215.193 79.4669C215.565 79.4187 215.943 79.4846 216.281 79.6568C216.619 79.829 216.904 80.1004 217.102 80.439C217.469 80.2191 217.876 80.0855 218.296 80.0471C218.507 80.0336 218.716 80.0916 218.894 80.2128C219.071 80.334 219.208 80.512 219.284 80.7212C219.282 80.7714 219.291 80.8215 219.312 80.8667C219.332 80.9119 219.363 80.9509 219.402 80.9799C219.441 81.0033 219.486 81.0155 219.531 81.0155C219.576 81.0155 219.621 81.0033 219.66 80.9799C220.241 80.7431 220.876 80.6994 221.481 80.8545C221.78 80.9395 222.048 81.1166 222.253 81.3635C222.457 81.6104 222.589 81.916 222.631 82.2421C223.348 82.4622 224.009 82.8536 224.562 83.3866C224.86 83.6129 225.089 83.9277 225.22 84.2915C225.351 84.6554 225.379 85.0523 225.299 85.4326C225.776 85.9515 226.053 86.6405 226.078 87.3652C226.102 88.0899 225.872 88.7984 225.432 89.3523C225.568 89.4203 225.679 89.5338 225.748 89.6755C225.817 89.8171 225.841 89.9789 225.815 90.1362C225.758 90.4517 225.635 90.7492 225.454 91.0064C225.394 91.0876 225.358 91.1858 225.351 91.2886C225.351 91.414 225.483 91.5081 225.572 91.5943C225.789 91.841 225.906 92.1692 225.896 92.5072C225.887 92.8451 225.751 93.1652 225.52 93.3974C225.435 93.4886 225.335 93.5629 225.225 93.6169C225.421 93.7741 225.583 93.9747 225.698 94.2048C225.814 94.4349 225.882 94.689 225.896 94.9495C225.896 95.0778 225.87 95.2044 225.818 95.3204C225.767 95.4364 225.692 95.5389 225.599 95.6206C225.506 95.7022 225.397 95.761 225.28 95.7927C225.164 95.8244 225.042 95.8283 224.923 95.804C225.028 96.0957 225.06 96.4109 225.018 96.7197C224.975 97.0284 224.859 97.3205 224.68 97.5679C224.23 98.1793 223.751 97.9755 223.206 98.2421C222.66 98.5086 222.41 99.3709 222.034 99.8099C221.997 99.3709 221.908 98.9476 221.805 98.5243Z" fill="#2F3554"/>
<path d="M202.676 138.277L190.263 145.043L179.943 176.792L186.172 180.868L198.386 154.512C198.386 154.512 209.782 150.82 212.864 149.746C215.945 148.672 219.778 138.481 219.778 138.481C205.853 138.379 202.676 138.277 202.676 138.277Z" fill="#2F3554"/>
<path d="M212.517 139.351L200.111 146.117L191.435 183.189L198.069 184.984L208.227 155.571C208.227 155.571 219.616 151.878 222.697 150.804C225.778 149.731 225.056 140.441 225.056 140.441C219.726 136.561 212.517 139.351 212.517 139.351Z" fill="#4C506D"/>
<path d="M225.034 108.982C223.095 108.488 218.311 119.291 218.311 119.291L210.593 111.044L205.993 112.886C205.993 112.886 212.893 130.916 218.628 129.207C224.363 127.498 229.766 114.579 229.766 114.579C230.496 112.361 226.98 109.476 225.034 108.982Z" fill="white"/>
<path d="M201.711 103.369C201.166 103.871 200.724 104.488 200.413 105.18C200.07 105.903 199.799 106.662 199.602 107.445C199.418 108.046 199.353 108.682 199.411 109.311C199.442 109.623 199.542 109.924 199.702 110.188C199.862 110.452 200.078 110.672 200.332 110.832C200.725 110.996 201.157 111.022 201.565 110.908C201.973 110.794 202.336 110.545 202.603 110.197C203.11 109.479 203.445 108.639 203.576 107.751C203.692 106.863 203.94 106 204.313 105.195C204.623 104.809 204.82 104.335 204.88 103.831C204.711 102.06 202.499 102.679 201.711 103.369Z" fill="#8C6239"/>
<path d="M209.274 109.876C209.628 111.773 207.674 112.533 206.178 112.165C205.727 112.071 205.303 111.867 204.939 111.569C204.077 110.84 203.804 109.585 203.237 108.582C202.838 107.877 202.286 107.289 201.895 106.583C201.673 106.243 201.536 105.849 201.497 105.438C201.459 105.026 201.519 104.611 201.674 104.231C202.16 103.291 203.347 103.095 204.364 103.095C204.885 103.04 205.411 103.118 205.898 103.322C206.412 103.626 206.836 104.076 207.121 104.623C208.117 106.23 208.845 108.007 209.274 109.876V109.876Z" fill="#A67C52"/>
<path d="M74.8933 141.162C74.8933 147.865 106.863 153.305 146.3 153.305C185.737 153.305 217.699 147.865 217.699 141.162C217.699 140.88 217.81 137.517 217.699 137.243C215.208 130.924 184.1 129.019 146.3 129.019C109.325 129.019 78.5495 131.12 74.8933 137.243C74.65 137.65 74.8933 140.739 74.8933 141.162Z" fill="#EF4323"/>
<path d="M217.699 141.162C217.699 147.865 185.737 153.305 146.3 153.305C106.863 153.305 74.8933 147.865 74.8933 141.162C74.8933 140.378 74.8196 139.594 74.8933 138.81C74.9748 138.33 75.1506 137.873 75.4093 137.47C75.6424 136.69 76.1242 136.021 76.7716 135.579C77.4189 135.137 78.1911 134.949 78.9549 135.048C80.6061 135.048 82.2549 135.084 83.9011 135.157C86.1748 135.24 88.4432 135.444 90.6976 135.769C92.3782 136.027 94.0515 136.388 95.747 136.498C99.2484 136.709 102.72 135.839 106.222 135.714C106.481 135.69 106.741 135.706 106.996 135.761C107.276 135.854 107.545 135.98 107.799 136.137C109.063 136.828 110.498 137.085 111.905 136.874C124.606 137.791 137.27 136.874 149.912 135.306C160.475 133.997 171.031 132.406 181.661 132.116C192.777 131.81 203.887 132.931 214.751 135.455C216.225 135.792 218.001 136.545 218.075 138.144C218.127 139.21 217.036 140.292 217.699 141.162Z" fill="url(#paint5_linear)"/>
<path d="M146.3 149.386C185.737 149.386 217.707 143.949 217.707 137.243C217.707 130.536 185.737 125.099 146.3 125.099C106.863 125.099 74.8933 130.536 74.8933 137.243C74.8933 143.949 106.863 149.386 146.3 149.386Z" fill="#EF4323"/>
<path d="M198.077 184.984V189.727H182.095C182.095 189.727 183.032 186.089 189.364 184.984L191.435 183.189L198.077 184.984Z" fill="#EF4323"/>
<path d="M198.077 184.984V189.727H182.095C182.095 189.727 183.032 186.089 189.364 184.984L191.435 183.189L198.077 184.984Z" fill="url(#paint6_linear)"/>
<path d="M198.799 189.727H181.572V190.942H198.799V189.727Z" fill="#EF4323"/>
<path d="M221.717 106.505C221.957 106.426 222.214 106.426 222.454 106.505C222.83 106.677 222.992 107.179 223.375 107.336C222.491 108.19 221.296 108.59 220.287 109.264C219.238 110.043 218.299 110.977 217.5 112.039C216.549 111.483 216.608 109.907 215.775 109.162C216.368 108.996 216.933 108.731 217.449 108.378C217.865 108.176 218.264 107.937 218.643 107.665C219.594 107.085 220.635 106.692 221.717 106.505V106.505Z" fill="white"/>
<path d="M213.549 107.1C213.247 107.384 212.975 107.702 212.738 108.049L211.795 109.327C211.748 109.377 211.711 109.437 211.687 109.503C211.662 109.569 211.652 109.64 211.655 109.711C211.683 109.793 211.738 109.861 211.81 109.902C211.882 109.944 211.965 109.957 212.045 109.938C212.202 109.89 212.354 109.83 212.502 109.758C212.852 109.686 213.209 109.665 213.564 109.695C214.001 109.648 214.429 109.529 214.832 109.342C214.857 109.338 214.881 109.328 214.903 109.313C214.925 109.299 214.943 109.279 214.957 109.256C214.972 109.208 214.972 109.156 214.957 109.107C214.936 108.659 215.001 108.211 215.149 107.79C215.252 107.477 215.451 107.116 215.252 106.795C214.891 106.175 213.925 106.779 213.549 107.1Z" fill="white"/>
<path d="M192.791 131.128L174.215 132.014L179.913 139.069L200.362 137.243L192.791 131.128Z" fill="white"/>
<path d="M115.569 131.128C116.608 131.238 133.835 136.537 133.835 136.537L123.869 144.698L104.158 139.069L115.569 131.128Z" fill="white"/>
<path d="M197.059 169.054H194.553V193.67H197.059V169.054Z" fill="#4C506D"/>
<path d="M197.059 169.054H194.553V193.67H197.059V169.054Z" fill="url(#paint7_linear)"/>
<path d="M182.766 196.445C182.766 198.271 188.604 199.745 195.806 199.745C203.008 199.745 208.839 198.271 208.839 196.445C208.883 195.761 208.883 195.075 208.839 194.391C207.91 192.823 202.352 193.152 195.806 193.152C189.504 193.152 184.012 192.894 182.766 194.391C182.685 195.073 182.685 195.763 182.766 196.445Z" fill="#2F3554"/>
<path d="M195.806 197.691C203.004 197.691 208.839 196.214 208.839 194.391C208.839 192.568 203.004 191.091 195.806 191.091C188.608 191.091 182.774 192.568 182.774 194.391C182.774 196.214 188.608 197.691 195.806 197.691Z" fill="#4C506D"/>
<path d="M184.174 118.773C175.749 116.696 171.517 105.83 163.291 102.985C163.025 102.875 162.731 102.875 162.465 102.985C162.242 103.142 162.073 103.374 161.986 103.643L160.107 108.033L171.392 121.948C172.235 123.063 173.184 124.082 174.223 124.99C176.641 126.95 179.759 127.592 182.751 128.172C184.528 128.525 186.378 128.862 188.11 128.329C190.374 127.632 192.976 124.308 192.231 121.611C191.42 118.656 186.496 119.345 184.174 118.773Z" fill="white"/>
<path d="M171.798 163.912C171.761 165.36 172.012 166.8 172.535 168.137H172.608C174.083 168.098 175.498 168.137 176.943 168.231C179.344 168.437 181.731 168.793 184.093 169.297C185.184 169.517 186.304 169.752 187.366 169.987C188.427 170.222 189.445 170.442 190.484 170.654C192.46 171.069 194.361 171.438 196.204 171.704C198.591 170.63 200.722 169.001 202.44 166.938C202.632 166.71 202.809 166.483 202.986 166.256C203.215 165.951 203.429 165.635 203.627 165.307C204.225 164.388 204.614 163.333 204.762 162.226C204.807 161.777 204.792 161.323 204.718 160.878C204.336 159.352 203.435 158.031 202.19 157.17L201.799 156.872C199.17 154.933 196.018 153.956 192.821 154.089C192.552 154.081 192.283 154.097 192.017 154.136C190.311 154.27 188.62 154.575 186.968 155.046C184.344 155.759 181.719 156.762 179.132 157.64C177.214 158.181 175.38 159.013 173.685 160.11C173.197 160.444 172.772 160.872 172.432 161.372C171.998 162.137 171.778 163.018 171.798 163.912V163.912Z" fill="#3E3E54"/>
<path d="M172.026 168.349C172.365 170.191 172.66 172.057 172.925 173.915C173.542 178.254 173.952 182.623 174.156 187.006C174.208 187.415 174.171 187.831 174.046 188.221C173.611 189.374 172.129 189.429 170.965 189.421C169.8 189.413 168.274 189.915 168.304 191.153C168.304 192.118 169.306 192.682 170.161 192.996C172.726 193.93 175.426 194.374 178.137 194.305C178.468 194.321 178.8 194.265 179.11 194.14C180.945 193.278 179.493 191.004 179.302 189.687C179.022 187.767 179.722 185.65 180.157 183.816C181.181 179.543 183.894 175.679 183.776 171.132C183.688 170.554 183.79 169.962 184.064 169.454C184.572 168.788 186.717 169.862 187.395 170.011C188.435 170.238 189.474 170.465 190.514 170.677C196.094 171.837 201.254 173.162 206.996 172.025C207.336 171.984 207.663 171.864 207.954 171.673C208.299 171.351 208.541 170.924 208.647 170.45C209.455 167.769 209.24 164.858 208.05 162.344C206.649 159.404 204.431 158.244 201.829 156.856C198.836 155.242 196.307 154.026 192.85 154.128C192.582 154.121 192.313 154.136 192.047 154.175C190.335 154.324 188.64 154.639 186.983 155.116C182.766 156.276 173.058 157.907 171.444 163.104C170.935 164.743 171.576 166.06 171.886 167.651C171.93 167.855 171.974 168.098 172.026 168.349Z" fill="#3E3E54"/>
<path d="M172.026 168.349C172.365 170.191 172.66 172.057 172.925 173.915C173.542 178.254 173.952 182.623 174.156 187.006C174.208 187.415 174.171 187.831 174.046 188.221C173.611 189.374 172.129 189.429 170.965 189.421C169.8 189.413 168.274 189.915 168.304 191.153C168.304 192.118 169.306 192.682 170.161 192.996C172.726 193.93 175.426 194.374 178.137 194.305C178.468 194.321 178.8 194.265 179.11 194.14C180.945 193.278 179.493 191.004 179.302 189.687C179.022 187.767 179.722 185.65 180.157 183.816C181.181 179.543 183.894 175.679 183.776 171.132C183.688 170.554 183.79 169.962 184.064 169.454C184.572 168.788 186.717 169.862 187.395 170.011C188.435 170.238 189.474 170.465 190.514 170.677C196.094 171.837 201.254 173.162 206.996 172.025C207.336 171.984 207.663 171.864 207.954 171.673C208.299 171.351 208.541 170.924 208.647 170.45C209.455 167.769 209.24 164.858 208.05 162.344C206.649 159.404 204.431 158.244 201.829 156.856C198.836 155.242 196.307 154.026 192.85 154.128C192.582 154.121 192.313 154.136 192.047 154.175C190.335 154.324 188.64 154.639 186.983 155.116C182.766 156.276 173.058 157.907 171.444 163.104C170.935 164.743 171.576 166.06 171.886 167.651C171.93 167.855 171.974 168.098 172.026 168.349Z" fill="url(#paint8_linear)"/>
<path d="M164.08 168.835C162.71 170.608 161.617 172.604 160.844 174.746C159.834 177.145 154.033 202.857 153.826 202.803L158.212 204.033C163.268 196.338 167.485 188.056 170.78 179.347C171.731 176.847 171.783 176.611 174.341 176.078C176.589 175.616 178.837 175.106 181.063 174.511C185.415 173.428 189.685 172.003 193.838 170.246C196.354 169.205 198.762 167.891 201.025 166.326C201.347 166.053 201.636 165.74 201.888 165.393C202.004 165.239 202.108 165.074 202.197 164.9C202.596 164.22 202.786 163.426 202.743 162.626C202.734 162.413 202.699 162.202 202.639 161.999C202.478 161.54 202.258 161.107 201.983 160.713C201.558 160.103 201.019 159.593 200.399 159.216C198.839 158.018 197.001 157.296 195.084 157.131C193.794 157.052 192.511 157.327 191.236 157.256C190.093 157.186 189.305 156.519 188.287 156.355C187.515 156.259 186.732 156.333 185.987 156.574C184.282 157.185 182.638 157.973 181.078 158.926L171.871 163.818H171.805L169.962 164.798C168.031 165.832 165.819 166.859 164.286 168.521L164.08 168.835Z" fill="#3E3E54"/>
<path d="M147.347 201.572C146.541 201.63 145.761 201.899 145.076 202.356C144.742 202.593 144.489 202.939 144.356 203.342C144.223 203.745 144.217 204.183 144.339 204.59C144.618 205.139 145.066 205.571 145.607 205.813C148.811 207.476 152.371 208.209 155.927 207.937C156.43 207.969 156.93 207.826 157.35 207.53C157.711 207.139 157.946 206.637 158.02 206.095C158.344 205.113 158.412 204.057 158.219 203.038C157.63 200.976 155.477 201.423 153.944 201.337C151.743 201.203 149.535 201.282 147.347 201.572V201.572Z" fill="#3E3E54"/>
<path d="M127.112 145.192V148.006H233.997C234.167 147.065 234.322 146.124 234.469 145.192H127.112Z" fill="#EF4323"/>
<path d="M127.112 145.192V148.006H233.997C234.167 147.065 234.322 146.124 234.469 145.192H127.112Z" fill="url(#paint9_linear)"/>
<path d="M179.655 110.683C179.287 111.169 178.705 111.694 178.918 112.251C179.044 112.557 179.368 112.706 179.619 112.909C180.253 113.514 180.642 114.357 180.702 115.261C180.761 116.158 180.96 117.037 181.292 117.864C181.467 118.27 181.769 118.6 182.147 118.796C182.524 118.992 182.954 119.042 183.363 118.938C183.828 118.742 184.263 118.248 184.734 118.405C185.206 118.561 185.258 118.985 185.471 119.322C185.764 119.713 186.155 120.008 186.598 120.173C187.042 120.338 187.52 120.366 187.978 120.255C188.891 120.014 189.752 119.588 190.514 119.001C190.843 118.824 191.119 118.552 191.31 118.217C191.42 117.887 191.42 117.527 191.31 117.197C190.933 116.208 190.379 115.306 189.681 114.54C188.528 112.976 187.756 111.135 187.432 109.178C187.204 107.822 187.145 106.293 186.246 105.313C185.014 103.98 182.346 104.27 181.086 105.478C179.655 106.724 180.791 109.123 179.655 110.683Z" fill="url(#paint10_linear)"/>
<path d="M180.71 104.27C180.895 104.605 181.166 104.877 181.491 105.054C182.132 105.384 182.692 105.783 183.319 106.144C183.914 106.495 184.361 107.072 184.572 107.759C184.926 109.013 184.41 110.487 184.897 111.679C185.066 111.914 185.435 111.679 185.567 111.459C185.7 111.24 185.752 110.871 185.973 110.675C186.349 110.385 186.879 110.761 187.093 111.2C187.32 111.721 187.351 112.314 187.181 112.859C187.012 113.403 186.653 113.859 186.179 114.132C186.275 114.524 186.769 114.634 187.145 114.54C187.504 114.391 187.881 114.298 188.265 114.266C189.142 114.352 189.592 115.653 190.477 115.7C191.074 115.7 191.538 115.136 191.885 114.603L192.813 113.199C192.953 112.936 193.116 112.686 193.3 112.455C193.521 112.227 193.912 112.172 194.081 111.914C194.251 111.655 193.985 111.13 194.184 110.793C194.279 110.673 194.398 110.577 194.531 110.511C194.819 110.308 195.034 110.009 195.141 109.66C195.248 109.311 195.241 108.934 195.121 108.59C195.075 108.51 195.055 108.417 195.062 108.323C195.062 108.198 195.216 108.127 195.32 108.057C195.62 107.797 195.824 107.432 195.896 107.028C195.968 106.623 195.902 106.204 195.71 105.846C195.307 105.142 194.754 104.549 194.096 104.114C192.74 103.048 191.324 101.809 190.926 100.069C190.866 99.5949 190.742 99.1329 190.558 98.6967C190.454 98.487 190.278 98.3278 190.067 98.2519C189.855 98.176 189.625 98.1893 189.423 98.2891C189.53 97.3787 189.47 96.4547 189.246 95.5688C189.2 95.3531 189.112 95.1501 188.988 94.9731C188.854 94.826 188.686 94.7194 188.501 94.6643C188.315 94.6092 188.12 94.6075 187.934 94.6595C187.562 94.7694 187.212 94.95 186.902 95.1926C186.902 94.7536 186.356 94.5811 185.943 94.5968C185.158 94.6272 184.393 94.8736 183.724 95.3119C183.055 95.7502 182.504 96.3654 182.125 97.0975C182.067 97.228 181.993 97.3493 181.904 97.4581C181.731 97.607 181.537 97.7261 181.329 97.8109C181.015 98.0034 180.746 98.268 180.54 98.5853C180.335 98.9027 180.199 99.2648 180.142 99.6453C180.031 100.409 180.031 101.186 180.142 101.95C180.179 102.541 180.283 103.126 180.452 103.69C180.512 103.895 180.599 104.091 180.71 104.27Z" fill="#DD8049"/>
<path d="M189.01 117.401C188.09 117.942 187.204 118.544 186.356 119.204C186.088 119.409 185.869 119.678 185.715 119.988C185.632 120.149 185.588 120.33 185.588 120.513C185.588 120.697 185.632 120.878 185.715 121.039C186.01 121.486 186.563 121.25 186.99 121.039C188.949 120.094 191.062 119.561 193.211 119.471C193.359 119.481 193.507 119.447 193.637 119.372C193.768 119.297 193.876 119.185 193.949 119.048C193.986 118.89 193.99 118.725 193.96 118.565C193.931 118.405 193.869 118.254 193.779 118.123C192.46 115.763 190.705 116.327 189.01 117.401Z" fill="white"/>
<path d="M185.258 146.767C183.783 143.514 183.046 140.143 181.992 136.749C179.567 138.763 179.324 142.448 177.127 144.909C176.807 145.294 176.435 145.624 176.021 145.889C174.547 146.783 172.439 146.391 170.817 146.273C169.99 146.209 169.209 145.843 168.606 145.239C168.23 144.722 168.023 144.089 168.016 143.436C167.883 141.201 169.078 139.155 170.227 137.29L178.181 124.331C178.459 123.752 178.861 123.25 179.356 122.867C179.85 122.485 180.423 122.231 181.027 122.128C186.055 120.538 191.167 119.266 196.337 118.318C197.111 118.137 197.907 118.084 198.696 118.162C200.907 118.507 202.381 120.725 203.465 122.779C209.288 133.511 213.416 145.701 212.768 158.056C212.754 158.726 212.655 159.39 212.473 160.031C212.087 160.991 211.463 161.82 210.667 162.43C208.072 164.61 204.652 165.425 201.349 165.456C196.411 165.503 189.902 163.888 186.216 160.149C184.137 158.017 186.216 156.731 187.219 154.661C188.464 151.973 186.378 149.174 185.258 146.767Z" fill="white"/>
<path d="M209.863 138.074C209.512 136.429 209.006 134.827 208.352 133.292C205.5 135.51 203.362 139.735 202.3 143.349C201.239 146.963 200.369 150.703 198.202 153.674L195.858 152.811L195.423 154.379C195.084 155.626 196.064 156.896 195.961 158.15C195.846 158.796 195.558 159.392 195.132 159.868C194.705 160.343 194.159 160.678 193.558 160.831C192.177 161.112 190.752 161.004 189.423 160.517C188.552 160.333 187.73 159.951 187.012 159.396C186.656 159.117 186.383 158.733 186.228 158.292C186.072 157.851 186.04 157.371 186.135 156.911C185.853 157.093 185.637 157.371 185.52 157.699C185.404 158.027 185.395 158.388 185.494 158.722C185.701 159.39 186.091 159.977 186.614 160.408C188.251 161.976 190.3 162.759 192.364 163.606C193.328 164.022 194.312 164.383 195.312 164.688C197.637 165.242 200.014 165.505 202.396 165.472C203.87 165.511 204.703 165.268 205.345 163.755C206.259 161.584 206.325 159.138 206.546 156.77C207.201 150.457 208.31 144.206 209.863 138.074V138.074Z" fill="url(#paint11_linear)"/>
<path d="M201.983 160.776C201.983 161.45 201.983 162.14 202.028 162.838C202.072 163.536 202.116 164.241 202.197 164.962C202.206 165.123 202.226 165.283 202.256 165.44C202.315 165.934 202.389 166.428 202.47 166.938C202.473 166.946 202.475 166.956 202.475 166.965C202.475 166.975 202.473 166.984 202.47 166.993L202.625 167.839C202.396 169.375 202.58 170.949 203.155 172.378V172.378C204.468 172.428 205.782 172.407 207.092 172.316C209.641 172.147 212.164 171.669 214.611 170.889C217.116 169.525 219.429 167.794 221.481 165.746C222.048 165.231 222.502 164.589 222.808 163.865C223.028 163.08 223.103 162.257 223.029 161.442C222.949 156.918 223.5 152.405 224.665 148.053C224.923 147.104 225.211 146.164 225.52 145.239C225.874 144.18 226.257 143.146 226.7 142.103C227.71 139.681 228.911 137.321 229.39 134.726C229.641 133.308 229.656 131.854 229.434 130.43C229.42 130.177 229.33 129.935 229.176 129.74C229.058 129.643 228.923 129.571 228.779 129.53C228.635 129.488 228.484 129.477 228.336 129.497C225.262 129.584 222.439 131.457 219.431 132.006C217.876 132.288 216.254 132.21 214.743 132.688C212.622 133.471 210.814 135 209.62 137.023C208.944 138.062 208.345 139.155 207.829 140.292C207.04 142.001 206.303 143.632 205.618 145.215C205.219 146.164 204.844 147.104 204.497 148.029C203.368 150.952 202.581 154.012 202.153 157.139V157.194C202.024 158.383 201.968 159.579 201.983 160.776V160.776Z" fill="#3E3E54"/>
<path d="M201.983 160.776C201.983 161.45 201.983 162.14 202.028 162.838C202.072 163.536 202.116 164.241 202.197 164.962C202.206 165.123 202.226 165.283 202.256 165.44C202.315 165.934 202.389 166.428 202.47 166.938C202.473 166.946 202.475 166.956 202.475 166.965C202.475 166.975 202.473 166.984 202.47 166.993L202.625 167.839C202.396 169.375 202.58 170.949 203.155 172.378V172.378C204.468 172.428 205.782 172.407 207.092 172.316C209.641 172.147 212.164 171.669 214.611 170.889C217.116 169.525 219.429 167.794 221.481 165.746C222.048 165.231 222.502 164.589 222.808 163.865C223.028 163.08 223.103 162.257 223.029 161.442C222.949 156.918 223.5 152.405 224.665 148.053C224.923 147.104 225.211 146.164 225.52 145.239C225.874 144.18 226.257 143.146 226.7 142.103C227.71 139.681 228.911 137.321 229.39 134.726C229.641 133.308 229.656 131.854 229.434 130.43C229.42 130.177 229.33 129.935 229.176 129.74C229.058 129.643 228.923 129.571 228.779 129.53C228.635 129.488 228.484 129.477 228.336 129.497C225.262 129.584 222.439 131.457 219.431 132.006C217.876 132.288 216.254 132.21 214.743 132.688C212.622 133.471 210.814 135 209.62 137.023C208.944 138.062 208.345 139.155 207.829 140.292C207.04 142.001 206.303 143.632 205.618 145.215C205.219 146.164 204.844 147.104 204.497 148.029C203.368 150.952 202.581 154.012 202.153 157.139V157.194C202.024 158.383 201.968 159.579 201.983 160.776V160.776Z" fill="url(#paint12_linear)"/>
<path d="M160.011 99.9432C158.36 98.4537 156.649 96.925 154.585 96.2038C154.452 96.1303 154.304 96.0919 154.154 96.0919C154.004 96.0919 153.856 96.1303 153.723 96.2038C153.592 96.3253 153.506 96.4918 153.48 96.6742C153.44 97.0672 153.485 97.4647 153.613 97.8358C153.741 98.207 153.948 98.5418 154.217 98.8143C154.748 99.3609 155.227 99.9623 155.647 100.61C154.875 100.461 154.081 100.499 153.325 100.719C153.176 100.75 153.039 100.83 152.934 100.947C152.884 101.051 152.861 101.168 152.867 101.285C152.874 101.402 152.91 101.515 152.971 101.613C153.27 102.088 153.673 102.479 154.146 102.752C154.618 103.025 155.146 103.172 155.684 103.181C155.885 103.188 156.081 103.253 156.251 103.369C156.613 103.69 156.377 104.31 156.443 104.796C156.496 105.029 156.598 105.247 156.743 105.432C156.887 105.617 157.07 105.764 157.276 105.862C157.674 106.081 158.124 106.191 158.544 106.379C159.153 106.801 159.827 107.109 160.534 107.289C161.927 107.351 163.32 105.384 163.335 103.988C163.365 102.467 160.976 100.813 160.011 99.9432Z" fill="url(#paint13_linear)"/>
<path d="M80.0828 168.709H77.5765V193.325H80.0828V168.709Z" fill="#4C506D"/>
<path d="M80.0828 168.709H77.5765V193.325H80.0828V168.709Z" fill="url(#paint14_linear)"/>
<path d="M91.8622 196.1C91.8622 197.919 86.0241 199.392 78.8223 199.392C71.6204 199.392 65.7896 197.919 65.7896 196.1C65.7454 195.416 65.7454 194.73 65.7896 194.046C66.7184 192.478 72.2765 192.8 78.8223 192.8C85.1248 192.8 90.6165 192.541 91.8622 194.046C91.9433 194.728 91.9433 195.418 91.8622 196.1Z" fill="#2F3554"/>
<path d="M78.8223 197.346C86.02 197.346 91.8549 195.869 91.8549 194.046C91.8549 192.223 86.02 190.746 78.8223 190.746C71.6246 190.746 65.7897 192.223 65.7897 194.046C65.7897 195.869 71.6246 197.346 78.8223 197.346Z" fill="#4C506D"/>
<path d="M102.831 163.559C102.868 165.007 102.617 166.447 102.094 167.784H102.02C100.546 167.784 99.1378 167.784 97.693 167.878C95.2896 168.085 92.8996 168.441 90.5354 168.945C89.4444 169.164 88.324 169.399 87.2699 169.634L84.1444 170.309C82.1689 170.716 80.2671 171.093 78.4242 171.351C76.0408 170.27 73.9114 168.643 72.188 166.585L71.6425 165.903C71.4214 165.605 71.2076 165.292 71.0086 164.962C70.405 164.045 70.0135 162.99 69.866 161.881C69.8181 161.432 69.833 160.978 69.9103 160.533C70.2922 159.005 71.1929 157.681 72.4386 156.817L72.8293 156.519C75.4588 154.58 78.6102 153.603 81.8077 153.736C82.0763 153.729 82.345 153.744 82.6112 153.783C84.3198 153.918 86.0128 154.222 87.6679 154.693C90.2848 155.406 92.909 156.41 95.4963 157.288C97.4133 157.835 99.2475 158.669 100.944 159.765C101.433 160.094 101.858 160.52 102.197 161.019C102.631 161.785 102.851 162.666 102.831 163.559Z" fill="#3E3E54"/>
<path d="M102.61 167.996C102.263 169.846 101.968 171.704 101.703 173.57C101.342 176.133 101.187 178.744 100.789 181.292C100.391 183.839 100.479 186.364 100.052 188.872C99.8604 189.815 99.7567 190.776 99.7423 191.741C99.8557 193.073 100.174 194.376 100.686 195.598C100.619 195.763 100.391 195.747 100.221 195.7C99.2663 195.472 98.3407 195.122 97.4645 194.658C96.5786 194.189 95.8764 193.404 95.4816 192.439C94.9582 191.004 95.4226 189.491 95.3637 188.018C95.2069 186.462 94.9006 184.928 94.4496 183.44C93.425 179.167 90.7197 175.302 90.8303 170.763C90.9253 170.183 90.8234 169.586 90.5428 169.078C90.0342 168.412 87.8891 169.493 87.2183 169.634L84.0928 170.309C78.5127 171.461 73.3601 172.786 67.6178 171.657C67.2761 171.608 66.9474 171.486 66.6521 171.296C66.3076 170.975 66.0654 170.548 65.9592 170.073C65.1627 167.391 65.3768 164.485 66.5563 161.968C67.9569 159.036 70.1756 157.868 72.7777 156.48C75.7705 154.912 78.2989 153.65 81.7561 153.752C82.0247 153.744 82.2934 153.76 82.5596 153.799C84.2736 153.947 85.9712 154.262 87.6311 154.74C91.8402 155.9 101.548 157.531 103.163 162.728C103.671 164.374 103.037 165.683 102.728 167.283C102.698 167.51 102.654 167.753 102.61 167.996Z" fill="url(#paint15_linear)"/>
<path d="M95.1278 191.718C95.1761 191.661 95.2335 191.613 95.2973 191.577C95.5627 191.459 95.8059 191.78 95.9607 192.047C96.6131 193.184 97.589 194.071 98.7471 194.579C98.8873 194.658 99.0497 194.68 99.2042 194.642C99.3737 194.571 99.4622 194.367 99.6022 194.234C99.7051 194.149 99.8259 194.091 99.9544 194.067C100.083 194.042 100.215 194.051 100.339 194.093C100.591 194.19 100.827 194.327 101.04 194.501C101.703 194.965 102.327 195.49 102.905 196.069C103.199 196.382 103.487 196.853 103.31 197.244C103.192 197.456 103.006 197.614 102.787 197.691C101.978 197.963 101.106 197.93 100.317 197.597C98.843 197.08 97.5235 196.116 96.0787 195.512C95.9807 195.459 95.8718 195.432 95.7617 195.434C95.6791 195.447 95.5977 195.468 95.5185 195.496C95.3872 195.48 95.2613 195.432 95.1502 195.356C95.039 195.279 94.9457 195.177 94.8771 195.057C94.5081 194.573 94.3282 193.956 94.3749 193.334C94.4215 192.713 94.6911 192.134 95.1278 191.718V191.718Z" fill="#3E3E54"/>
<path d="M109.546 168.929C110.18 170.678 110.483 172.543 110.438 174.416C110.438 179.214 109.185 183.902 107.961 188.527C107.445 190.471 107.01 192.447 106.406 194.399C105.964 195.794 105.374 196.829 106.222 198.279C106.405 198.552 106.575 198.835 106.73 199.126C106.8 199.277 106.827 199.446 106.808 199.612C106.79 199.779 106.727 199.937 106.627 200.067C106.295 200.388 105.772 200.176 105.359 200.004C104.356 199.699 103.372 199.33 102.411 198.899C100.597 197.809 101.298 196.429 101.585 194.759C101.939 192.745 102.175 190.683 102.374 188.645C102.866 184.495 102.766 180.29 102.079 176.172C102.025 175.685 101.844 175.223 101.556 174.84C101.183 174.512 100.725 174.315 100.244 174.275C93.6093 173.029 87.1225 172.653 80.7904 169.925C78.2771 168.883 75.8711 167.57 73.6107 166.005C73.2832 165.736 72.9907 165.423 72.7409 165.072C72.6303 164.915 72.5271 164.751 72.4313 164.586C72.0396 163.9 71.8496 163.106 71.8858 162.305C71.9016 162.093 71.9361 161.883 71.989 161.678C72.1572 161.223 72.3802 160.793 72.6524 160.4C73.0776 159.787 73.6171 159.275 74.2373 158.895C75.7969 157.703 77.631 156.982 79.5447 156.809C80.8347 156.739 82.1173 157.013 83.3925 156.935C84.5351 156.872 85.3238 156.198 86.3411 156.033C87.1137 155.937 87.8967 156.012 88.641 156.253C90.3448 156.867 91.9888 157.654 93.5503 158.605L99.2631 161.638C101.909 163.042 105.16 163.99 107.482 165.942C108.401 166.732 109.112 167.761 109.546 168.929Z" fill="url(#paint16_linear)"/>
<path d="M103.509 158.699C105.929 160.29 107.934 162.502 109.342 165.132C110.749 167.762 111.514 170.725 111.566 173.75C106.872 177.498 101.462 180.105 95.7175 181.386C95.0629 181.589 94.3671 181.589 93.7125 181.386C93.1723 181.094 92.6972 180.682 92.3193 180.178C87.0561 174.432 77.7903 175.004 72.2617 169.54C70.1683 167.471 68.8046 163.904 70.4557 161.419C71.1282 160.541 71.9639 159.821 72.9104 159.302C77.2079 156.582 82.2721 152.513 87.4689 153.454C92.6657 154.395 99.0199 155.822 103.509 158.699Z" fill="#EF4323"/>
<path d="M105.536 178.015C102.905 175.028 102.418 170.622 102.064 166.538C101.314 167.236 100.466 167.805 99.5506 168.223L99.101 166.953C99.088 166.848 99.0369 166.752 98.9584 166.686C98.8799 166.62 98.7803 166.59 98.6808 166.601C98.6256 166.61 98.5729 166.631 98.526 166.663C94.776 168.004 90.8498 168.702 86.8939 168.733C85.4197 168.733 83.7758 168.615 82.5375 167.69C81.2991 166.765 80.6577 164.774 81.5644 163.488C78.3696 164.414 75.1149 165.088 71.8268 165.503C71.6915 165.498 71.5566 165.522 71.43 165.573C71.3034 165.624 71.1877 165.702 71.0897 165.801C70.8391 166.146 71.0897 166.648 71.3035 167C73.939 170.927 77.9017 173.616 82.3605 174.503C83.6063 174.746 90.2111 177.364 93.1744 181.48C93.3819 181.741 93.6545 181.935 93.9609 182.039C94.2673 182.143 94.5951 182.153 94.9066 182.068L105.536 178.015Z" fill="url(#paint17_linear)"/>
<path d="M65.7159 166.75C64.7208 166.75 63.5635 166.922 63.0548 167.824C62.9097 168.108 62.8336 168.426 62.8336 168.749C62.8336 169.072 62.9097 169.39 63.0548 169.674C63.3557 170.239 63.8142 170.691 64.3669 170.967C65.0693 171.305 65.8143 171.532 66.5784 171.641C69.7407 172.276 72.903 172.911 76.0727 173.507C77.6723 173.805 79.2866 174.095 80.8936 174.362C82.1762 174.573 83.3556 175.24 84.6604 175.506C85.9651 175.773 87.6974 175.961 88.7884 174.973C89.1287 174.66 89.3866 174.259 89.5365 173.808C89.6865 173.357 89.7233 172.872 89.6434 172.402C89.5985 172.073 89.4595 171.766 89.2454 171.524C89.0751 171.359 88.881 171.224 88.6704 171.124C86.3435 170.032 83.8928 169.268 81.3801 168.851L76.2201 167.745C74.6567 167.291 73.062 166.968 71.4508 166.781C69.5417 166.703 67.6546 166.695 65.7159 166.75Z" fill="#3E3E54"/>
<path d="M65.7159 166.75C64.7208 166.75 63.5635 166.922 63.0548 167.824C62.9097 168.108 62.8336 168.426 62.8336 168.749C62.8336 169.072 62.9097 169.39 63.0548 169.674C63.3557 170.239 63.8142 170.691 64.3669 170.967C65.0693 171.305 65.8143 171.532 66.5784 171.641C69.7407 172.276 72.903 172.911 76.0727 173.507C77.6723 173.805 79.2866 174.095 80.8936 174.362C82.1762 174.573 83.3556 175.24 84.6604 175.506C85.9651 175.773 87.6974 175.961 88.7884 174.973C89.1287 174.66 89.3866 174.259 89.5365 173.808C89.6865 173.357 89.7233 172.872 89.6434 172.402C89.5985 172.073 89.4595 171.766 89.2454 171.524C89.0751 171.359 88.881 171.224 88.6704 171.124C86.3435 170.032 83.8928 169.268 81.3801 168.851L76.2201 167.745C74.6567 167.291 73.062 166.968 71.4508 166.781C69.5417 166.703 67.6546 166.695 65.7159 166.75Z" fill="url(#paint18_linear)"/>
<path d="M147.516 144.839V147.661H40.6016C40.432 146.72 40.2772 145.78 40.1298 144.839H147.516Z" fill="#EF4323"/>
<path d="M93.5724 105.062C93.2129 104.775 92.8155 104.545 92.393 104.38C91.1325 103.878 89.3707 103.847 88.3682 104.929C87.3657 106.011 87.4099 107.438 87.1888 108.802C86.8563 110.757 86.0822 112.597 84.9331 114.164C84.2327 114.925 83.6792 115.825 83.3041 116.813C83.2011 117.147 83.2011 117.507 83.3041 117.84C83.4959 118.178 83.7747 118.45 84.1075 118.624C84.8665 119.212 85.7251 119.637 86.6359 119.879C86.9358 119.968 87.2515 119.978 87.5559 119.908C87.8603 119.839 88.1442 119.691 88.3829 119.479C88.5461 119.272 88.7567 119.114 88.9943 119.019C89.232 118.924 89.4885 118.896 89.7393 118.938C90.2572 119.103 90.7916 119.203 91.3315 119.236C91.7474 119.167 92.1363 118.973 92.4523 118.677C92.7683 118.382 92.9983 117.996 93.1154 117.566C93.3522 116.71 93.4835 115.824 93.5061 114.932C93.7567 112.58 94.6044 110.322 94.7371 107.955C94.791 107.407 94.7123 106.854 94.5084 106.348C94.3046 105.841 93.9824 105.399 93.5724 105.062V105.062Z" fill="url(#paint19_linear)"/>
<path d="M80.8568 117.691C80.7666 117.823 80.7047 117.974 80.6754 118.134C80.6461 118.294 80.6501 118.458 80.6872 118.616C80.76 118.754 80.8676 118.868 80.9979 118.944C81.1281 119.02 81.2759 119.056 81.4244 119.048C83.5769 119.147 85.6904 119.693 87.6458 120.655C88.0734 120.866 88.6262 121.094 88.9211 120.655C89.0043 120.492 89.0479 120.31 89.0479 120.125C89.0479 119.941 89.0043 119.759 88.9211 119.596C88.766 119.3 88.546 119.047 88.2798 118.859C87.4337 118.194 86.5472 117.589 85.6261 117.049C83.9233 115.982 82.1689 115.418 80.8568 117.691Z" fill="white"/>
<path d="M87.4247 154.324C88.4198 156.441 90.5059 157.727 88.4198 159.851C84.7341 163.63 78.2252 165.205 73.2864 165.158C69.984 165.158 66.5637 164.319 63.9689 162.14C63.1734 161.528 62.5512 160.696 62.1703 159.733C61.9804 159.097 61.881 158.434 61.8755 157.766C61.2268 145.388 65.3474 133.205 71.1708 122.489C72.2765 120.435 73.7286 118.224 75.9401 117.879C76.7291 117.794 77.526 117.847 78.2989 118.036C83.4692 118.977 88.5818 120.247 93.6093 121.838C94.278 121.995 94.9082 122.3 95.4595 122.732C95.8547 123.111 96.1928 123.553 96.462 124.041L104.408 137C105.566 138.873 106.752 140.919 106.62 143.146C106.613 143.801 106.406 144.437 106.03 144.956C105.426 145.559 104.645 145.921 103.819 145.983C100.919 146.478 97.9521 146.264 95.1425 145.356C96.7126 144.078 96.2188 141.437 95.1868 139.618C94.4858 138.408 93.6186 137.317 92.6141 136.38C91.9422 139.879 90.8522 143.272 89.3707 146.477C88.2945 148.837 86.1642 151.635 87.4247 154.324Z" fill="white"/>
<path d="M95.0393 105.446C95.281 104.66 95.3065 103.817 95.113 103.016C94.7875 101.841 94.2211 100.756 93.4545 99.8413C91.9802 97.952 90.0563 96.2979 87.7785 95.9216C81.616 94.8476 74.451 101.535 72.1069 107.061C70.6326 110.534 70.1904 114.383 69.3648 118.099C68.5392 121.815 67.2049 125.601 64.4554 128.039C63.335 129.035 61.9712 129.819 61.3005 131.175C60.4822 132.845 60.9614 134.977 62.0376 136.466C63.0327 137.823 64.3006 138.364 65.5832 139.249C66.7326 140.135 67.6489 141.32 68.2443 142.691C69.6596 145.599 70.2125 148.962 71.93 151.675L74.451 150.193C76.618 149.072 78.6076 147.599 80.3481 145.827C82.0067 143.969 83.1271 141.374 82.7143 138.85C82.4711 137.321 81.6971 135.941 81.2401 134.467C79.8248 129.819 82.9207 127.961 85.6113 125.201C86.5277 124.24 87.2156 123.06 87.6181 121.759C88.0205 120.459 88.1261 119.075 87.9259 117.723C87.6724 116.991 87.6574 116.19 87.8833 115.447C88.1092 114.705 88.5629 114.066 89.1717 113.631C90.3216 112.149 89.4149 110.236 90.7713 108.864C91.8254 107.806 93.4323 107.681 94.4201 106.512C94.6947 106.207 94.9057 105.844 95.0393 105.446V105.446Z" fill="#2F3554"/>
<path d="M64.765 137.729C65.1035 136.086 65.5974 134.484 66.2393 132.947C69.1215 135.126 71.2297 139.383 72.2912 142.965C73.3527 146.548 74.2225 150.326 76.3897 153.297L78.7338 152.435L79.1687 154.003C79.5078 155.242 78.5274 156.512 78.6306 157.766C78.7457 158.411 79.0337 159.008 79.46 159.484C79.8863 159.959 80.4328 160.294 81.0337 160.447C82.4142 160.728 83.84 160.62 85.169 160.133C86.0313 159.954 86.8465 159.577 87.5574 159.028C87.9136 158.746 88.1858 158.361 88.3414 157.919C88.497 157.477 88.5293 156.996 88.4345 156.535C88.7181 156.717 88.9356 156.996 89.0519 157.326C89.1683 157.656 89.1767 158.018 89.0759 158.354C88.8683 159.022 88.4782 159.608 87.9554 160.039C86.3263 161.607 84.2697 162.391 82.2057 163.238C81.2413 163.651 80.2571 164.009 79.2572 164.312C76.9321 164.862 74.5551 165.125 72.1733 165.096C70.699 165.096 69.866 164.892 69.2247 163.371C68.3106 161.199 68.2443 158.754 68.0232 156.394C67.3888 150.093 66.2995 143.852 64.765 137.729Z" fill="url(#paint20_linear)"/>
<path d="M72.6524 160.431C72.6524 161.105 72.6524 161.787 72.6082 162.485C72.5639 163.183 72.5124 163.888 72.4313 164.617C72.4397 164.776 72.4222 164.935 72.3797 165.088C72.3133 165.582 72.247 166.075 72.1585 166.585V166.64C72.1143 166.914 72.0627 167.196 72.0111 167.487C72.2316 169.025 72.048 170.599 71.4804 172.033V172.033C70.168 172.08 68.8542 172.057 67.544 171.963C64.9943 171.798 62.4711 171.32 60.0252 170.536V170.536C57.5212 169.17 55.2088 167.439 53.1551 165.393C52.5855 164.877 52.1321 164.231 51.8282 163.504C51.6075 162.722 51.5323 161.902 51.6071 161.09C51.6884 156.552 51.1344 152.026 49.9633 147.661C49.7126 146.712 49.4252 145.772 49.1082 144.839C48.7544 143.788 48.3711 142.746 47.9361 141.703C46.9263 139.281 45.7247 136.929 45.2382 134.326C44.9795 132.907 44.957 131.45 45.1719 130.023C45.1861 129.769 45.2765 129.527 45.4299 129.333C45.548 129.235 45.683 129.164 45.8273 129.122C45.9715 129.08 46.122 129.069 46.2702 129.09C49.3441 129.176 52.1673 131.057 55.1748 131.598C56.7302 131.88 58.3519 131.81 59.863 132.288C61.9999 133.056 63.8223 134.585 65.023 136.615C65.6991 137.654 66.298 138.747 66.8143 139.884C67.603 141.593 68.3401 143.224 69.0257 144.807C69.4237 145.764 69.7628 146.697 70.1461 147.63C71.2823 150.547 72.0699 153.605 72.4902 156.731V156.786C72.6146 157.996 72.6687 159.214 72.6524 160.431V160.431Z" fill="#3E3E54"/>
<path d="M72.6524 160.431C72.6524 161.105 72.6524 161.787 72.6082 162.485C72.5639 163.183 72.5124 163.888 72.4313 164.617C72.4397 164.776 72.4222 164.935 72.3797 165.088C72.3133 165.582 72.247 166.075 72.1585 166.585V166.64C72.1143 166.914 72.0627 167.196 72.0111 167.487C72.2316 169.025 72.048 170.599 71.4804 172.033V172.033C70.168 172.08 68.8542 172.057 67.544 171.963C64.9943 171.798 62.4711 171.32 60.0252 170.536V170.536C57.5212 169.17 55.2088 167.439 53.1551 165.393C52.5855 164.877 52.1321 164.231 51.8282 163.504C51.6075 162.722 51.5323 161.902 51.6071 161.09C51.6884 156.552 51.1344 152.026 49.9633 147.661C49.7126 146.712 49.4252 145.772 49.1082 144.839C48.7544 143.788 48.3711 142.746 47.9361 141.703C46.9263 139.281 45.7247 136.929 45.2382 134.326C44.9795 132.907 44.957 131.45 45.1719 130.023C45.1861 129.769 45.2765 129.527 45.4299 129.333C45.548 129.235 45.683 129.164 45.8273 129.122C45.9715 129.08 46.122 129.069 46.2702 129.09C49.3441 129.176 52.1673 131.057 55.1748 131.598C56.7302 131.88 58.3519 131.81 59.863 132.288C61.9999 133.056 63.8223 134.585 65.023 136.615C65.6991 137.654 66.298 138.747 66.8143 139.884C67.603 141.593 68.3401 143.224 69.0257 144.807C69.4237 145.764 69.7628 146.697 70.1461 147.63C71.2823 150.547 72.0699 153.605 72.4902 156.731V156.786C72.6146 157.996 72.6687 159.214 72.6524 160.431V160.431Z" fill="url(#paint21_linear)"/>
<path d="M101.091 196.515C101.133 196.454 101.189 196.405 101.253 196.374C101.526 196.257 101.769 196.578 101.917 196.845C102.569 197.982 103.545 198.869 104.703 199.377C104.843 199.456 105.006 199.478 105.16 199.439C105.337 199.369 105.426 199.165 105.558 199.032C105.661 198.946 105.782 198.889 105.91 198.864C106.039 198.84 106.171 198.849 106.295 198.891C106.547 198.983 106.782 199.121 106.988 199.298C107.653 199.761 108.277 200.286 108.853 200.866C109.148 201.18 109.436 201.65 109.259 202.042C109.147 202.254 108.962 202.412 108.743 202.481C107.933 202.757 107.057 202.727 106.266 202.395C104.792 201.878 103.48 200.913 102.035 200.31C101.934 200.258 101.823 200.231 101.71 200.231C101.63 200.245 101.551 200.266 101.475 200.294C101.343 200.277 101.217 200.229 101.106 200.153C100.995 200.077 100.902 199.975 100.833 199.855C100.465 199.369 100.286 198.752 100.334 198.13C100.383 197.509 100.653 196.931 101.091 196.515V196.515Z" fill="#3E3E54"/>
<path d="M122.918 98.1401L118.443 99.1671V78.0637L122.918 77.0446V98.1401Z" fill="#EF4323"/>
<path d="M128.881 96.7683L124.4 97.7952V81.8187L128.881 80.7996V96.7683Z" fill="#EF4323"/>
<path d="M134.852 95.4042L130.378 96.4312V67.4571L134.852 66.4302V95.4042Z" fill="#EF4323"/>
<path d="M140.816 94.0323L136.341 95.0593V59.806L140.816 58.779V94.0323Z" fill="#EF4323"/>
<path d="M115.495 99.7864L143.926 93.7109V58.8417" stroke="#2F3554" stroke-miterlimit="10"/>
<path d="M73.8613 71.7295C74.0591 71.7995 74.2513 71.8861 74.4363 71.9882L76.2201 73.0309C76.3043 73.086 76.3964 73.1257 76.4929 73.1485C76.5949 73.1718 76.7005 73.1718 76.8025 73.1485C79.3235 72.5919 79.3456 69.0799 77.2964 67.8648C76.9068 67.6768 76.5384 67.4428 76.198 67.1671C75.9332 66.8572 75.687 66.5299 75.4609 66.1872C75.3342 66.0228 75.1676 65.8986 74.9791 65.8281C74.7906 65.7576 74.5875 65.7435 74.392 65.7874C74.2278 65.8718 74.085 65.9971 73.976 66.1527C73.8669 66.3083 73.7947 66.4895 73.7655 66.681C73.7144 67.0636 73.6254 67.4394 73.5001 67.8021C73.3846 68.0242 73.2461 68.2319 73.0873 68.4214C72.8569 68.7308 72.6451 69.0555 72.4534 69.3934C72.2327 69.7089 72.1279 70.0991 72.1585 70.4909C72.2159 70.7091 72.3234 70.9085 72.4714 71.0714C72.6194 71.2343 72.8032 71.3554 73.0062 71.4238C73.2642 71.5414 73.5517 71.6198 73.8613 71.7295Z" fill="#FDB9A9"/>
<path d="M90.0268 85.903C90.3567 86.5178 90.5743 87.1934 90.6681 87.8942C90.6635 88.5787 90.5109 89.2529 90.222 89.8647C89.9331 90.4764 89.5157 91.0092 89.0021 91.4219C87.6044 92.7153 85.8399 93.4742 83.9896 93.5777C83.5177 93.6275 83.0415 93.5521 82.6038 93.3582C82.0005 92.9502 81.5416 92.3409 81.299 91.6257C79.0139 86.6242 76.515 80.439 76.2865 74.8026C76.2128 73.0544 77.6502 69.9735 79.5815 71.1338C81.7045 72.4116 83.6726 75.5473 85.1322 77.5777C87.0139 80.1773 88.6532 82.9655 90.0268 85.903V85.903Z" fill="white"/>
<defs>
<linearGradient id="paint0_linear" x1="75.3061" y1="113.333" x2="86.4529" y2="254.778" gradientUnits="userSpaceOnUse">
<stop offset="0.01"/>
<stop offset="0.08" stop-opacity="0.69"/>
<stop offset="0.21" stop-opacity="0.32"/>
<stop offset="1" stop-opacity="0"/>
</linearGradient>
<linearGradient id="paint1_linear" x1="138773" y1="-7382.63" x2="138682" y2="-106.013" gradientUnits="userSpaceOnUse">
<stop offset="0.01"/>
<stop offset="0.08" stop-opacity="0.69"/>
<stop offset="0.21" stop-opacity="0.32"/>
<stop offset="1" stop-opacity="0"/>
</linearGradient>
<linearGradient id="paint2_linear" x1="18920.4" y1="-674.582" x2="18875.4" y2="-339.438" gradientUnits="userSpaceOnUse">
<stop offset="0.01"/>
<stop offset="0.08" stop-opacity="0.69"/>
<stop offset="0.21" stop-opacity="0.32"/>
<stop offset="1" stop-opacity="0"/>
</linearGradient>
<linearGradient id="paint3_linear" x1="1720.22" y1="-1441.49" x2="1457.19" y2="-1340.9" gradientUnits="userSpaceOnUse">
<stop offset="0.01"/>
<stop offset="0.08" stop-opacity="0.69"/>
<stop offset="0.21" stop-opacity="0.32"/>
<stop offset="1" stop-opacity="0"/>
</linearGradient>
<linearGradient id="paint4_linear" x1="12036.3" y1="-571.336" x2="11634.7" y2="-319.416" gradientUnits="userSpaceOnUse">
<stop offset="0.01"/>
<stop offset="0.08" stop-opacity="0.69"/>
<stop offset="0.21" stop-opacity="0.32"/>
<stop offset="1" stop-opacity="0"/>
</linearGradient>
<linearGradient id="paint5_linear" x1="104874" y1="-5213.97" x2="104852" y2="-600.932" gradientUnits="userSpaceOnUse">
<stop offset="0.01"/>
<stop offset="0.08" stop-opacity="0.69"/>
<stop offset="0.21" stop-opacity="0.32"/>
<stop offset="1" stop-opacity="0"/>
</linearGradient>
<linearGradient id="paint6_linear" x1="12274.4" y1="-525.135" x2="11873.3" y2="-272.917" gradientUnits="userSpaceOnUse">
<stop offset="0.01"/>
<stop offset="0.08" stop-opacity="0.69"/>
<stop offset="0.21" stop-opacity="0.32"/>
<stop offset="1" stop-opacity="0"/>
</linearGradient>
<linearGradient id="paint7_linear" x1="196.897" y1="193.301" x2="195.024" y2="175.223" gradientUnits="userSpaceOnUse">
<stop stop-opacity="0"/>
<stop offset="0.99"/>
</linearGradient>
<linearGradient id="paint8_linear" x1="10315.9" y1="-5997.32" x2="11507.8" y2="-2440.39" gradientUnits="userSpaceOnUse">
<stop stop-opacity="0"/>
<stop offset="0.99"/>
</linearGradient>
<linearGradient id="paint9_linear" x1="87450.3" y1="-430.155" x2="87443.3" y2="-125.075" gradientUnits="userSpaceOnUse">
<stop offset="0.01"/>
<stop offset="0.08" stop-opacity="0.69"/>
<stop offset="0.21" stop-opacity="0.32"/>
<stop offset="1" stop-opacity="0"/>
</linearGradient>
<linearGradient id="paint10_linear" x1="178.874" y1="112.376" x2="191.391" y2="112.376" gradientUnits="userSpaceOnUse">
<stop stop-color="#E5C5D5"/>
<stop offset="0.42" stop-color="#EAD4D1"/>
<stop offset="1" stop-color="#F0E9CB"/>
</linearGradient>
<linearGradient id="paint11_linear" x1="20262.8" y1="-2631" x2="17596.7" y2="-4655.43" gradientUnits="userSpaceOnUse">
<stop offset="0.01"/>
<stop offset="0.08" stop-opacity="0.69"/>
<stop offset="0.21" stop-opacity="0.32"/>
<stop offset="1" stop-opacity="0"/>
</linearGradient>
<linearGradient id="paint12_linear" x1="22728.3" y1="-5533.96" x2="21692.1" y2="-5533.96" gradientUnits="userSpaceOnUse">
<stop stop-opacity="0"/>
<stop offset="0.99"/>
</linearGradient>
<linearGradient id="paint13_linear" x1="2441.12" y1="-2038.27" x2="2590.42" y2="-2038.27" gradientUnits="userSpaceOnUse">
<stop stop-color="#E5C5D5"/>
<stop offset="0.42" stop-color="#EAD4D1"/>
<stop offset="1" stop-color="#F0E9CB"/>
</linearGradient>
<linearGradient id="paint14_linear" x1="1617.93" y1="-1828.18" x2="1904.54" y2="-2127.65" gradientUnits="userSpaceOnUse">
<stop stop-opacity="0"/>
<stop offset="0.99"/>
</linearGradient>
<linearGradient id="paint15_linear" x1="34991" y1="-6332.72" x2="33614.2" y2="-2685.81" gradientUnits="userSpaceOnUse">
<stop stop-color="#E5C5D5"/>
<stop offset="0.42" stop-color="#EAD4D1"/>
<stop offset="1" stop-color="#F0E9CB"/>
</linearGradient>
<linearGradient id="paint16_linear" x1="5266.44" y1="-4853.04" x2="7141.29" y2="-3000.49" gradientUnits="userSpaceOnUse">
<stop stop-color="#E5C5D5"/>
<stop offset="0.42" stop-color="#EAD4D1"/>
<stop offset="1" stop-color="#F0E9CB"/>
</linearGradient>
<linearGradient id="paint17_linear" x1="3768.66" y1="-1584.53" x2="4859.15" y2="-2922.91" gradientUnits="userSpaceOnUse">
<stop offset="0.01"/>
<stop offset="0.08" stop-opacity="0.69"/>
<stop offset="0.21" stop-opacity="0.32"/>
<stop offset="1" stop-opacity="0"/>
</linearGradient>
<linearGradient id="paint18_linear" x1="3459.21" y1="-984.24" x2="3321.26" y2="-607.162" gradientUnits="userSpaceOnUse">
<stop stop-opacity="0"/>
<stop offset="0.99"/>
</linearGradient>
<linearGradient id="paint19_linear" x1="25149.4" y1="-2624.86" x2="24969.5" y2="-2624.86" gradientUnits="userSpaceOnUse">
<stop stop-color="#E5C5D5"/>
<stop offset="0.42" stop-color="#EAD4D1"/>
<stop offset="1" stop-color="#F0E9CB"/>
</linearGradient>
<linearGradient id="paint20_linear" x1="8140.24" y1="-2643.3" x2="10802.9" y2="-4662.22" gradientUnits="userSpaceOnUse">
<stop offset="0.01"/>
<stop offset="0.08" stop-opacity="0.69"/>
<stop offset="0.21" stop-opacity="0.32"/>
<stop offset="1" stop-opacity="0"/>
</linearGradient>
<linearGradient id="paint21_linear" x1="9447.64" y1="-5561.2" x2="10483.5" y2="-5561.2" gradientUnits="userSpaceOnUse">
<stop stop-opacity="0"/>
<stop offset="0.99"/>
</linearGradient>
</defs>
</svg>
