<svg width="174" height="116" viewBox="0 0 174 116" fill="none" xmlns="http://www.w3.org/2000/svg">
<path d="M152.394 8.66425H5.72242C3.31434 8.66425 1.36221 10.6831 1.36221 13.1735V110.022C1.36221 112.512 3.31434 114.531 5.72242 114.531H152.394C154.802 114.531 156.754 112.512 156.754 110.022V13.1735C156.754 10.6831 154.802 8.66425 152.394 8.66425Z" fill="white"/>
<path d="M152.394 115.338H5.75362C4.3917 115.336 3.08627 114.775 2.12399 113.778C1.1617 112.781 0.621214 111.43 0.621216 110.022V13.1735C0.621214 11.7651 1.1617 10.4142 2.12399 9.41746C3.08627 8.42076 4.3917 7.85974 5.75362 7.8576H152.394C153.756 7.85974 155.062 8.4205 156.026 9.41696C156.99 10.4134 157.532 11.7643 157.534 13.1735V110.022C157.532 111.431 156.99 112.782 156.026 113.779C155.062 114.775 153.756 115.336 152.394 115.338ZM5.71462 9.47094C4.76644 9.47307 3.8578 9.86412 3.18807 10.5583C2.51834 11.2524 2.14221 12.1929 2.14221 13.1735V110.022C2.14221 111.003 2.51834 111.943 3.18807 112.637C3.8578 113.331 4.76644 113.722 5.71462 113.725H152.394C153.343 113.722 154.252 113.332 154.923 112.638C155.594 111.944 155.972 111.003 155.974 110.022V13.1735C155.972 12.1922 155.594 11.2517 154.923 10.5578C154.252 9.86385 153.343 9.47307 152.394 9.47094H5.71462Z" fill="#093F68"/>
<path d="M159.843 1.46881H13.1714C10.7633 1.46881 8.81122 3.48768 8.81122 5.97808V102.826C8.81122 105.317 10.7633 107.336 13.1714 107.336H159.843C162.251 107.336 164.203 105.317 164.203 102.826V5.97808C164.203 3.48768 162.251 1.46881 159.843 1.46881Z" fill="#ED1717"/>
<path d="M159.843 108.143H13.2026C11.8407 108.141 10.5353 107.58 9.573 106.583C8.61071 105.586 8.07022 104.235 8.07022 102.827V5.97835C8.07022 4.56987 8.61071 3.21897 9.573 2.22227C10.5353 1.22557 11.8407 0.664552 13.2026 0.662415H159.843C161.205 0.664548 162.511 1.22531 163.475 2.22177C164.439 3.21824 164.981 4.56913 164.983 5.97835V102.827C164.981 104.236 164.439 105.587 163.475 106.583C162.511 107.58 161.205 108.141 159.843 108.143ZM13.2026 2.27575C12.7272 2.26718 12.255 2.35662 11.8134 2.53885C11.3718 2.72109 10.9697 2.99246 10.6306 3.33713C10.2915 3.68181 10.0222 4.09288 9.8384 4.54636C9.65459 4.99984 9.55995 5.48664 9.56002 5.97835V102.827C9.56002 103.807 9.93615 104.748 10.6059 105.442C11.2756 106.136 12.1842 106.527 13.1324 106.529H159.843C160.792 106.527 161.701 106.136 162.372 105.443C163.043 104.749 163.421 103.808 163.423 102.827V5.97835C163.421 4.99701 163.043 4.05648 162.372 3.36257C161.701 2.66866 160.792 2.27788 159.843 2.27575H13.2026Z" fill="#093F68"/>
<path d="M47.2496 102.972C47.0427 102.972 46.8443 102.887 46.6981 102.735C46.5518 102.584 46.4696 102.379 46.4696 102.165V17.3601C46.4696 17.1462 46.5518 16.941 46.6981 16.7897C46.8443 16.6385 47.0427 16.5535 47.2496 16.5535C47.4565 16.5535 47.6549 16.6385 47.8011 16.7897C47.9474 16.941 48.0296 17.1462 48.0296 17.3601V102.165C48.0296 102.379 47.9474 102.584 47.8011 102.735C47.6549 102.887 47.4565 102.972 47.2496 102.972Z" fill="#093F68"/>
<path d="M86.507 102.972C86.3001 102.972 86.1017 102.887 85.9554 102.735C85.8092 102.584 85.727 102.379 85.727 102.165V17.3601C85.727 17.1462 85.8092 16.941 85.9554 16.7897C86.1017 16.6385 86.3001 16.5535 86.507 16.5535C86.7139 16.5535 86.9123 16.6385 87.0585 16.7897C87.2048 16.941 87.287 17.1462 87.287 17.3601V102.165C87.287 102.379 87.2048 102.584 87.0585 102.735C86.9123 102.887 86.7139 102.972 86.507 102.972Z" fill="#093F68"/>
<path d="M125.78 102.972C125.573 102.972 125.375 102.887 125.228 102.735C125.082 102.584 125 102.379 125 102.165V17.3601C125 17.1462 125.082 16.941 125.228 16.7897C125.375 16.6385 125.573 16.5535 125.78 16.5535C125.987 16.5535 126.185 16.6385 126.332 16.7897C126.478 16.941 126.56 17.1462 126.56 17.3601V102.165C126.56 102.379 126.478 102.584 126.332 102.735C126.185 102.887 125.987 102.972 125.78 102.972Z" fill="#093F68"/>
<path d="M26.0492 89.9278C25.8943 89.9288 25.7426 89.882 25.6135 89.7934C25.4844 89.7048 25.3837 89.5785 25.3243 89.4305C25.2649 89.2825 25.2494 89.1196 25.2799 88.9625C25.3104 88.8054 25.3854 88.6613 25.4954 88.5484L61.9214 50.5786C62.0669 50.4333 62.2612 50.352 62.4635 50.352C62.6658 50.352 62.8602 50.4333 63.0056 50.5786L93.7064 80.3769L150.74 22.797C150.813 22.7229 150.9 22.6644 150.995 22.6249C151.09 22.5853 151.192 22.5656 151.294 22.5667C151.397 22.5678 151.498 22.5898 151.592 22.6314C151.687 22.673 151.772 22.7334 151.844 22.8091C151.915 22.8849 151.972 22.9745 152.01 23.0728C152.048 23.1712 152.068 23.2764 152.066 23.3824C152.065 23.4884 152.044 23.5931 152.004 23.6906C151.964 23.7881 151.905 23.8764 151.832 23.9506L94.2758 82.0306C94.1308 82.1736 93.938 82.2534 93.7376 82.2534C93.5372 82.2534 93.3445 82.1736 93.1994 82.0306L62.4908 52.2726L26.6108 89.6858C26.5377 89.763 26.4502 89.8242 26.3538 89.8658C26.2573 89.9074 26.1537 89.9285 26.0492 89.9278Z" fill="#093F68"/>
<path d="M41.6492 22.4098H15.059C14.8522 22.4098 14.6538 22.3248 14.5075 22.1736C14.3612 22.0223 14.279 21.8171 14.279 21.6032C14.279 21.3892 14.3612 21.1841 14.5075 21.0328C14.6538 20.8815 14.8522 20.7965 15.059 20.7965H41.6492C41.8561 20.7965 42.0545 20.8815 42.2008 21.0328C42.347 21.1841 42.4292 21.3892 42.4292 21.6032C42.4292 21.8171 42.347 22.0223 42.2008 22.1736C42.0545 22.3248 41.8561 22.4098 41.6492 22.4098Z" fill="white"/>
<path d="M41.6492 28.7825H15.059C14.8522 28.7825 14.6538 28.6975 14.5075 28.5463C14.3612 28.395 14.279 28.1898 14.279 27.9759C14.279 27.7619 14.3612 27.5567 14.5075 27.4055C14.6538 27.2542 14.8522 27.1692 15.059 27.1692H41.6492C41.8561 27.1692 42.0545 27.2542 42.2008 27.4055C42.347 27.5567 42.4292 27.7619 42.4292 27.9759C42.4292 28.1898 42.347 28.395 42.2008 28.5463C42.0545 28.6975 41.8561 28.7825 41.6492 28.7825Z" fill="white"/>
<path d="M28.3502 35.1633H15.0902C14.8833 35.1633 14.685 35.0783 14.5387 34.927C14.3924 34.7757 14.3102 34.5705 14.3102 34.3566C14.3102 34.1426 14.3924 33.9375 14.5387 33.7862C14.685 33.6349 14.8833 33.5499 15.0902 33.5499H28.3502C28.5571 33.5499 28.7555 33.6349 28.9017 33.7862C29.048 33.9375 29.1302 34.1426 29.1302 34.3566C29.1302 34.5705 29.048 34.7757 28.9017 34.927C28.7555 35.0783 28.5571 35.1633 28.3502 35.1633Z" fill="white"/>
<path d="M26.0492 93.3642C28.3151 93.3642 30.152 91.4646 30.152 89.1212C30.152 86.7778 28.3151 84.8781 26.0492 84.8781C23.7833 84.8781 21.9464 86.7778 21.9464 89.1212C21.9464 91.4646 23.7833 93.3642 26.0492 93.3642Z" fill="#FFBC0E"/>
<path d="M26.0492 94.1709C25.0835 94.1709 24.1394 93.8747 23.3365 93.3199C22.5335 92.765 21.9077 91.9763 21.5381 91.0536C21.1685 90.1309 21.0718 89.1156 21.2602 88.136C21.4486 87.1564 21.9137 86.2567 22.5966 85.5505C23.2794 84.8442 24.1495 84.3633 25.0966 84.1684C26.0438 83.9736 27.0256 84.0736 27.9178 84.4558C28.81 84.838 29.5726 85.4852 30.1091 86.3157C30.6456 87.1461 30.932 88.1224 30.932 89.1212C30.9299 90.4598 30.4149 91.743 29.4996 92.6895C28.5843 93.636 27.3436 94.1687 26.0492 94.1709ZM26.0492 85.6848C25.392 85.6848 24.7496 85.8863 24.2032 86.2639C23.6567 86.6415 23.2308 87.1782 22.9793 87.8061C22.7279 88.434 22.662 89.125 22.7903 89.7916C22.9185 90.4582 23.2349 91.0705 23.6996 91.5511C24.1643 92.0316 24.7564 92.3589 25.401 92.4915C26.0455 92.6241 26.7136 92.5561 27.3208 92.296C27.928 92.0359 28.4469 91.5954 28.812 91.0303C29.1771 90.4652 29.372 89.8008 29.372 89.1212C29.372 88.2098 29.0219 87.3357 28.3988 86.6912C27.7756 86.0468 26.9305 85.6848 26.0492 85.6848Z" fill="#093F68"/>
<path d="M61.781 54.4023C64.0469 54.4023 65.8838 52.5026 65.8838 50.1592C65.8838 47.8158 64.0469 45.9161 61.781 45.9161C59.5151 45.9161 57.6782 47.8158 57.6782 50.1592C57.6782 52.5026 59.5151 54.4023 61.781 54.4023Z" fill="#F56132"/>
<path d="M61.82 55.2089C60.8543 55.2089 59.9103 54.9127 59.1073 54.3579C58.3043 53.803 57.6785 53.0143 57.3089 52.0916C56.9393 51.1689 56.8426 50.1536 57.0311 49.174C57.2195 48.1945 57.6845 47.2947 58.3674 46.5885C59.0502 45.8823 59.9203 45.4013 60.8674 45.2065C61.8146 45.0116 62.7964 45.1116 63.6886 45.4938C64.5808 45.876 65.3434 46.5233 65.8799 47.3537C66.4164 48.1841 66.7028 49.1604 66.7028 50.1592C66.7007 51.4978 66.1857 52.781 65.2704 53.7275C64.3551 54.6741 63.1144 55.2068 61.82 55.2089ZM61.82 46.7066C61.1628 46.7066 60.5204 46.9082 59.974 47.2858C59.4275 47.6634 59.0016 48.2001 58.7502 48.828C58.4987 49.4559 58.4329 50.1468 58.5611 50.8134C58.6893 51.48 59.0058 52.0923 59.4705 52.5729C59.9352 53.0535 60.5272 53.3808 61.1718 53.5134C61.8163 53.646 62.4844 53.5779 63.0916 53.3178C63.6988 53.0578 64.2177 52.6173 64.5828 52.0522C64.9479 51.4871 65.1428 50.8227 65.1428 50.143C65.1428 49.2316 64.7927 48.3576 64.1696 47.7131C63.5464 47.0687 62.7013 46.7066 61.82 46.7066Z" fill="#093F68"/>
<path d="M94.6892 83.7811C96.9551 83.7811 98.792 81.8814 98.792 79.538C98.792 77.1946 96.9551 75.2949 94.6892 75.2949C92.4233 75.2949 90.5864 77.1946 90.5864 79.538C90.5864 81.8814 92.4233 83.7811 94.6892 83.7811Z" fill="#70CC40"/>
<path d="M94.6892 84.62C93.7235 84.62 92.7794 84.3238 91.9765 83.769C91.1735 83.2141 90.5476 82.4254 90.1781 81.5027C89.8085 80.58 89.7118 79.5646 89.9002 78.5851C90.0886 77.6055 90.5537 76.7058 91.2365 75.9995C91.9194 75.2933 92.7894 74.8124 93.7366 74.6175C94.6838 74.4227 95.6655 74.5227 96.5578 74.9049C97.45 75.2871 98.2126 75.9343 98.7491 76.7648C99.2856 77.5952 99.572 78.5715 99.572 79.5703C99.5699 80.9089 99.0548 82.192 98.1396 83.1386C97.2243 84.0851 95.9836 84.6178 94.6892 84.62ZM94.6892 76.1338C94.032 76.1338 93.3896 76.3354 92.8431 76.713C92.2967 77.0906 91.8708 77.6273 91.6193 78.2552C91.3678 78.8831 91.302 79.5741 91.4302 80.2407C91.5585 80.9073 91.8749 81.5196 92.3396 82.0001C92.8043 82.4807 93.3964 82.808 94.0409 82.9406C94.6855 83.0732 95.3536 83.0052 95.9608 82.7451C96.5679 82.485 97.0869 82.0445 97.452 81.4794C97.8171 80.9143 98.012 80.2499 98.012 79.5703C98.0161 79.1163 97.9332 78.6659 97.7681 78.2453C97.6029 77.8246 97.3588 77.442 97.0499 77.1195C96.7409 76.7969 96.3732 76.5409 95.968 76.3662C95.5628 76.1915 95.1282 76.1016 94.6892 76.1016V76.1338Z" fill="#093F68"/>
<path d="M151.27 25.8462C153.536 25.8462 155.373 23.9466 155.373 21.6032C155.373 19.2598 153.536 17.3601 151.27 17.3601C149.005 17.3601 147.168 19.2598 147.168 21.6032C147.168 23.9466 149.005 25.8462 151.27 25.8462Z" fill="white"/>
<path d="M151.27 26.6449C150.304 26.6449 149.36 26.3485 148.557 25.7933C147.754 25.2381 147.128 24.4489 146.759 23.5257C146.389 22.6025 146.293 21.5868 146.482 20.607C146.671 19.6272 147.137 18.7275 147.821 18.0216C148.504 17.3157 149.375 16.8354 150.323 16.6415C151.27 16.4475 152.252 16.5487 153.144 16.9321C154.036 17.3156 154.798 17.9641 155.334 18.7955C155.87 19.627 156.155 20.6041 156.153 21.6032C156.151 22.9411 155.636 24.2234 154.72 25.1687C153.805 26.114 152.564 26.6449 151.27 26.6449ZM151.27 18.1668C150.613 18.1668 149.971 18.3684 149.424 18.7459C148.878 19.1235 148.452 19.6602 148.201 20.2882C147.949 20.9161 147.883 21.607 148.011 22.2736C148.14 22.9402 148.456 23.5525 148.921 24.0331C149.386 24.5137 149.978 24.841 150.622 24.9736C151.267 25.1062 151.935 25.0381 152.542 24.778C153.149 24.5179 153.668 24.0775 154.033 23.5124C154.398 22.9473 154.593 22.2829 154.593 21.6032C154.593 20.6918 154.243 19.8178 153.62 19.1733C152.997 18.5289 152.152 18.1668 151.27 18.1668Z" fill="#093F68"/>
<path d="M150.119 81.4288L154.348 76.8052L146.183 68.8169L141.954 73.4405L150.119 81.4288Z" fill="white"/>
<path d="M150.116 82.2C149.916 82.2013 149.724 82.1234 149.578 81.9822L141.38 74.0043C141.306 73.9312 141.246 73.8437 141.205 73.7468C141.163 73.6499 141.141 73.5455 141.138 73.4396C141.133 73.2275 141.208 73.0217 141.349 72.8669L145.576 68.2447C145.647 68.1679 145.732 68.1064 145.825 68.0635C145.919 68.0205 146.02 67.9972 146.122 67.9946C146.225 67.9908 146.328 68.0081 146.424 68.0454C146.521 68.0828 146.609 68.1396 146.684 68.2124L154.851 76.1984C154.924 76.2734 154.982 76.3626 155.021 76.4609C155.061 76.5592 155.081 76.6646 155.081 76.7711C155.081 76.8776 155.061 76.983 155.021 77.0813C154.982 77.1796 154.924 77.2689 154.851 77.3439L150.615 81.9661C150.474 82.1191 150.281 82.2089 150.077 82.2161L150.116 82.2ZM143.049 73.3751L150.069 80.2559L153.189 76.8034L146.169 69.9225L143.049 73.3751Z" fill="#093F68"/>
<path d="M142.598 76.4106L149.09 69.314L140.924 61.3258L134.433 68.4224L142.598 76.4106Z" fill="white"/>
<path d="M142.597 77.1987C142.397 77.2 142.204 77.122 142.059 76.9809L133.892 68.9949C133.819 68.9199 133.761 68.8307 133.721 68.7324C133.682 68.6341 133.661 68.5286 133.661 68.4221C133.661 68.3156 133.682 68.2102 133.721 68.1119C133.761 68.0136 133.819 67.9244 133.892 67.8494L140.382 60.7588C140.452 60.6806 140.536 60.6175 140.63 60.5732C140.723 60.5289 140.825 60.5043 140.928 60.5007C141.135 60.5061 141.333 60.5859 141.489 60.7265L149.656 68.7125C149.729 68.7875 149.787 68.8767 149.827 68.975C149.866 69.0733 149.887 69.1788 149.887 69.2853C149.887 69.3918 149.866 69.4972 149.827 69.5955C149.787 69.6938 149.729 69.783 149.656 69.858L143.158 76.9486C143.086 77.0272 142.999 77.0899 142.902 77.1329C142.806 77.1759 142.702 77.1982 142.597 77.1987ZM135.53 68.3737L142.55 75.2546L147.963 69.3337L140.943 62.4528L135.53 68.3737Z" fill="#093F68"/>
<path d="M167.93 98.3439L171.655 94.2711C172.419 93.4361 172.384 92.1189 171.576 91.329L155.795 75.8903C154.988 75.1004 153.714 75.1369 152.95 75.9719L149.225 80.0447C148.461 80.8797 148.497 82.1969 149.304 82.9868L165.085 98.4255C165.892 99.2154 167.166 99.1789 167.93 98.3439Z" fill="white"/>
<path d="M166.465 99.7691C165.749 99.7663 165.061 99.4772 164.546 98.9625L148.759 83.5148C148.224 82.9863 147.913 82.2604 147.894 81.4956C147.875 80.7308 148.15 79.9894 148.657 79.4331L152.378 75.3998C152.889 74.8475 153.59 74.5259 154.329 74.5048C155.068 74.4836 155.785 74.7646 156.325 75.2868L172.112 90.7345C172.379 90.9939 172.593 91.3059 172.742 91.6523C172.891 91.9986 172.971 92.3723 172.978 92.7512C172.986 93.1315 172.921 93.5098 172.787 93.8642C172.653 94.2186 172.453 94.5421 172.198 94.8162L168.469 98.8496L167.9 98.3333L168.469 98.8899C168.21 99.1682 167.898 99.3895 167.554 99.5406C167.209 99.6916 166.839 99.7694 166.465 99.7691ZM154.406 76.1016C154.245 76.1045 154.086 76.141 153.938 76.2089C153.791 76.2768 153.658 76.3747 153.548 76.4968L149.82 80.5302C149.596 80.7754 149.475 81.1024 149.484 81.4396C149.492 81.7768 149.63 82.0966 149.866 82.329L165.646 97.7686C165.763 97.8845 165.902 97.9753 166.054 98.0356C166.205 98.0959 166.367 98.1246 166.529 98.1201C166.691 98.1156 166.851 98.078 167 98.0094C167.148 97.9407 167.282 97.8425 167.393 97.7202L171.114 93.6869C171.227 93.567 171.316 93.4242 171.373 93.2673C171.431 93.1105 171.457 92.943 171.449 92.7754C171.441 92.6035 171.399 92.4352 171.325 92.2811C171.252 92.1269 171.148 91.9904 171.02 91.88L155.241 76.4404C155.013 76.2231 154.715 76.1021 154.406 76.1016Z" fill="#093F68"/>
<path d="M141.965 37.4542C138.775 34.3337 134.763 32.2616 130.434 31.4997C126.106 30.7379 121.656 31.3207 117.648 33.1742C113.64 35.0278 110.253 38.069 107.916 41.9132C105.579 45.7574 104.397 50.232 104.52 54.771C104.642 59.31 106.063 63.7095 108.603 67.4133C111.143 71.1171 114.688 73.9587 118.789 75.5788C122.891 77.1989 127.365 77.5247 131.646 76.515C135.927 75.5053 139.822 73.2055 142.839 69.9064C144.842 67.7166 146.409 65.14 147.45 62.3237C148.491 59.5075 148.984 56.5068 148.903 53.4931C148.822 50.4794 148.168 47.5117 146.977 44.7597C145.787 42.0077 144.083 39.5252 141.965 37.4542Z" fill="white" stroke="#093F68" stroke-width="2" stroke-linecap="round" stroke-linejoin="round"/>
<path d="M126.708 69.9144C135.134 69.9144 141.965 62.8466 141.965 54.128C141.965 45.4093 135.134 38.3415 126.708 38.3415C118.282 38.3415 111.451 45.4093 111.451 54.128C111.451 62.8466 118.282 69.9144 126.708 69.9144Z" fill="#ED1717"/>
<path d="M126.708 70.7211C123.535 70.7227 120.432 69.7509 117.792 67.9286C115.153 66.1063 113.095 63.5154 111.879 60.4835C110.664 57.4516 110.345 54.1151 110.963 50.8958C111.581 47.6765 113.109 44.7191 115.352 42.3977C117.596 40.0763 120.455 38.4952 123.567 37.8543C126.68 37.2134 129.906 37.5415 132.839 38.7972C135.771 40.0528 138.277 42.1796 140.04 44.9085C141.804 47.6374 142.745 50.8458 142.745 54.128C142.739 58.5254 141.047 62.741 138.042 65.8512C135.036 68.9614 130.96 70.7126 126.708 70.7211ZM126.708 39.1482C123.843 39.1466 121.042 40.0238 118.659 41.6688C116.276 43.3139 114.418 45.6528 113.321 48.3899C112.223 51.1269 111.935 54.1391 112.493 57.0455C113.051 59.9518 114.43 62.6217 116.455 64.7175C118.481 66.8132 121.062 68.2407 123.872 68.8194C126.682 69.398 129.594 69.1018 132.242 67.9683C134.889 66.8347 137.151 64.9147 138.743 62.4512C140.335 59.9876 141.185 57.0911 141.185 54.128C141.181 50.1578 139.655 46.3513 136.941 43.5432C134.227 40.7351 130.547 39.1546 126.708 39.1482Z" fill="#093F68"/>
<path d="M127.613 64.9938C127.445 64.9871 127.284 64.9247 127.153 64.8157C127.023 64.7067 126.929 64.5569 126.888 64.3888C124.345 54.0473 123.112 48.925 122.512 46.384C121.529 48.9331 119.946 53.1842 118.846 56.1366C118.79 56.2897 118.691 56.4218 118.562 56.5155C118.432 56.6091 118.278 56.6598 118.12 56.6609H112.138C111.931 56.6609 111.733 56.5759 111.586 56.4247C111.44 56.2734 111.358 56.0682 111.358 55.8543C111.358 55.6403 111.44 55.4351 111.586 55.2839C111.733 55.1326 111.931 55.0476 112.138 55.0476H117.598C117.964 54.0554 118.807 51.7806 119.665 49.5139C122.169 42.8589 122.169 42.8589 122.878 42.9879C123.047 43.0193 123.202 43.1074 123.317 43.2387C123.433 43.3699 123.504 43.537 123.518 43.7139C123.643 44.4319 125.913 53.7892 127.753 61.2912L131.193 50.4254C131.243 50.2663 131.34 50.1272 131.47 50.0275C131.6 49.9277 131.757 49.8723 131.919 49.8688C132.078 49.8705 132.232 49.9224 132.362 50.0176C132.492 50.1127 132.59 50.2466 132.644 50.4012L135.148 57.4757H141.466C141.673 57.4757 141.871 57.5607 142.017 57.7119C142.164 57.8632 142.246 58.0684 142.246 58.2823C142.246 58.4963 142.164 58.7015 142.017 58.8527C141.871 59.004 141.673 59.089 141.466 59.089H134.602C134.441 59.0889 134.285 59.0378 134.154 58.9425C134.023 58.8473 133.923 58.7125 133.869 58.5566L131.926 53.16L128.354 64.4533C128.3 64.612 128.2 64.7495 128.067 64.8464C127.934 64.9433 127.776 64.9948 127.613 64.9938Z" fill="white"/>
<path d="M164.203 5.97802V12.02H8.78001V5.96995C8.77898 5.37817 8.8908 4.79199 9.10907 4.24494C9.32734 3.6979 9.64777 3.20074 10.052 2.78191C10.4563 2.36308 10.9364 2.03081 11.465 1.8041C11.9936 1.57738 12.5602 1.46069 13.1324 1.46069H159.843C160.416 1.46069 160.983 1.57759 161.513 1.80471C162.043 2.03183 162.524 2.36469 162.929 2.78427C163.333 3.20385 163.655 3.7019 163.873 4.24992C164.092 4.79794 164.204 5.38518 164.203 5.97802Z" fill="#093F68"/>
<path d="M164.203 12.8267H8.78C8.57313 12.8267 8.37473 12.7417 8.22846 12.5904C8.08218 12.4391 8 12.2339 8 12.02V5.96999C8 4.56151 8.54048 3.2106 9.50277 2.2139C10.4651 1.2172 11.7705 0.65619 13.1324 0.654053H159.843C161.205 0.656186 162.511 1.21694 163.475 2.21341C164.439 3.20988 164.981 4.56077 164.983 5.96999V12.02C164.983 12.2339 164.901 12.4391 164.754 12.5904C164.608 12.7417 164.41 12.8267 164.203 12.8267ZM9.56 11.2133H163.423V5.96999C163.421 4.98865 163.043 4.04812 162.372 3.35421C161.701 2.6603 160.792 2.26952 159.843 2.26739H13.2026C12.7266 2.2588 12.2536 2.3485 11.8115 2.53123C11.3694 2.71396 10.967 2.98606 10.6278 3.3316C10.2886 3.67713 10.0195 4.08916 9.83611 4.54357C9.65276 4.99799 9.55889 5.48567 9.56 5.97805V11.2133Z" fill="#093F68"/>
<path d="M17.9528 8.67229C18.9092 8.67229 19.6844 7.87053 19.6844 6.88149C19.6844 5.89246 18.9092 5.0907 17.9528 5.0907C16.9965 5.0907 16.2212 5.89246 16.2212 6.88149C16.2212 7.87053 16.9965 8.67229 17.9528 8.67229Z" fill="#F56132"/>
<path d="M23.366 8.67229C24.3223 8.67229 25.0976 7.87053 25.0976 6.88149C25.0976 5.89246 24.3223 5.0907 23.366 5.0907C22.4097 5.0907 21.6344 5.89246 21.6344 6.88149C21.6344 7.87053 22.4097 8.67229 23.366 8.67229Z" fill="#FFBC0E"/>
<path d="M28.7792 8.67229C29.7355 8.67229 30.5108 7.87053 30.5108 6.88149C30.5108 5.89246 29.7355 5.0907 28.7792 5.0907C27.8229 5.0907 27.0476 5.89246 27.0476 6.88149C27.0476 7.87053 27.8229 8.67229 28.7792 8.67229Z" fill="#70CC40"/>
</svg>
